<?xml version="1.0" standalone="no"?>
<!DOCTYPE svg PUBLIC "-//W3C//DTD SVG 1.1//EN" "http://www.w3.org/Graphics/SVG/1.1/DTD/svg11.dtd" >
<svg>
<metadata>
Created by FontForge 20090914 at Sun Dec 22 19:02:42 2019
 By www-data
Copyright 2011-15 Lohit Fonts Project contributors.
&#60;http://fedorahosted.org/lohit&#62;

  Licensed under the SIL Open Font License 1.1 (see file OFL.txt)
</metadata>
<defs>
<font id="Lohit-Telugu" horiz-adv-x="0" >
  <font-face 
    font-family="Lohit Telugu"
    font-weight="400"
    font-stretch="normal"
    units-per-em="1024"
    panose-1="2 11 6 0 0 0 0 0 0 0"
    ascent="819"
    descent="-205"
    x-height="499"
    cap-height="666"
    bbox="-979 -673.001 1726 999"
    underline-thickness="20"
    underline-position="-300"
    unicode-range="U+000C-U+25CC"
  />
<missing-glyph horiz-adv-x="374" 
d="M34 0v682h272v-682h-272zM68 34h204v614h-204v-614z" />
    <glyph glyph-name=".notdef" horiz-adv-x="374" 
d="M34 0v682h272v-682h-272zM68 34h204v614h-204v-614z" />
    <glyph glyph-name=".null" 
 />
    <glyph glyph-name=".null" 
 />
    <glyph glyph-name="nonmarkingreturn" 
 />
    <glyph glyph-name="space" unicode=" " horiz-adv-x="300" 
 />
    <glyph glyph-name="exclam" unicode="!" horiz-adv-x="299" 
d="M121 211l-21 489h99l-21 -489h-57zM107 0v105h85v-105h-85z" />
    <glyph glyph-name="quotedbl" unicode="&#x22;" horiz-adv-x="321" 
d="M64 545l-14 205h81l-15 -205h-52zM205 545l-15 205h81l-15 -205h-51z" />
    <glyph glyph-name="numbersign" unicode="#" horiz-adv-x="720" 
d="M119 463l-17 -58h119l-43 -144h-120l-17 -58h120l-61 -203h63l61 203h194l-61 -203h63l61 203h120l17 58h-120l43 144h121l17 58h-120l61 203h-63l-61 -203h-194l61 203h-63l-61 -203h-120zM284 405h194l-43 -144h-194z" />
    <glyph glyph-name="dollar" unicode="$" horiz-adv-x="575" 
d="M215 -128l50 0.000976562l15 128c72 0 128 14.667 168 44s60 69 60 119c0 23.333 -3.83301 44.5 -11.5 63.5s-16.667 34.667 -27 47s-24.666 24.166 -42.999 35.499s-34.333 20 -48 26s-31.834 13.333 -54.501 22l29 242c38 -11.333 69 -33.333 93 -66l51 36
c-34.667 47.333 -80 77.666 -136 90.999l16 134h-50l-16 -128c-65.333 0 -116.5 -15.667 -153.5 -47s-55.5 -73.666 -55.5 -126.999c0 -25.333 4.33301 -47.666 13 -66.999s22 -36 40 -50s34.833 -25.333 50.5 -34s36.5 -18.334 62.5 -29.001l-29 -243
c-41.333 14.667 -74 42 -98 82l-51 -36c34 -55.333 81 -91 141 -107zM440 165.001c0 -32 -13.5 -57.499 -40.5 -76.499s-64.167 -28.5 -111.5 -28.5l28 233c40.667 -17.333 71.5 -35.333 92.5 -54s31.5 -43.334 31.5 -74.001zM170 490.002c0 35.333 12.167 63.5 36.5 84.5
s56.833 31.5 97.5 31.5l-28 -230c-34.667 14.667 -61 30.5 -79 47.5s-27 39.167 -27 66.5z" />
    <glyph glyph-name="percent" unicode="%" horiz-adv-x="723" 
d="M50 500c0 -55.333 11.833 -98.833 35.5 -130.5s56.5 -47.5 98.5 -47.5s74.833 15.833 98.5 47.5s35.5 75.167 35.5 130.5c0 56 -11.833 99.833 -35.5 131.5s-56.5 47.5 -98.5 47.5s-74.833 -15.833 -98.5 -47.5s-35.5 -75.5 -35.5 -131.5zM106 500
c0 40.667 6.83301 72.334 20.5 95.001s32.834 34 57.501 34s44 -11.333 58 -34s21 -54.334 21 -95.001c0 -40 -7 -71.333 -21 -94s-33.333 -34 -58 -34s-43.834 11.333 -57.501 34s-20.5 54 -20.5 94zM405 165c0 -55.333 11.833 -98.833 35.5 -130.5s56.5 -47.5 98.5 -47.5
s74.833 15.833 98.5 47.5s35.5 75.167 35.5 130.5c0 56 -11.833 99.833 -35.5 131.5s-56.5 47.5 -98.5 47.5s-74.833 -15.833 -98.5 -47.5s-35.5 -75.5 -35.5 -131.5zM461 165c0 40.667 6.83301 72.334 20.5 95.001s32.834 34 57.501 34s44 -11.333 58 -34
s21 -54.334 21 -95.001c0 -40 -7 -71.333 -21 -94s-33.333 -34 -58 -34s-43.834 11.333 -57.501 34s-20.5 54 -20.5 94zM586 666h-50l-400 -666h50z" />
    <glyph glyph-name="ampersand" unicode="&#x26;" horiz-adv-x="578" 
d="M530 -21l48.001 40.001l-98 103c26 38 48 84 66 138l-58 16c-14 -41.333 -31 -77.666 -51 -108.999l-170 179c102 54.667 153 116.667 153 186c0 41.333 -15 76.166 -45 104.499s-67 42.5 -111 42.5c-46 0 -82.833 -14 -110.5 -42s-41.5 -65 -41.5 -111
c0 -50 20 -104.333 60 -163c-46 -26 -79.5 -54.5 -100.5 -85.5s-31.5 -66.833 -31.5 -107.5c0 -54.667 17.667 -98.834 53 -132.501s81.666 -50.5 138.999 -50.5c82.667 0 152 28.667 208 86zM232.001 45.001c-37.333 0 -67.667 11.667 -91 35s-35 53.333 -35 90
c0 59.333 34.333 108 103 146l189 -199c-46.667 -48 -102 -72 -166 -72zM178 526.001c0 28.667 8.00098 51.667 24.001 69s36.667 26 62 26s46.666 -8.5 63.999 -25.5s26 -38.167 26 -63.5s-10 -49 -30 -71s-51.667 -44.667 -95 -68c-34 48.667 -51 93 -51 133z" />
    <glyph glyph-name="quotesingle" unicode="'" horiz-adv-x="181" 
d="M64 545l-14 205h81l-15 -205h-52z" />
    <glyph glyph-name="parenleft" unicode="(" horiz-adv-x="486" 
d="M306 -220c-66.667 79.333 -117.667 169.334 -153 270.001s-53 206 -53 316c0 92.667 17.667 184.834 53 276.501s86.333 177.167 153 256.5h80c-70.667 -84.667 -125 -172.667 -163 -264s-57 -181 -57 -269c0 -104.667 19 -207.334 57 -308.001
s92.333 -193.334 163 -278.001h-80z" />
    <glyph glyph-name="parenright" unicode=")" horiz-adv-x="466" 
d="M100 -220c64.667 77.333 114.167 164 148.5 260s51.5 196 51.5 300c0 103.333 -17.167 203 -51.5 299s-83.833 182.667 -148.5 260h66c65.333 -77.333 115 -164 149 -260s51 -195.667 51 -299c0 -104 -17 -204 -51 -300s-83.667 -182.667 -149 -260h-66z" />
    <glyph glyph-name="asterisk" unicode="*" horiz-adv-x="559" 
d="M70 615l137 -19l-85 110l71 40l52 -126l52 127l71 -42l-86 -109l138 19v-81l-136 17l84 -108l-71 -40l-52 128l-52 -129l-71 42l83 108l-135 -18v81z" />
    <glyph glyph-name="plus" unicode="+" horiz-adv-x="872" 
d="M258 303h-178v60h178v178h60v-178h178v-60h-178v-178h-60v178z" />
    <glyph glyph-name="comma" unicode="," horiz-adv-x="359" 
d="M17 -128l53 233h97l-100 -233h-50z" />
    <glyph glyph-name="hyphen" unicode="-" horiz-adv-x="692" 
d="M100 293v73h493v-73h-493z" />
    <glyph glyph-name="period" unicode="." horiz-adv-x="279" 
d="M75 0v105h85v-105h-85z" />
    <glyph glyph-name="slash" unicode="/" horiz-adv-x="672" 
d="M100 -180l393 1066h80l-393 -1066h-80z" />
    <glyph glyph-name="zero" unicode="0" horiz-adv-x="575" 
d="M55 333c0 108 20.5 192.667 61.5 254s97.833 92 170.5 92s129.667 -30.667 171 -92s62 -146 62 -254s-20.667 -192.667 -62 -254s-98.333 -92 -171 -92s-129.5 30.667 -170.5 92s-61.5 146 -61.5 254zM123 333c0 -88.667 14.5 -158.167 43.5 -208.5
s69.167 -75.5 120.5 -75.5s91.666 25.167 120.999 75.5s44 119.833 44 208.5s-14.667 158.167 -44 208.5s-69.666 75.5 -120.999 75.5s-91.5 -25.167 -120.5 -75.5s-43.5 -119.833 -43.5 -208.5z" />
    <glyph glyph-name="one" unicode="1" horiz-adv-x="575" 
d="M74 584l242 94h38v-618h150v-60h-407v60h191v542l-192 -74z" />
    <glyph glyph-name="two" unicode="2" horiz-adv-x="575" 
d="M499 0l-419.004 -0.000976562v40c0 35.333 6.33301 67.333 19 96s29.334 52.834 50.001 72.501s43.334 38.167 68.001 55.5l74 50c24.667 16 47.334 32.333 68.001 49s37.334 36.5 50.001 59.5s19 48.167 19 75.5c0 36.667 -12.167 66 -36.5 88s-56.833 33 -97.5 33
c-67.333 0 -118.333 -25.667 -153 -77l-51 36c46 67.333 114 101 204 101c61.333 0 110.333 -16.333 147 -49s55 -76.667 55 -132c0 -42 -11.333 -79.833 -34 -113.5s-50.667 -62 -84 -85l-100 -67c-33.333 -21.667 -62.833 -47 -88.5 -76s-40.5 -61.167 -44.5 -96.5h354
v-60z" />
    <glyph glyph-name="three" unicode="3" horiz-adv-x="575" 
d="M192 361c62 0 111.998 13.5 149.998 40.5s57 62.167 57 105.5c0 34 -11.833 61.167 -35.5 81.5s-55.167 30.5 -94.5 30.5c-60 0 -107.667 -21.333 -143 -64l-50 36c44.667 58.667 109 88 193 88c60.667 0 108.834 -15.5 144.501 -46.5s53.5 -72.833 53.5 -125.5
c0 -36.667 -11.5 -69.667 -34.5 -99s-55.167 -51.666 -96.5 -66.999c98.667 -24 148 -79 148 -165c0 -58 -19.5 -104 -58.5 -138s-91.167 -51 -156.5 -51c-94 0 -165.667 35.333 -215 106l51 36c37.333 -54.667 92 -82 164 -82c44.667 0 80.334 11.667 107.001 35
s40 54.666 40 93.999c0 45.333 -17.5 78.833 -52.5 100.5s-89.167 32.5 -162.5 32.5z" />
    <glyph glyph-name="four" unicode="4" horiz-adv-x="575" 
d="M45 200l212 479l68 -13l-198 -446h270v280h66v-280h60v-60h-60v-160h-66v160h-352v40z" />
    <glyph glyph-name="five" unicode="5" horiz-adv-x="575" 
d="M289 -13c-94 0 -165.668 35.334 -215.001 106.001l51 36c37.333 -54.667 92 -82 164 -82c44.667 0 80.334 11.667 107.001 35s40 54.666 40 93.999c0 54 -21.167 93.833 -63.5 119.5s-107.833 38.5 -196.5 38.5h-66l10 332h349v-60h-283l-8 -215
c217.333 -1.33301 326 -73 326 -215c0 -58 -19.5 -104 -58.5 -138s-91.167 -51 -156.5 -51z" />
    <glyph glyph-name="six" unicode="6" horiz-adv-x="575" 
d="M311 617c64 0 112.333 -23.999 145 -71.999l53 36c-46 65.333 -111 98 -195 98c-77.333 0 -139.166 -33.667 -185.499 -101s-69.5 -157.333 -69.5 -270c0 -97.333 20.167 -174.5 60.5 -231.5s95.166 -86.833 164.499 -89.5h8c65.333 0 119.166 20.5 161.499 61.5
s63.5 93.5 63.5 157.5c0 59.333 -19.333 107.666 -58 144.999s-89 56 -151 56c-43.333 0 -80.666 -10.5 -111.999 -31.5s-54.333 -49.833 -69 -86.5c0 101.333 16.667 181.333 50 240s78 88 134 88zM152 197.001c0 43.333 14.665 79.168 43.998 107.501
s66.333 42.5 111 42.5c42.667 0 77.334 -13.167 104.001 -39.5s40 -60.166 40 -101.499c0 -46.667 -14.5 -84.834 -43.5 -114.501s-66.167 -44.5 -111.5 -44.5c-43.333 0 -78.166 13.667 -104.499 41s-39.5 63.666 -39.5 108.999z" />
    <glyph glyph-name="seven" unicode="7" horiz-adv-x="575" 
d="M493 626l-244 -626h-73l236 606h-347v60h428v-40z" />
    <glyph glyph-name="eight" unicode="8" horiz-adv-x="575" 
d="M288 679c62 0 110.834 -15.5 146.501 -46.5s53.5 -73.167 53.5 -126.5c0 -40 -10 -71.833 -30 -95.5s-48 -43.5 -84 -59.5c43.333 -17.333 77.166 -39.833 101.499 -67.5s36.5 -66.167 36.5 -115.5c0 -55.333 -20.167 -99.333 -60.5 -132s-94.833 -49 -163.5 -49
s-123.167 16.333 -163.5 49s-60.5 76.667 -60.5 132c0 49.333 12.167 87.833 36.5 115.5s57.833 50.167 100.5 67.5c-36 16 -63.833 35.833 -83.5 59.5s-29.5 55.5 -29.5 95.5c0 53.333 17.833 95.5 53.5 126.5s84.5 46.5 146.5 46.5zM444.001 168
c0 22 -3.99805 41.333 -11.998 58s-20.333 30.834 -37 42.501s-32.5 20.834 -47.5 27.501s-34.833 14.334 -59.5 23.001c-24.667 -8.66699 -44.5 -16.334 -59.5 -23.001s-30.833 -15.834 -47.5 -27.501s-29 -25.834 -37 -42.501s-12 -36 -12 -58
c0 -36.667 14.167 -66 42.5 -88s66.166 -33 113.499 -33s85.166 11 113.499 33s42.5 51.333 42.5 88zM288.003 619c-40.667 0 -72.8301 -10 -96.4971 -30s-35.5 -47.667 -35.5 -83c0 -33.333 11.167 -58.666 33.5 -75.999s55.166 -33.333 98.499 -48
c43.333 14.667 76.166 30.667 98.499 48s33.5 42.666 33.5 75.999c0 35.333 -11.833 63 -35.5 83s-55.834 30 -96.501 30z" />
    <glyph glyph-name="nine" unicode="9" horiz-adv-x="575" 
d="M264 49c-64 0 -112.333 23.999 -145 71.999l-53 -36c46 -65.333 111 -98 195 -98c77.333 0 139.166 31.167 185.499 93.5s69.5 145.5 69.5 249.5c0 43.333 -4 84.666 -12 123.999s-20.5 76.333 -37.5 111s-41.333 62.334 -73 83.001s-68.5 31 -110.5 31
c-66 0 -120 -21 -162 -63s-63 -95.667 -63 -161c0 -61.333 19.333 -111 58 -149s89 -57 151 -57c42 0 78.833 10.5 110.5 31.5s54.834 50.167 69.501 87.5c0 -3.33301 0.166992 -9.16602 0.5 -17.499s0.5 -14.5 0.5 -18.5c0 -85.333 -16.833 -153.833 -50.5 -205.5
s-78.167 -77.5 -133.5 -77.5zM423 463.999c0 -44.667 -14.666 -81.667 -43.999 -111s-66.333 -44 -111 -44c-42.667 0 -77.334 13.5 -104.001 40.5s-40 62.167 -40 105.5c0 48.667 14.333 88.167 43 118.5s66 45.5 112 45.5c44 0 79 -14 105 -42s39 -65.667 39 -113z" />
    <glyph glyph-name="colon" unicode=":" horiz-adv-x="279" 
d="M75 0v105h85v-105h-85zM75 381v105h85v-105h-85z" />
    <glyph glyph-name="semicolon" unicode=";" horiz-adv-x="366" 
d="M75 381v105h85v-105h-85zM17 -128l53 233h97l-100 -233h-50z" />
    <glyph glyph-name="less" unicode="&#x3c;" horiz-adv-x="661" 
d="M152 333l344 -140v-63l-416 170v66l416 170v-63z" />
    <glyph glyph-name="equal" unicode="=" horiz-adv-x="798" 
d="M496 463v-60h-416v60h416zM496 263v-60h-416v60h416z" />
    <glyph glyph-name="greater" unicode="&#x3e;" horiz-adv-x="661" 
d="M80 193l343 140l-343 140v63l416 -170v-66l-416 -170v63z" />
    <glyph glyph-name="question" unicode="?" horiz-adv-x="665" 
d="M174 211c0 33.333 5.66699 62.833 17 88.5s25 46.5 41 62.5l47.5 46.5c15.667 15 29.167 32.833 40.5 53.5s17 44 17 70c0 36.667 -12.167 66 -36.5 88s-56.833 33 -97.5 33c-58 0 -102 -22.667 -132 -68l-51 36c40.667 61.333 101.667 92 183 92
c61.333 0 110.333 -16.333 147 -49s55 -76.667 55 -132c0 -30.667 -6 -58 -18 -82s-26.5 -44.167 -43.5 -60.5l-51 -48c-17 -15.667 -31.5 -34.5 -43.5 -56.5s-18 -46.667 -18 -74h-57zM160 0v105h85v-105h-85z" />
    <glyph glyph-name="at" unicode="@" horiz-adv-x="1043" 
d="M868 315c0 -77.333 -17.167 -138.504 -51.5 -183.504s-74.833 -67.5 -121.5 -67.5c-33.333 0 -61.5 9.5 -84.5 28.5s-37.167 48.5 -42.5 88.5c-36.667 -42.667 -81.667 -64 -135 -64c-54 0 -97 17.833 -129 53.5s-48 83.834 -48 144.501s17 108.834 51 144.501
s79.667 53.5 137 53.5c48 0 89 -15 123 -45v33h57v-288c0 -62 23.667 -93 71 -93c29.333 0 54.166 17.333 74.499 52s30.5 82.334 30.5 143.001c0 94.667 -33 175.667 -99 243s-145.667 101 -239 101s-173.166 -33.667 -239.499 -101s-99.5 -148.333 -99.5 -243
c0 -95.333 33.167 -176.666 99.5 -243.999s146.166 -101 239.499 -101c58 0 114.333 15.333 169 46l33 -54c-65.333 -36 -132.666 -54 -201.999 -54c-112.667 0 -208.667 39.667 -288 119s-119 175.333 -119 288c0 112 39.667 207.667 119 287s175.333 119 288 119
c112 0 207.667 -39.667 287 -119s119 -175 119 -287zM433 172.996c54 0 97.333 27 130 81v139c-28.667 42.667 -68.667 64 -120 64c-38 0 -68.5 -13 -91.5 -39s-34.5 -60.333 -34.5 -103c0 -43.333 10.5 -77.833 31.5 -103.5s49.167 -38.5 84.5 -38.5z" />
    <glyph glyph-name="A" unicode="A" horiz-adv-x="519" 
d="M309 666l200 -666h-66l-59 196h-250l-58 -196h-66l200 666h99zM152 256h214l-107 357z" />
    <glyph glyph-name="B" unicode="B" horiz-adv-x="585" 
d="M515 188c0 -57.333 -18.834 -103 -56.501 -137s-88.167 -51 -151.5 -51h-207v666h66h121c62.667 0 113 -15.833 151 -47.5s57 -74.167 57 -127.5c0 -68 -34.333 -115.333 -103 -142c38.667 -12 68.834 -32 90.501 -60s32.5 -61.667 32.5 -101zM165.999 316v-256h141
c42.667 0 76.667 11.667 102 35s38 54.333 38 93s-12.667 69.667 -38 93s-59.333 35 -102 35h-141zM165.999 606v-230h121c42.667 0 76.667 10.5 102 31.5s38 48.833 38 83.5s-12.667 62.5 -38 83.5s-59.333 31.5 -102 31.5h-121z" />
    <glyph glyph-name="C" unicode="C" horiz-adv-x="536" 
d="M306 617c-54 0 -97.167 -25.833 -129.5 -77.5s-48.5 -120.5 -48.5 -206.5s16.167 -154.833 48.5 -206.5s75.5 -77.5 129.5 -77.5c69.333 0 122.333 29.667 159 89l51 -36c-50 -76.667 -120.333 -115 -211 -115c-74.667 0 -134.167 31.333 -178.5 94
s-66.5 146.667 -66.5 252s22.167 189.333 66.5 252s103.833 94 178.5 94c86 0 153 -34 201 -102l-51 -36c-35.333 50.667 -85 76 -149 76z" />
    <glyph glyph-name="D" unicode="D" horiz-adv-x="625" 
d="M565 333c0 -101.333 -23.333 -182.168 -70 -242.501s-109.334 -90.5 -188.001 -90.5h-207v666h207c78.667 0 141.334 -30.167 188.001 -90.5s70 -141.166 70 -242.499zM166 605.998v-546.002h141c57.333 0 103.333 24.833 138 74.5s52 115.834 52 198.501
s-17.333 148.834 -52 198.501s-80.667 74.5 -138 74.5h-141z" />
    <glyph glyph-name="E" unicode="E" horiz-adv-x="514" 
d="M166 376h267v-60h-267v-256h298v-60h-364v666h66h288v-60h-288v-230z" />
    <glyph glyph-name="F" unicode="F" horiz-adv-x="474" 
d="M166 376h247v-60h-247v-316h-66v666h66h268v-60h-268v-230z" />
    <glyph glyph-name="G" unicode="G" horiz-adv-x="602" 
d="M517 0h-61v61c-38 -49.333 -88.333 -74 -151 -74c-74.667 0 -134.167 31.333 -178.5 94s-66.5 146.667 -66.5 252s24 189.333 72 252s112.667 94 194 94c79.333 0 141 -24.667 185 -74l-43 -45c-34 38 -81 57 -141 57c-60.667 0 -109 -25.833 -145 -77.5
s-54 -120.5 -54 -206.5s16.167 -154.833 48.5 -206.5s75.5 -77.5 129.5 -77.5c62.667 0 111 31.667 145 95v121h-153v60h219v-325z" />
    <glyph glyph-name="H" unicode="H" horiz-adv-x="619" 
d="M100 0v666h66v-303h287v303h66v-666h-66v303h-287v-303h-66z" />
    <glyph glyph-name="I" unicode="I" horiz-adv-x="266" 
d="M166 0h-66v666h66v-666z" />
    <glyph glyph-name="J" unicode="J" horiz-adv-x="401" 
d="M161 -13c-71.333 0 -125.001 37.001 -161.001 111.001l54 34c22.667 -55.333 58.334 -83 107.001 -83c28.667 0 50.667 10.167 66 30.5s23 49.5 23 87.5v499h66v-499c0 -56.667 -13.667 -100.834 -41 -132.501s-65.333 -47.5 -114 -47.5z" />
    <glyph glyph-name="K" unicode="K" horiz-adv-x="521" 
d="M100 0v666h66v-311l259 311h80l-251 -299l267 -367h-77l-232 317l-46 -55v-262h-66z" />
    <glyph glyph-name="L" unicode="L" horiz-adv-x="419" 
d="M100 666h66v-606h248v-60h-314v666z" />
    <glyph glyph-name="M" unicode="M" horiz-adv-x="776" 
d="M349 50l-183 548v-598h-66v666h105l183 -548l183 548h105v-666h-66v598l-183 -548h-78z" />
    <glyph glyph-name="N" unicode="N" horiz-adv-x="639" 
d="M473 67v599h66v-666h-100l-273 599v-599h-66v666h100z" />
    <glyph glyph-name="O" unicode="O" horiz-adv-x="635" 
d="M60 333c0 108 22.833 192.667 68.5 254s108.5 92 188.5 92c80.667 0 143.834 -30.667 189.501 -92s68.5 -146 68.5 -254s-22.833 -192.667 -68.5 -254s-108.834 -92 -189.501 -92c-80 0 -142.833 30.667 -188.5 92s-68.5 146 -68.5 254zM128 333
c0 -88.667 16.833 -158.167 50.5 -208.5s79.834 -75.5 138.501 -75.5c59.333 0 105.833 25.167 139.5 75.5s50.5 119.833 50.5 208.5s-16.833 158.167 -50.5 208.5s-80.167 75.5 -139.5 75.5c-58.667 0 -104.834 -25.167 -138.501 -75.5s-50.5 -119.833 -50.5 -208.5z" />
    <glyph glyph-name="P" unicode="P" horiz-adv-x="530" 
d="M100 0v666h66h111c68 0 122.167 -18.833 162.5 -56.5s60.5 -88.167 60.5 -151.5s-20.167 -113.833 -60.5 -151.5s-94.5 -56.5 -162.5 -56.5h-111v-250h-66zM166 606v-296h111c47.333 0 85 13.5 113 40.5s42 62.833 42 107.5s-14 80.5 -42 107.5s-65.667 40.5 -113 40.5
h-111z" />
    <glyph glyph-name="Q" unicode="Q" horiz-adv-x="635" 
d="M318 44l286 -149l-28 -53l-286 149zM60 333c0 108 22.833 192.667 68.5 254s108.5 92 188.5 92c80.667 0 143.834 -30.667 189.501 -92s68.5 -146 68.5 -254s-22.833 -192.667 -68.5 -254s-108.834 -92 -189.501 -92c-80 0 -142.833 30.667 -188.5 92
s-68.5 146 -68.5 254zM128 333c0 -88.667 16.833 -158.167 50.5 -208.5s79.834 -75.5 138.501 -75.5c59.333 0 105.833 25.167 139.5 75.5s50.5 119.833 50.5 208.5s-16.833 158.167 -50.5 208.5s-80.167 75.5 -139.5 75.5c-58.667 0 -104.834 -25.167 -138.501 -75.5
s-50.5 -119.833 -50.5 -208.5z" />
    <glyph glyph-name="R" unicode="R" horiz-adv-x="545" 
d="M100 0v666h66h101c68 0 122.167 -18 162.5 -54s60.5 -84 60.5 -144c0 -46 -12.167 -85.333 -36.5 -118s-58.5 -55.667 -102.5 -69l159 -281h-73l-152 270h-18h-101v-270h-66zM166 606v-276h101c47.333 0 85 12.5 113 37.5s42 58.5 42 100.5s-14 75.5 -42 100.5
s-65.667 37.5 -113 37.5h-101z" />
    <glyph glyph-name="S" unicode="S" horiz-adv-x="518" 
d="M400 157c0 31.333 -11.5029 57.8311 -34.5029 79.498s-50.833 39.334 -83.5 53.001l-98 42.5c-32.667 14.667 -60.5 35.834 -83.5 63.501s-34.5 61.834 -34.5 102.501c0 55.333 17.833 99.333 53.5 132s83.834 49 144.501 49c82.667 0 147 -32.333 193 -97l-51 -36
c-34 48.667 -81.333 73 -142 73c-39.333 0 -70.833 -11 -94.5 -33s-35.5 -51.333 -35.5 -88c0 -30.667 11.5 -56 34.5 -76s50.833 -36.333 83.5 -49s65.334 -26.334 98.001 -41.001s60.5 -36.5 83.5 -65.5s34.5 -65.5 34.5 -109.5c0 -52 -19 -93.333 -57 -124
s-88.667 -46 -152 -46c-92 0 -161.667 38.333 -209 115l51 36c36 -60.667 88.667 -91 158 -91c42.667 0 76.834 10 102.501 30s38.5 46.667 38.5 80z" />
    <glyph glyph-name="T" unicode="T" horiz-adv-x="407" 
d="M397 606h-161v-606h-66v606h-160v60h387v-60z" />
    <glyph glyph-name="U" unicode="U" horiz-adv-x="614" 
d="M307 49c47.333 0 85.166 15.167 113.499 45.5s42.5 70.833 42.5 121.5v450h66v-450c0 -70 -20.167 -125.667 -60.5 -167s-94.166 -62 -161.499 -62s-121.166 20.667 -161.499 62s-60.5 97 -60.5 167v450h66v-450c0 -50.667 14.167 -91.167 42.5 -121.5
s66.166 -45.5 113.499 -45.5z" />
    <glyph glyph-name="V" unicode="V" horiz-adv-x="509" 
d="M205 0l-195 666h66l178 -613l179 613h66l-195 -666h-99z" />
    <glyph glyph-name="W" unicode="W" horiz-adv-x="809" 
d="M438 666l137 -606l158 606h66l-175 -666h-94l-126 570l-125 -570h-94l-175 666h66l158 -606l137 606h67z" />
    <glyph glyph-name="X" unicode="X" horiz-adv-x="507" 
d="M103 666l151 -267l150 267h73l-186 -331l191 -335h-73l-157 275l-154 -275h-73l191 339l-186 327h73z" />
    <glyph glyph-name="Y" unicode="Y" horiz-adv-x="449" 
d="M192 0v247l-187 419h69l150 -343l151 343h69l-186 -416v-250h-66z" />
    <glyph glyph-name="Z" unicode="Z" horiz-adv-x="505" 
d="M463 626l-333 -566h322v-60h-407v40l333 566h-313v60h398v-40z" />
    <glyph glyph-name="bracketleft" unicode="[" horiz-adv-x="392" 
d="M100 -266v1211h193v-73h-127v-1065h127v-73h-193z" />
    <glyph glyph-name="backslash" unicode="\" horiz-adv-x="605" 
d="M506 -129h-68l-338 941h68z" />
    <glyph glyph-name="bracketright" unicode="]" horiz-adv-x="392" 
d="M100 -266v73h120v1065h-120v73h193v-1211h-193z" />
    <glyph glyph-name="asciicircum" unicode="^" horiz-adv-x="671" 
d="M288 441l-140 -275h-66l170 334h72l170 -334h-66z" />
    <glyph glyph-name="underscore" unicode="_" horiz-adv-x="912" 
d="M100 -330v68h712v-68h-712z" />
    <glyph glyph-name="grave" unicode="`" 
d="M101 584h-49l-92 166h87z" />
    <glyph glyph-name="a" unicode="a" horiz-adv-x="516" 
d="M375 52c-38 -43.333 -83.333 -65 -136 -65c-54.667 0 -98.167 14.833 -130.5 44.5s-48.5 69.167 -48.5 118.5c0 50 16.167 89.667 48.5 119s75.833 44 130.5 44c49.333 0 93 -14.333 131 -43v67c0 35.333 -10.5 63.5 -31.5 84.5s-48.833 31.5 -83.5 31.5
c-52 0 -94 -22 -126 -66l-51 33c42 62 101 93 177 93c55.333 0 99.333 -16 132 -48s49 -74.667 49 -128v-337h-61v52zM238 47c54.667 0 98.667 26.667 132 80v74c-32.667 34.667 -76.667 52 -132 52c-34.667 0 -62 -9.33301 -82 -28s-30 -43.667 -30 -75s10 -56.333 30 -75
s47.333 -28 82 -28z" />
    <glyph glyph-name="b" unicode="b" horiz-adv-x="536" 
d="M90 700h65.999v-248c38.667 40.667 85 61 139 61c58.667 0 105.167 -23.667 139.5 -71s51.5 -111.333 51.5 -192s-18.333 -144.667 -55 -192s-85.667 -71 -147 -71c-53.333 0 -97.666 19.333 -132.999 58v-45h-61v700zM155.999 137c10.667 -28 27.502 -50 50.502 -66
s49.167 -24 78.5 -24c41.333 0 74.166 18.333 98.499 55s36.5 86 36.5 148s-11.167 111.333 -33.5 148s-52.5 55 -90.5 55c-58.667 0 -105.334 -29 -140.001 -87v-229z" />
    <glyph glyph-name="c" unicode="c" horiz-adv-x="425" 
d="M415 74c-40.667 -58 -97 -87 -169 -87c-60 0 -107.667 23.667 -143 71s-53 111.333 -53 192s17.667 144.667 53 192s83 71 143 71c69.333 0 123 -26 161 -78l-53 -35c-25.333 35.333 -61.333 53 -108 53c-39.333 0 -70.833 -18.333 -94.5 -55s-35.5 -86 -35.5 -148
s11.833 -111.333 35.5 -148s55.167 -55 94.5 -55c50 0 88.667 20.667 116 62z" />
    <glyph glyph-name="d" unicode="d" horiz-adv-x="536" 
d="M446 0h-61v53c-40 -44 -88 -66 -144 -66c-58.667 0 -105.167 23.667 -139.5 71s-51.5 111.333 -51.5 192s18.333 144.667 55 192s85.667 71 147 71c50 0 92.667 -14.667 128 -44v231h66v-700zM380 384c-30 46 -73.001 69 -129.001 69
c-41.333 0 -74.166 -18.333 -98.499 -55s-36.5 -86 -36.5 -148s11.167 -111.333 33.5 -148s52.5 -55 90.5 -55c59.333 0 106 29 140 87v250z" />
    <glyph glyph-name="e" unicode="e" horiz-adv-x="508" 
d="M255 -13c-62.667 0 -112.502 23.832 -149.502 71.499s-55.5 111.5 -55.5 191.5s18.5 143.833 55.5 191.5s86.833 71.5 149.5 71.5c60.667 0 108.834 -22 144.501 -66s53.5 -102.667 53.5 -176v-38h-337c2.66699 -57.333 16.334 -102.666 41.001 -135.999
s57.334 -50 98.001 -50c54 0 96 22.667 126 68l53 -35c-42.667 -62 -102.334 -93 -179.001 -93zM254.998 452.999c-37.333 0 -68.167 -14.167 -92.5 -42.5s-39.166 -67.5 -44.499 -117.5h268c-3.33301 49.333 -16.833 88.333 -40.5 117s-53.834 43 -90.501 43z" />
    <glyph glyph-name="f" unicode="f" horiz-adv-x="291" 
d="M35 500l68 0.000976562v48c0 53.333 12.667 94.166 38 122.499s61.333 42.5 108 42.5c38 0 70.667 -7.33301 98 -22l-22 -57c-20.667 11.333 -46 17 -76 17c-53.333 0 -80 -34.333 -80 -103v-48h128v-60h-128v-440h-66v440h-68v60z" />
    <glyph glyph-name="g" unicode="g" horiz-adv-x="536" 
d="M446 -38c0 -56.667 -16.167 -100.833 -48.5 -132.5s-77.166 -47.5 -134.499 -47.5c-83.333 0 -145.333 36.333 -186 109l54 34c28 -54 72 -81 132 -81c37.333 0 66.166 10.167 86.499 30.5s30.5 49.5 30.5 87.5v99c-38.667 -40.667 -85 -61 -139 -61
c-58 0 -104.333 22.5 -139 67.5s-52 105.5 -52 181.5c0 80.667 18.333 144.667 55 192s85.667 71 147 71c52.667 0 97 -19.667 133 -59v46h61v-537zM380 362.001c-11.333 28 -28.501 49.999 -51.501 65.999s-48.833 24 -77.5 24c-41.333 0 -74.166 -18.333 -98.499 -55
s-36.5 -86 -36.5 -148c0 -57.333 11.167 -103.166 33.5 -137.499s52.5 -51.5 90.5 -51.5c59.333 0 106 29 140 87v215z" />
    <glyph glyph-name="h" unicode="h" horiz-adv-x="546" 
d="M466 0h-66v344c0 72.667 -34.333 109 -103 109c-61.333 0 -108.333 -27.333 -141 -82v-371h-66v700h66v-249c39.333 41.333 86.333 62 141 62c55.333 0 97.333 -14.5 126 -43.5s43 -70.833 43 -125.5v-344z" />
    <glyph glyph-name="i" unicode="i" horiz-adv-x="246" 
d="M156 0h-66v500h66v-500zM77 663c0 12.667 4.5 23.5 13.5 32.5s19.833 13.5 32.5 13.5s23.5 -4.5 32.5 -13.5s13.5 -19.833 13.5 -32.5s-4.5 -23.334 -13.5 -32.001s-19.833 -13 -32.5 -13s-23.5 4.33301 -32.5 13s-13.5 19.334 -13.5 32.001z" />
    <glyph glyph-name="j" unicode="j" horiz-adv-x="246" 
d="M156 500l-66 -0.000976562v-594c0 -19.333 -4.83301 -34.666 -14.5 -45.999s-22.5 -17 -38.5 -17c-27.333 0 -49.666 10.667 -66.999 32l-42 -36c25.333 -37.333 61.666 -56 108.999 -56c36.667 0 65.667 11 87 33s32 52 32 90v594zM77 662.999
c0 -12.667 4.5 -23.334 13.5 -32.001s19.833 -13 32.5 -13s23.5 4.33301 32.5 13s13.5 19.334 13.5 32.001s-4.5 23.5 -13.5 32.5s-19.833 13.5 -32.5 13.5s-23.5 -4.5 -32.5 -13.5s-13.5 -19.833 -13.5 -32.5z" />
    <glyph glyph-name="k" unicode="k" horiz-adv-x="467" 
d="M100 0v700h66v-431l201 231h80l-185 -212l200 -288h-77l-166 239l-53 -61v-178h-66z" />
    <glyph glyph-name="l" unicode="l" horiz-adv-x="246" 
d="M156 0h-66v700h66v-700z" />
    <glyph glyph-name="m" unicode="m" horiz-adv-x="816" 
d="M446 0h-65.999v344c0 72.667 -31.667 109 -95 109c-56 0 -99 -26.333 -129 -79v-374h-66v500h61v-51c37.333 42.667 81.666 64 132.999 64c71.333 0 119.333 -26.333 144 -79c39.333 52.667 88 79 146 79c52.667 0 92.834 -14.5 120.501 -43.5s41.5 -70.833 41.5 -125.5
v-344h-66v344c0 72.667 -31.667 109 -95 109c-56.667 0 -100.334 -27 -131.001 -81c1.33301 -12 2 -21.333 2 -28v-344z" />
    <glyph glyph-name="n" unicode="n" horiz-adv-x="546" 
d="M466 0h-66v344c0 72.667 -34.333 109 -103 109c-61.333 0 -108.333 -27.333 -141 -82v-371h-66v500h61v-55c40 45.333 88.667 68 146 68c55.333 0 97.333 -14.5 126 -43.5s43 -70.833 43 -125.5v-344z" />
    <glyph glyph-name="o" unicode="o" horiz-adv-x="512" 
d="M50 250c0 82 18.167 146.333 54.5 193s86.5 70 150.5 70c64.667 0 115.334 -23.333 152.001 -70s55 -111 55 -193s-18.333 -146.333 -55 -193s-87.334 -70 -152.001 -70c-64 0 -114.167 23.333 -150.5 70s-54.5 111 -54.5 193zM116 250c0 -63.333 12.333 -113 37 -149
s58.667 -54 102 -54c44 0 78.5 18 103.5 54s37.5 85.667 37.5 149s-12.5 113 -37.5 149s-59.5 54 -103.5 54c-43.333 0 -77.333 -18 -102 -54s-37 -85.667 -37 -149z" />
    <glyph glyph-name="p" unicode="p" horiz-adv-x="536" 
d="M90 499h61v-54c39.333 44.667 87.333 67 144 67c58.667 0 105.167 -23.667 139.5 -71s51.5 -111.333 51.5 -192s-18.333 -144.667 -55 -192s-85.667 -71 -147 -71c-50 0 -92.667 14.667 -128 44v-235h-66v704zM156 115c30 -46 73.002 -69 129.002 -69
c41.333 0 74.166 18.333 98.499 55s36.5 86 36.5 148s-11.167 111.333 -33.5 148s-52.5 55 -90.5 55c-58.667 0 -105.334 -29 -140.001 -87v-250z" />
    <glyph glyph-name="q" unicode="q" horiz-adv-x="536" 
d="M446 -205h-66v252c-38.667 -40.667 -85 -61 -139 -61c-58.667 0 -105.167 23.667 -139.5 71s-51.5 111.333 -51.5 192s18.333 144.667 55 192s85.667 71 147 71c52.667 0 97 -19.667 133 -59v46h61v-704zM380 362c-11.333 28 -28.501 50 -51.501 66s-48.833 24 -77.5 24
c-41.333 0 -74.166 -18.333 -98.499 -55s-36.5 -86 -36.5 -148s11.167 -111.333 33.5 -148s52.5 -55 90.5 -55c59.333 0 106 29 140 87v229z" />
    <glyph glyph-name="r" unicode="r" horiz-adv-x="331" 
d="M320 445l-29 3c-61.333 0 -106.333 -34.333 -135 -103v-345h-66v500h61v-70c38 55.333 85 83 141 83c14.667 0 27.667 -1 39 -3z" />
    <glyph glyph-name="s" unicode="s" horiz-adv-x="428" 
d="M317 120c0 22 -8.83203 40.502 -26.499 55.502s-39.167 27.167 -64.5 36.5s-50.833 19.666 -76.5 30.999s-47.334 27.666 -65.001 48.999s-26.5 47.666 -26.5 78.999c0 43.333 14.667 77.833 44 103.5s68.666 38.5 117.999 38.5c66.667 0 119.667 -27.333 159 -82
l-50 -34c-26.667 37.333 -63 56 -109 56c-29.333 0 -52.666 -7.33301 -69.999 -22s-26 -34.667 -26 -60c0 -21.333 8.83301 -39 26.5 -53s39.334 -25.5 65.001 -34.5s51.167 -19 76.5 -30s46.833 -27.667 64.5 -50s26.5 -50.166 26.5 -83.499
c0 -40.667 -15.167 -73 -45.5 -97s-70.833 -36 -121.5 -36c-72 0 -129 31.667 -171 95l50 34c29.333 -46 69.666 -69 120.999 -69c30.667 0 55.167 6.66699 73.5 20s27.5 31 27.5 53z" />
    <glyph glyph-name="t" unicode="t" horiz-adv-x="321" 
d="M35 500l68.001 -0.000976562v100h66v-100h128v-60h-128v-330c0 -19.333 4.83301 -34.666 14.5 -45.999s22.5 -17 38.5 -17c27.333 0 49.666 10.667 66.999 32l42 -36c-26 -37.333 -62.333 -56 -109 -56c-36.667 0 -65.667 11 -87 33s-32 52 -32 90v330h-68v60z" />
    <glyph glyph-name="u" unicode="u" horiz-adv-x="546" 
d="M80 500h66v-344c0 -72.667 34.333 -109 103 -109c61.333 0 108.333 32 141 96v357h66v-500h-61v62c-40 -50 -88.667 -75 -146 -75c-112.667 0 -169 56.333 -169 169v344z" />
    <glyph glyph-name="v" unicode="v" horiz-adv-x="473" 
d="M189 0l-164 500h67l144 -443l145 443h67l-164 -500h-95z" />
    <glyph glyph-name="w" unicode="w" horiz-adv-x="703" 
d="M382 500l105 -438l124 438h67l-144 -500h-91l-92 374l-91 -374h-91l-144 500h67l124 -438l105 438h61z" />
    <glyph glyph-name="x" unicode="x" horiz-adv-x="439" 
d="M100 500l120 -192l119 192h71l-154 -249l158 -251h-72l-124 197l-122 -197h-71l157 255l-153 245h71z" />
    <glyph glyph-name="y" unicode="y" horiz-adv-x="473" 
d="M25 500l67 0.000976562l145 -433l144 433h67l-164 -475c-40 -114.667 -112.667 -195.667 -218 -243l-27 52c38 18 69.5 38.667 94.5 62s47.5 52.666 67.5 87.999z" />
    <glyph glyph-name="z" unicode="z" horiz-adv-x="428" 
d="M393 459l-269 -399h258v-60h-347v40l268 399h-248v60h338v-40z" />
    <glyph glyph-name="braceleft" unicode="{" horiz-adv-x="484" 
d="M100 310c27.333 0 51 11.3311 71 33.998s30 50 30 82v132c0 62 18 115 54 159s79.333 66 130 66v-52c-32.667 0 -60.834 -16.833 -84.501 -50.5s-35.5 -74.5 -35.5 -122.5v-132c0 -30 -7.5 -57 -22.5 -81s-35.167 -40.333 -60.5 -49
c25.333 -9.33301 45.5 -26.166 60.5 -50.499s22.5 -52.166 22.5 -83.499v-130c0 -48 11.833 -88.833 35.5 -122.5s51.834 -50.5 84.501 -50.5v-53c-50.667 0 -94 22.167 -130 66.5s-54 97.5 -54 159.5v130c0 31.333 -10 57.833 -30 79.5s-43.667 32.5 -71 32.5v36z" />
    <glyph glyph-name="bar" unicode="|" horiz-adv-x="266" 
d="M100 -326v1325h66v-1325h-66z" />
    <glyph glyph-name="braceright" unicode="}" horiz-adv-x="486" 
d="M386 345v-36c-27.333 0 -51 -10.833 -71 -32.5s-30 -48.167 -30 -79.5v-130c0 -62.667 -18 -116.167 -54 -160.5s-79.667 -66.5 -131 -66.5v53c33.333 0 61.833 17 85.5 51s35.5 75 35.5 123v130c0 29.333 7.83301 56 23.5 80s36.167 40.333 61.5 49
c-25.333 9.33301 -45.833 26.333 -61.5 51s-23.5 52.667 -23.5 84v132c0 47.333 -11.833 88 -35.5 122s-52.167 51 -85.5 51v52c51.333 0 95 -22 131 -66s54 -97 54 -159v-132c0 -32 10 -59.333 30 -82s43.667 -34 71 -34z" />
    <glyph glyph-name="asciitilde" unicode="~" horiz-adv-x="721" 
d="M80 363c30 21.333 60.667 32 92 32c30 0 70.167 -11 120.5 -33s87.5 -33 111.5 -33c30 0 60.667 11.333 92 34v-60c-30 -21.333 -60.667 -32 -92 -32c-30.667 0 -71 11 -121 33s-87 33 -111 33c-30 0 -60.667 -11.333 -92 -34v60z" />
    <glyph glyph-name="exclamdown" unicode="&#xa1;" horiz-adv-x="299" 
d="M121 284l-21 -489h99l-21 489h-57zM107 495v-105h85v105h-85z" />
    <glyph glyph-name="cent" unicode="&#xa2;" horiz-adv-x="749" 
d="M260 78c-44 13.333 -78.333 42.334 -103 87.001s-37 100.667 -37 168c0 80.667 17.667 144.667 53 192s83 71 143 71h6l19 153h50l-19 -160c42.667 -10.667 77.667 -34.334 105 -71.001l-53 -35c-17.333 22.667 -37.333 37.667 -60 45l-48 -398
c50 0 88.667 20.667 116 62l53 -35c-40.667 -58 -97 -87 -169 -87h-7l-18 -153h-50zM186 333.001c0 -48 7.16602 -88.667 21.499 -122s34.5 -56.666 60.5 -69.999l47 395c-39.333 -0.666992 -70.666 -19.334 -93.999 -56.001s-35 -85.667 -35 -147z" />
    <glyph glyph-name="sterling" unicode="&#xa3;" horiz-adv-x="575" 
d="M144 353c-13.333 52 -19.998 98 -19.998 138c0 58 17.167 103.833 51.5 137.5s81.5 50.5 141.5 50.5c85.333 0 146.666 -28 183.999 -84l-51 -36c-30 40 -75.333 60 -136 60c-38 0 -67.833 -11 -89.5 -33s-32.5 -52.333 -32.5 -91c0 -28.667 7 -76 21 -142h215v-50h-205
c6 -32.667 9 -60.334 9 -83.001c0 -66.667 -16.667 -120 -50 -160h327v-60h-419v40l17 7c21.333 23.333 36.666 48 45.999 74s14 59 14 99c0 26.667 -3.33301 54.334 -10 83.001h-85v50h72z" />
    <glyph glyph-name="currency" unicode="&#xa4;" horiz-adv-x="575" 
d="M163 243c-18.667 26 -28.001 56.001 -28.001 90.001c0 33.333 9.33301 63 28 89l-82 83l35 35l82 -83c26.667 19.333 56.667 29 90 29c32.667 0 62.334 -9.66699 89.001 -29l83 83l35 -35l-83 -83c19.333 -26.667 29 -56.334 29 -89.001
c0 -33.333 -9.66699 -63.333 -29 -90l83 -82l-35 -35l-83 82c-26 -18.667 -55.667 -28 -89 -28c-34 0 -64 9.33301 -90 28l-82 -82l-35 35zM192.999 333.001c0 -26.667 9.16699 -49.167 27.5 -67.5s40.833 -27.5 67.5 -27.5s49.167 9.16699 67.5 27.5s27.5 40.833 27.5 67.5
s-9.16699 49.167 -27.5 67.5s-40.833 27.5 -67.5 27.5s-49.167 -9.16699 -67.5 -27.5s-27.5 -40.833 -27.5 -67.5z" />
    <glyph glyph-name="yen" unicode="&#xa5;" horiz-adv-x="575" 
d="M183 409l-115 257h69l150 -343l151 343h69l-115 -257h114v-50h-137l-48 -109v-1h185v-50h-185v-199h-66v199h-185v50h184l-49 110h-135v50h113z" />
    <glyph glyph-name="brokenbar" unicode="&#xa6;" horiz-adv-x="266" 
d="M100 449v550h66v-550h-66zM100 -326v550h66v-550h-66z" />
    <glyph glyph-name="section" unicode="&#xa7;" horiz-adv-x="507" 
d="M447 210c0 -43.333 -14.3359 -78.335 -43.0029 -105.002c24.667 -28 37 -63.333 37 -106c0 -47.333 -17.333 -85 -52 -113s-80.667 -42 -138 -42c-84.667 0 -148.334 35.667 -191.001 107l51 35c31.333 -54 78 -81 140 -81c36.667 0 66 8.5 88 25.5s33 39.833 33 68.5
c0 16 -3.33301 30.333 -10 43s-17.667 24.334 -33 35.001s-28.666 19 -39.999 25s-28 13.667 -50 23c-24.667 10.667 -44.5 20 -59.5 28s-31.667 19 -50 33s-32 30.667 -41 50s-13.5 41.333 -13.5 66c0 46 13.667 83.667 41 113c-23.333 28 -35 60.667 -35 98
c0 50.667 16.333 90.834 49 120.501s76.334 44.5 131.001 44.5c74 0 133 -30.333 177 -91l-52 -36c-30 44 -71.667 66 -125 66c-34.667 0 -62 -9.33301 -82 -28s-30 -44 -30 -76c0 -18.667 7 -35.834 21 -51.501s28.833 -27.667 44.5 -36s36.167 -17.833 61.5 -28.5
c22.667 -9.33301 39.334 -16.5 50.001 -21.5s25.334 -13.333 44.001 -25s32.5 -23.167 41.5 -34.5s17.167 -26.166 24.5 -44.499s11 -38.833 11 -61.5zM244.997 335.998c-36.667 15.333 -62.334 27.668 -77.001 37.001c-16.667 -18.667 -25 -42.334 -25 -71.001
c0 -18.667 7 -35.834 21 -51.501s28.833 -27.667 44.5 -36s36.167 -17.833 61.5 -28.5c42 -18.667 69.333 -31.667 82 -39c17.333 16 26 37 26 63c0 16 -3.33301 30.333 -10 43s-17.667 24.334 -33 35.001s-28.666 19 -39.999 25s-28 13.667 -50 23z" />
    <glyph glyph-name="dieresis" unicode="&#xa8;" horiz-adv-x="392" 
d="M50 663c0 12.667 4.5 23.5 13.5 32.5s19.833 13.5 32.5 13.5s23.5 -4.5 32.5 -13.5s13.5 -19.833 13.5 -32.5s-4.5 -23.334 -13.5 -32.001s-19.833 -13 -32.5 -13s-23.5 4.33301 -32.5 13s-13.5 19.334 -13.5 32.001zM250 663c0 12.667 4.5 23.5 13.5 32.5
s19.833 13.5 32.5 13.5s23.5 -4.5 32.5 -13.5s13.5 -19.833 13.5 -32.5s-4.5 -23.334 -13.5 -32.001s-19.833 -13 -32.5 -13s-23.5 4.33301 -32.5 13s-13.5 19.334 -13.5 32.001z" />
    <glyph glyph-name="copyright" unicode="&#xa9;" horiz-adv-x="569" 
d="M288 568c-21.333 0 -38.1689 -9.33398 -50.502 -28.001s-18.5 -43.667 -18.5 -75s6.33301 -56.166 19 -74.499s29.334 -27.5 50.001 -27.5c28 0 50 12.667 66 38l34 -23c-27.333 -36.667 -60.666 -55 -99.999 -55c-34.667 0 -62.334 12.833 -83.001 38.5
s-31 60.167 -31 103.5s10.333 78 31 104s48.334 39 83.001 39c39.333 0 71.333 -16.333 96 -49l-34 -23c-17.333 21.333 -38 32 -62 32zM39.9971 468.999c0 67.333 24 124.833 72 172.5s105.667 71.5 173 71.5s124.833 -23.833 172.5 -71.5s71.5 -105.167 71.5 -172.5
s-24 -125 -72 -173s-105.333 -72 -172 -72c-67.333 0 -125 24 -173 72s-72 105.667 -72 173zM67.9971 468.999c0 -59.333 21.333 -110.333 64 -153s93.667 -64 153 -64s110.166 21.333 152.499 64s63.5 93.667 63.5 153s-21.167 110.166 -63.5 152.499
s-93.166 63.5 -152.499 63.5s-110.333 -21.167 -153 -63.5s-64 -93.166 -64 -152.499z" />
    <glyph glyph-name="ordfeminine" unicode="&#xaa;" horiz-adv-x="371" 
d="M311 317h-52v30c-27.333 -26 -59.333 -39 -96 -39c-35.333 0 -64.166 10.833 -86.499 32.5s-33.5 49.834 -33.5 84.501c0 35.333 11.5 63.666 34.5 84.999s53.833 32 92.5 32c31.333 0 60 -8 86 -24v35c0 22.667 -6.83301 40.834 -20.5 54.501s-31.834 20.5 -54.501 20.5
c-33.333 0 -61.666 -15.667 -84.999 -47l-42 28c29.333 46.667 71.666 70 126.999 70c39.333 0 70.833 -11.333 94.5 -34s35.5 -53.334 35.5 -92.001v-236zM170 359c37.333 0 66 16.333 86 49v50c-24 22 -52.667 33 -86 33c-22 0 -39.5 -6 -52.5 -18s-19.5 -28 -19.5 -48
s6.5 -36 19.5 -48s30.5 -18 52.5 -18z" />
    <glyph glyph-name="guillemotleft" unicode="&#xab;" horiz-adv-x="506" 
d="M109 303l147 -170l-44 -40l-162 187v46l162 187l44 -40zM309 303l147 -170l-44 -40l-162 187v46l162 187l44 -40z" />
    <glyph glyph-name="logicalnot" unicode="&#xac;" horiz-adv-x="575" 
d="M438 303h-358v60h416v-221h-58v161z" />
    <glyph glyph-name="registered" unicode="&#xae;" horiz-adv-x="569" 
d="M40 468c0 67.333 24 124.833 72 172.5s105.667 71.5 173 71.5s124.833 -24 172.5 -72s71.5 -105.333 71.5 -172c0 -67.333 -24 -125 -72 -173s-105.333 -72 -172 -72c-67.333 0 -125 24.167 -173 72.5s-72 105.833 -72 172.5zM68 468c0 -59.333 21.333 -110.333 64 -153
s93.667 -64 153 -64s110.166 21.333 152.499 64s63.5 93.667 63.5 153s-21.167 110.166 -63.5 152.499s-93.166 63.5 -152.499 63.5s-110.333 -21.167 -153 -63.5s-64 -93.166 -64 -152.499zM202 327v276h79c30.667 0 55.5 -7.83301 74.5 -23.5s28.5 -36.167 28.5 -61.5
c0 -38 -18.333 -64 -55 -78l69 -113h-49l-65 105h-3h-35v-105h-44zM246 563v-91.999h35c17.333 0 31.333 4.16699 42 12.5s16 19.833 16 34.5c0 13.333 -5.33301 24.166 -16 32.499s-24.667 12.5 -42 12.5h-35z" />
    <glyph glyph-name="macron" unicode="&#xaf;" horiz-adv-x="357" 
d="M312 634h-267v58h267v-58z" />
    <glyph glyph-name="degree" unicode="&#xb0;" horiz-adv-x="398" 
d="M60 540c0 38.667 13.5 71.5 40.5 98.5s59.833 40.5 98.5 40.5s71.5 -13.5 98.5 -40.5s40.5 -59.833 40.5 -98.5s-13.5 -71.5 -40.5 -98.5s-59.833 -40.5 -98.5 -40.5s-71.5 13.5 -98.5 40.5s-40.5 59.833 -40.5 98.5zM115 540c0 -23.333 8.16699 -43.166 24.5 -59.499
s36.166 -24.5 59.499 -24.5s43.166 8.16699 59.499 24.5s24.5 36.166 24.5 59.499s-8.16699 43.166 -24.5 59.499s-36.166 24.5 -59.499 24.5s-43.166 -8.16699 -59.499 -24.5s-24.5 -36.166 -24.5 -59.499z" />
    <glyph glyph-name="plusminus" unicode="&#xb1;" horiz-adv-x="575" 
d="M496 60v-60h-416v60h416zM258 303h-178v60h178v178h60v-178h178v-60h-178v-178h-60v178z" />
    <glyph glyph-name="uni00B2" unicode="&#xb2;" horiz-adv-x="346" 
d="M294 329h-244v19c0 30 7.83301 55.667 23.5 77s43.167 44.333 82.5 69c29.333 16 50 30.5 62 43.5s18 27.5 18 43.5c0 14.667 -5.5 26.5 -16.5 35.5s-25.833 13.5 -44.5 13.5c-33.333 0 -60 -13.667 -80 -41l-43 29c30 40.667 71 61 123 61
c36 0 64.667 -8.83301 86 -26.5s32 -41.5 32 -71.5c0 -24 -7.5 -45 -22.5 -63s-42.167 -39 -81.5 -63c-44.667 -28 -71.667 -53.667 -81 -77h186v-49z" />
    <glyph glyph-name="uni00B3" unicode="&#xb3;" horiz-adv-x="346" 
d="M109 524c33.333 0 60.167 5.49902 80.5 16.499s30.5 25.833 30.5 44.5c0 14 -5.33301 25 -16 33s-25 12 -43 12c-29.333 0 -54.333 -11.333 -75 -34l-43 28c29.333 36.667 68.666 55 117.999 55c35.333 0 63.5 -8.5 84.5 -25.5s31.5 -39.833 31.5 -68.5
c0 -34 -23 -60.667 -69 -80c52 -12.667 78 -39.667 78 -81c0 -31.333 -11.333 -56.166 -34 -74.499s-53 -27.5 -91 -27.5c-52.667 0 -95.667 21 -129 63l43 29c21.333 -28.667 50 -43 86 -43c20.667 0 37.334 4.83301 50.001 14.5s19 22.5 19 38.5
c0 36.667 -38.333 55 -115 55z" />
    <glyph glyph-name="acute" unicode="&#xb4;" horiz-adv-x="141" 
d="M124 751h87l-92 -167h-49z" />
    <glyph glyph-name="mu" unicode="&#xb5;" horiz-adv-x="546" 
d="M80 -205h61v231c24 -26 60 -39 108 -39c57.333 0 106 25 146 75v-62h61v500h-66v-357c-32.667 -64 -79.667 -96 -141 -96c-68.667 0 -103 36.333 -103 109v344h-66v-705z" />
    <glyph glyph-name="paragraph" unicode="&#xb6;" horiz-adv-x="497" 
d="M291 0v308h-60c-61.333 0 -110.166 16.167 -146.499 48.5s-54.5 75.833 -54.5 130.5s18.167 98.167 54.5 130.5s85.166 48.5 146.499 48.5h166v-666h-106z" />
    <glyph glyph-name="periodcentered" unicode="&#xb7;" horiz-adv-x="244" 
d="M76 273v115h93v-115h-93z" />
    <glyph glyph-name="cedilla" unicode="&#xb8;" horiz-adv-x="235" 
d="M117 -209c-38.667 0 -68.666 14 -89.999 42l25 40c19.333 -21.333 40.333 -32 63 -32c21.333 0 32 9 32 27c0 22 -21.667 36.667 -65 44l23 102h44l-16 -71c21.333 -2.66699 39 -11 53 -25s21 -29.667 21 -47c0 -22 -8.83301 -40.833 -26.5 -56.5
s-38.834 -23.5 -63.501 -23.5z" />
    <glyph glyph-name="uni00B9" unicode="&#xb9;" horiz-adv-x="346" 
d="M49 631l133 48h35v-301h70v-49h-208v49h82v242l-95 -34z" />
    <glyph glyph-name="ordmasculine" unicode="&#xba;" horiz-adv-x="368" 
d="M38 493c0 58 12.832 103.5 38.499 136.5s61.167 49.5 106.5 49.5c46 0 82 -16.5 108 -49.5s39 -78.5 39 -136.5c0 -57.333 -13.167 -102.5 -39.5 -135.5s-62.166 -49.5 -107.499 -49.5s-80.833 16.5 -106.5 49.5s-38.5 78.167 -38.5 135.5zM92.999 493
c0 -42 8 -74.833 24 -98.5s38 -35.5 66 -35.5c28.667 0 51.167 12 67.5 36s24.5 56.667 24.5 98c0 42 -8.16699 75 -24.5 99s-38.833 36 -67.5 36c-28 0 -50 -12 -66 -36s-24 -57 -24 -99z" />
    <glyph glyph-name="guillemotright" unicode="&#xbb;" horiz-adv-x="506" 
d="M397 303l-147 -170l44 -40l162 187v46l-162 187l-44 -40zM197 303l-147 -170l44 -40l162 187v46l-162 187l-44 -40z" />
    <glyph glyph-name="onequarter" unicode="&#xbc;" horiz-adv-x="723" 
d="M409 112l116 234l56 -9l-107 -212h121v135h55v-135h31v-48h-31v-77h-55v77h-186v35zM212 0h-50l400 666h50zM49 631l133 48h35v-301h70v-49h-208v49h82v242l-95 -34z" />
    <glyph glyph-name="onehalf" unicode="&#xbd;" horiz-adv-x="723" 
d="M671 -1h-244v19c0 30 7.83301 55.667 23.5 77s43.167 44.333 82.5 69c29.333 16 50 30.5 62 43.5s18 27.5 18 43.5c0 14.667 -5.5 26.5 -16.5 35.5s-25.833 13.5 -44.5 13.5c-33.333 0 -60 -13.667 -80 -41l-43 29c30 40.667 71 61 123 61c36 0 64.667 -8.83301 86 -26.5
s32 -41.5 32 -71.5c0 -24 -7.5 -45 -22.5 -63s-42.167 -39 -81.5 -63c-44.667 -28 -71.667 -53.667 -81 -77h186v-49zM192 0h-50l400 666h50zM49 631l133 48h35v-301h70v-49h-208v49h82v242l-95 -34z" />
    <glyph glyph-name="threequarters" unicode="&#xbe;" horiz-adv-x="723" 
d="M409 112l116 234l56 -9l-107 -212h121v135h55v-135h31v-48h-31v-77h-55v77h-186v35zM202 0h-50l400 666h50zM109 524c33.333 0 60.167 5.49902 80.5 16.499s30.5 25.833 30.5 44.5c0 14 -5.33301 25 -16 33s-25 12 -43 12c-29.333 0 -54.333 -11.333 -75 -34l-43 28
c29.333 36.667 68.666 55 117.999 55c35.333 0 63.5 -8.5 84.5 -25.5s31.5 -39.833 31.5 -68.5c0 -34 -23 -60.667 -69 -80c52 -12.667 78 -39.667 78 -81c0 -31.333 -11.333 -56.166 -34 -74.499s-53 -27.5 -91 -27.5c-52.667 0 -95.667 21 -129 63l43 29
c21.333 -28.667 50 -43 86 -43c20.667 0 37.334 4.83301 50.001 14.5s19 22.5 19 38.5c0 36.667 -38.333 55 -115 55z" />
    <glyph glyph-name="questiondown" unicode="&#xbf;" horiz-adv-x="445" 
d="M271 284c0 -33.333 -5.66699 -62.833 -17 -88.5s-25 -46.5 -41 -62.5l-47.5 -46.5c-15.667 -15 -29.167 -32.833 -40.5 -53.5s-17 -44 -17 -70c0 -36.667 12.167 -66 36.5 -88s56.833 -33 97.5 -33c58 0 102 22.667 132 68l51 -36c-40.667 -61.333 -101.667 -92 -183 -92
c-61.333 0 -110.333 16.333 -147 49s-55 76.667 -55 132c0 30.667 6 58 18 82s26.5 44.167 43.5 60.5l51 48c17 15.667 31.5 34.5 43.5 56.5s18 46.667 18 74h57zM285 495v-105h-85v105h85z" />
    <glyph glyph-name="Agrave" unicode="&#xc0;" horiz-adv-x="519" 
d="M290 734h-49l-92 166h87zM309 666l200 -666h-66l-59 196h-250l-58 -196h-66l200 666h99zM152 256h214l-107 357z" />
    <glyph glyph-name="Aacute" unicode="&#xc1;" horiz-adv-x="519" 
d="M273 901h87l-92 -167h-49zM309 666l200 -666h-66l-59 196h-250l-58 -196h-66l200 666h99zM152 256h214l-107 357z" />
    <glyph glyph-name="Acircumflex" unicode="&#xc2;" horiz-adv-x="519" 
d="M389 734h-49l-81 111l-81 -111h-49l89 167h82zM309 666l200 -666h-66l-59 196h-250l-58 -196h-66l200 666h99zM152 256h214l-107 357z" />
    <glyph glyph-name="Atilde" unicode="&#xc3;" horiz-adv-x="519" 
d="M408 824c-24.667 -34 -57 -51 -97 -51c-17.333 0 -38.166 3.66699 -62.499 11s-41.166 11 -50.499 11c-23.333 0 -44.333 -8 -63 -24l-24 32c24 34 56 51 96 51c17.333 0 38.166 -3.66699 62.499 -11s41.166 -11 50.499 -11c24.667 0 46 8 64 24zM309 666l200 -666h-66
l-59 196h-250l-58 -196h-66l200 666h99zM152 256h214l-107 357z" />
    <glyph glyph-name="Adieresis" unicode="&#xc4;" horiz-adv-x="519" 
d="M113 813c0 12.667 4.5 23.5 13.5 32.5s19.833 13.5 32.5 13.5s23.5 -4.5 32.5 -13.5s13.5 -19.833 13.5 -32.5s-4.5 -23.334 -13.5 -32.001s-19.833 -13 -32.5 -13s-23.5 4.33301 -32.5 13s-13.5 19.334 -13.5 32.001zM313 813c0 12.667 4.5 23.5 13.5 32.5
s19.833 13.5 32.5 13.5s23.5 -4.5 32.5 -13.5s13.5 -19.833 13.5 -32.5s-4.5 -23.334 -13.5 -32.001s-19.833 -13 -32.5 -13s-23.5 4.33301 -32.5 13s-13.5 19.334 -13.5 32.001zM309 666l200 -666h-66l-59 196h-250l-58 -196h-66l200 666h99zM152 256h214l-107 357z" />
    <glyph glyph-name="Aring" unicode="&#xc5;" horiz-adv-x="519" 
d="M259 718c-26.667 0 -49.5 9.33301 -68.5 28s-28.5 41 -28.5 67s9.5 48.5 28.5 67.5s41.833 28.5 68.5 28.5s49.5 -9.5 68.5 -28.5s28.5 -41.5 28.5 -67.5s-9.5 -48.333 -28.5 -67s-41.833 -28 -68.5 -28zM259 761c14.667 0 27.167 5 37.5 15s15.5 22.333 15.5 37
s-5.16699 27.167 -15.5 37.5s-22.833 15.5 -37.5 15.5s-27.167 -5.16699 -37.5 -15.5s-15.5 -22.833 -15.5 -37.5s5.16699 -27 15.5 -37s22.833 -15 37.5 -15zM309 666l200 -666h-66l-59 196h-250l-58 -196h-66l200 666h99zM152 256h214l-107 357z" />
    <glyph glyph-name="AE" unicode="&#xc6;" horiz-adv-x="763" 
d="M349 286h-176l-155 -286h-68l360 666h393v-60h-288v-260h267v-60h-267v-226h298v-60h-364v286zM349 346v265l-144 -265h144z" />
    <glyph glyph-name="Ccedilla" unicode="&#xc7;" horiz-adv-x="536" 
d="M287 -209c-38.667 0 -68.666 14 -89.999 42l25 40c19.333 -21.333 40.333 -32 63 -32c21.333 0 32 9 32 27c0 22 -21.667 36.667 -65 44l23 102h44l-16 -71c21.333 -2.66699 39 -11 53 -25s21 -29.667 21 -47c0 -22 -8.83301 -40.833 -26.5 -56.5
s-38.834 -23.5 -63.501 -23.5zM306.001 617c-54 0 -97.167 -25.833 -129.5 -77.5s-48.5 -120.5 -48.5 -206.5s16.167 -154.833 48.5 -206.5s75.5 -77.5 129.5 -77.5c69.333 0 122.333 29.667 159 89l51 -36c-50 -76.667 -120.333 -115 -211 -115
c-74.667 0 -134.167 31.333 -178.5 94s-66.5 146.667 -66.5 252s22.167 189.333 66.5 252s103.833 94 178.5 94c86 0 153 -34 201 -102l-51 -36c-35.333 50.667 -85 76 -149 76z" />
    <glyph glyph-name="Egrave" unicode="&#xc8;" horiz-adv-x="514" 
d="M317 734h-49l-92 166h87zM166 376h267v-60h-267v-256h298v-60h-364v666h66h288v-60h-288v-230z" />
    <glyph glyph-name="Eacute" unicode="&#xc9;" horiz-adv-x="514" 
d="M290 901h87l-92 -167h-49zM166 376h267v-60h-267v-256h298v-60h-364v666h66h288v-60h-288v-230z" />
    <glyph glyph-name="Ecircumflex" unicode="&#xca;" horiz-adv-x="514" 
d="M412 734h-49l-81 111l-81 -111h-49l89 167h82zM166 376h267v-60h-267v-256h298v-60h-364v666h66h288v-60h-288v-230z" />
    <glyph glyph-name="Edieresis" unicode="&#xcb;" horiz-adv-x="514" 
d="M136 813c0 12.667 4.5 23.5 13.5 32.5s19.833 13.5 32.5 13.5s23.5 -4.5 32.5 -13.5s13.5 -19.833 13.5 -32.5s-4.5 -23.334 -13.5 -32.001s-19.833 -13 -32.5 -13s-23.5 4.33301 -32.5 13s-13.5 19.334 -13.5 32.001zM336 813c0 12.667 4.5 23.5 13.5 32.5
s19.833 13.5 32.5 13.5s23.5 -4.5 32.5 -13.5s13.5 -19.833 13.5 -32.5s-4.5 -23.334 -13.5 -32.001s-19.833 -13 -32.5 -13s-23.5 4.33301 -32.5 13s-13.5 19.334 -13.5 32.001zM166 376h267v-60h-267v-256h298v-60h-364v666h66h288v-60h-288v-230z" />
    <glyph glyph-name="Igrave" unicode="&#xcc;" horiz-adv-x="266" 
d="M163 734h-49l-92 166h87zM166 0h-66v666h66v-666z" />
    <glyph glyph-name="Iacute" unicode="&#xcd;" horiz-adv-x="266" 
d="M137 901h87l-92 -167h-49zM166 0h-66v666h66v-666z" />
    <glyph glyph-name="Icircumflex" unicode="&#xce;" horiz-adv-x="266" 
d="M263 734h-49l-81 111l-81 -111h-49l89 167h82zM166 0h-66v666h66v-666z" />
    <glyph glyph-name="Idieresis" unicode="&#xcf;" horiz-adv-x="266" 
d="M-13 813c0 12.667 4.5 23.5 13.5 32.5s19.833 13.5 32.5 13.5s23.5 -4.5 32.5 -13.5s13.5 -19.833 13.5 -32.5s-4.5 -23.334 -13.5 -32.001s-19.833 -13 -32.5 -13s-23.5 4.33301 -32.5 13s-13.5 19.334 -13.5 32.001zM187 813c0 12.667 4.5 23.5 13.5 32.5
s19.833 13.5 32.5 13.5s23.5 -4.5 32.5 -13.5s13.5 -19.833 13.5 -32.5s-4.5 -23.334 -13.5 -32.001s-19.833 -13 -32.5 -13s-23.5 4.33301 -32.5 13s-13.5 19.334 -13.5 32.001zM166 0h-66v666h66v-666z" />
    <glyph glyph-name="Eth" unicode="&#xd0;" horiz-adv-x="625" 
d="M367 360v-54h-341v54h341zM565 333c0 -101.333 -23.333 -182.168 -70 -242.501s-109.334 -90.5 -188.001 -90.5h-207v666h207c78.667 0 141.334 -30.167 188.001 -90.5s70 -141.166 70 -242.499zM166 605.998v-546.002h141c57.333 0 103.333 24.833 138 74.5
s52 115.834 52 198.501s-17.333 148.834 -52 198.501s-80.667 74.5 -138 74.5h-141z" />
    <glyph glyph-name="Ntilde" unicode="&#xd1;" horiz-adv-x="639" 
d="M468 824c-24.667 -34 -57 -51 -97 -51c-17.333 0 -38.166 3.66699 -62.499 11s-41.166 11 -50.499 11c-23.333 0 -44.333 -8 -63 -24l-24 32c24 34 56 51 96 51c17.333 0 38.166 -3.66699 62.499 -11s41.166 -11 50.499 -11c24.667 0 46 8 64 24zM473 67v599h66v-666
h-100l-273 599v-599h-66v666h100z" />
    <glyph glyph-name="Ograve" unicode="&#xd2;" horiz-adv-x="635" 
d="M348 734h-49l-92 166h87zM60 333c0 108 22.833 192.667 68.5 254s108.5 92 188.5 92c80.667 0 143.834 -30.667 189.501 -92s68.5 -146 68.5 -254s-22.833 -192.667 -68.5 -254s-108.834 -92 -189.501 -92c-80 0 -142.833 30.667 -188.5 92s-68.5 146 -68.5 254zM128 333
c0 -88.667 16.833 -158.167 50.5 -208.5s79.834 -75.5 138.501 -75.5c59.333 0 105.833 25.167 139.5 75.5s50.5 119.833 50.5 208.5s-16.833 158.167 -50.5 208.5s-80.167 75.5 -139.5 75.5c-58.667 0 -104.834 -25.167 -138.501 -75.5s-50.5 -119.833 -50.5 -208.5z" />
    <glyph glyph-name="Oacute" unicode="&#xd3;" horiz-adv-x="635" 
d="M321 901h87l-92 -167h-49zM60 333c0 108 22.833 192.667 68.5 254s108.5 92 188.5 92c80.667 0 143.834 -30.667 189.501 -92s68.5 -146 68.5 -254s-22.833 -192.667 -68.5 -254s-108.834 -92 -189.501 -92c-80 0 -142.833 30.667 -188.5 92s-68.5 146 -68.5 254z
M128 333c0 -88.667 16.833 -158.167 50.5 -208.5s79.834 -75.5 138.501 -75.5c59.333 0 105.833 25.167 139.5 75.5s50.5 119.833 50.5 208.5s-16.833 158.167 -50.5 208.5s-80.167 75.5 -139.5 75.5c-58.667 0 -104.834 -25.167 -138.501 -75.5
s-50.5 -119.833 -50.5 -208.5z" />
    <glyph glyph-name="Ocircumflex" unicode="&#xd4;" horiz-adv-x="635" 
d="M447 734h-49l-81 111l-81 -111h-49l89 167h82zM60 333c0 108 22.833 192.667 68.5 254s108.5 92 188.5 92c80.667 0 143.834 -30.667 189.501 -92s68.5 -146 68.5 -254s-22.833 -192.667 -68.5 -254s-108.834 -92 -189.501 -92c-80 0 -142.833 30.667 -188.5 92
s-68.5 146 -68.5 254zM128 333c0 -88.667 16.833 -158.167 50.5 -208.5s79.834 -75.5 138.501 -75.5c59.333 0 105.833 25.167 139.5 75.5s50.5 119.833 50.5 208.5s-16.833 158.167 -50.5 208.5s-80.167 75.5 -139.5 75.5c-58.667 0 -104.834 -25.167 -138.501 -75.5
s-50.5 -119.833 -50.5 -208.5z" />
    <glyph glyph-name="Otilde" unicode="&#xd5;" horiz-adv-x="635" 
d="M466 824c-24.667 -34 -57 -51 -97 -51c-17.333 0 -38.166 3.66699 -62.499 11s-41.166 11 -50.499 11c-23.333 0 -44.333 -8 -63 -24l-24 32c24 34 56 51 96 51c17.333 0 38.166 -3.66699 62.499 -11s41.166 -11 50.499 -11c24.667 0 46 8 64 24zM60 333
c0 108 22.833 192.667 68.5 254s108.5 92 188.5 92c80.667 0 143.834 -30.667 189.501 -92s68.5 -146 68.5 -254s-22.833 -192.667 -68.5 -254s-108.834 -92 -189.501 -92c-80 0 -142.833 30.667 -188.5 92s-68.5 146 -68.5 254zM128 333
c0 -88.667 16.833 -158.167 50.5 -208.5s79.834 -75.5 138.501 -75.5c59.333 0 105.833 25.167 139.5 75.5s50.5 119.833 50.5 208.5s-16.833 158.167 -50.5 208.5s-80.167 75.5 -139.5 75.5c-58.667 0 -104.834 -25.167 -138.501 -75.5s-50.5 -119.833 -50.5 -208.5z" />
    <glyph glyph-name="Odieresis" unicode="&#xd6;" horiz-adv-x="635" 
d="M171 813c0 12.667 4.5 23.5 13.5 32.5s19.833 13.5 32.5 13.5s23.5 -4.5 32.5 -13.5s13.5 -19.833 13.5 -32.5s-4.5 -23.334 -13.5 -32.001s-19.833 -13 -32.5 -13s-23.5 4.33301 -32.5 13s-13.5 19.334 -13.5 32.001zM371 813c0 12.667 4.5 23.5 13.5 32.5
s19.833 13.5 32.5 13.5s23.5 -4.5 32.5 -13.5s13.5 -19.833 13.5 -32.5s-4.5 -23.334 -13.5 -32.001s-19.833 -13 -32.5 -13s-23.5 4.33301 -32.5 13s-13.5 19.334 -13.5 32.001zM60 333c0 108 22.833 192.667 68.5 254s108.5 92 188.5 92
c80.667 0 143.834 -30.667 189.501 -92s68.5 -146 68.5 -254s-22.833 -192.667 -68.5 -254s-108.834 -92 -189.501 -92c-80 0 -142.833 30.667 -188.5 92s-68.5 146 -68.5 254zM128 333c0 -88.667 16.833 -158.167 50.5 -208.5s79.834 -75.5 138.501 -75.5
c59.333 0 105.833 25.167 139.5 75.5s50.5 119.833 50.5 208.5s-16.833 158.167 -50.5 208.5s-80.167 75.5 -139.5 75.5c-58.667 0 -104.834 -25.167 -138.501 -75.5s-50.5 -119.833 -50.5 -208.5z" />
    <glyph glyph-name="multiply" unicode="&#xd7;" horiz-adv-x="665" 
d="M288 290l-147 -147l-43 43l147 147l-147 147l43 43l147 -147l147 147l43 -43l-147 -147l147 -147l-43 -43z" />
    <glyph glyph-name="Oslash" unicode="&#xd8;" horiz-adv-x="635" 
d="M245 -100h-55l200 866h55zM60 333c0 108 22.833 192.667 68.5 254s108.5 92 188.5 92c80.667 0 143.834 -30.667 189.501 -92s68.5 -146 68.5 -254s-22.833 -192.667 -68.5 -254s-108.834 -92 -189.501 -92c-80 0 -142.833 30.667 -188.5 92s-68.5 146 -68.5 254z
M128 333c0 -88.667 16.833 -158.167 50.5 -208.5s79.834 -75.5 138.501 -75.5c59.333 0 105.833 25.167 139.5 75.5s50.5 119.833 50.5 208.5s-16.833 158.167 -50.5 208.5s-80.167 75.5 -139.5 75.5c-58.667 0 -104.834 -25.167 -138.501 -75.5
s-50.5 -119.833 -50.5 -208.5z" />
    <glyph glyph-name="Ugrave" unicode="&#xd9;" horiz-adv-x="614" 
d="M347 734h-49l-92 166h87zM307 49c47.333 0 85.166 15.167 113.499 45.5s42.5 70.833 42.5 121.5v450h66v-450c0 -70 -20.167 -125.667 -60.5 -167s-94.166 -62 -161.499 -62s-121.166 20.667 -161.499 62s-60.5 97 -60.5 167v450h66v-450
c0 -50.667 14.167 -91.167 42.5 -121.5s66.166 -45.5 113.499 -45.5z" />
    <glyph glyph-name="Uacute" unicode="&#xda;" horiz-adv-x="614" 
d="M320 901h87l-92 -167h-49zM307 49c47.333 0 85.166 15.167 113.499 45.5s42.5 70.833 42.5 121.5v450h66v-450c0 -70 -20.167 -125.667 -60.5 -167s-94.166 -62 -161.499 -62s-121.166 20.667 -161.499 62s-60.5 97 -60.5 167v450h66v-450
c0 -50.667 14.167 -91.167 42.5 -121.5s66.166 -45.5 113.499 -45.5z" />
    <glyph glyph-name="Ucircumflex" unicode="&#xdb;" horiz-adv-x="614" 
d="M437 734h-49l-81 111l-81 -111h-49l89 167h82zM307 49c47.333 0 85.166 15.167 113.499 45.5s42.5 70.833 42.5 121.5v450h66v-450c0 -70 -20.167 -125.667 -60.5 -167s-94.166 -62 -161.499 -62s-121.166 20.667 -161.499 62s-60.5 97 -60.5 167v450h66v-450
c0 -50.667 14.167 -91.167 42.5 -121.5s66.166 -45.5 113.499 -45.5z" />
    <glyph glyph-name="Udieresis" unicode="&#xdc;" horiz-adv-x="614" 
d="M161 813c0 12.667 4.5 23.5 13.5 32.5s19.833 13.5 32.5 13.5s23.5 -4.5 32.5 -13.5s13.5 -19.833 13.5 -32.5s-4.5 -23.334 -13.5 -32.001s-19.833 -13 -32.5 -13s-23.5 4.33301 -32.5 13s-13.5 19.334 -13.5 32.001zM361 813c0 12.667 4.5 23.5 13.5 32.5
s19.833 13.5 32.5 13.5s23.5 -4.5 32.5 -13.5s13.5 -19.833 13.5 -32.5s-4.5 -23.334 -13.5 -32.001s-19.833 -13 -32.5 -13s-23.5 4.33301 -32.5 13s-13.5 19.334 -13.5 32.001zM307 49c47.333 0 85.166 15.167 113.499 45.5s42.5 70.833 42.5 121.5v450h66v-450
c0 -70 -20.167 -125.667 -60.5 -167s-94.166 -62 -161.499 -62s-121.166 20.667 -161.499 62s-60.5 97 -60.5 167v450h66v-450c0 -50.667 14.167 -91.167 42.5 -121.5s66.166 -45.5 113.499 -45.5z" />
    <glyph glyph-name="Yacute" unicode="&#xdd;" horiz-adv-x="449" 
d="M241 901h87l-92 -167h-49zM192 0v247l-187 419h69l150 -343l151 343h69l-186 -416v-250h-66z" />
    <glyph glyph-name="Thorn" unicode="&#xde;" horiz-adv-x="530" 
d="M100 0v666h66v-125h111c68 0 122.167 -18.833 162.5 -56.5s60.5 -88.167 60.5 -151.5s-20.167 -113.833 -60.5 -151.5s-94.5 -56.5 -162.5 -56.5h-111v-125h-66zM166 481v-296h111c47.333 0 85 13.5 113 40.5s42 62.833 42 107.5s-14 80.5 -42 107.5
s-65.667 40.5 -113 40.5h-111z" />
    <glyph glyph-name="germandbls" unicode="&#xdf;" horiz-adv-x="557" 
d="M339 -13c-58.667 0 -104.333 13.666 -137 40.999l32 49c29.333 -20 64.333 -30 105 -30c36 0 65 8.66699 87 26s33 40 33 68c0 18 -5 33.833 -15 47.5s-22 25.167 -36 34.5l-42 29c-14 10 -26 23 -36 39s-15 34.667 -15 56c0 25.333 11.5 54.833 34.5 88.5
s34.5 62.834 34.5 87.501c0 30.667 -9 54.334 -27 71.001s-43.667 25 -77 25c-37.333 0 -66.5 -12 -87.5 -36s-31.5 -57.667 -31.5 -101v-482h-66v482c0 60.667 16.667 108.667 50 144s78.333 53 135 53c54 0 96.167 -13.833 126.5 -41.5s45.5 -65.834 45.5 -114.501
c0 -25.333 -6 -49.166 -18 -71.499s-24 -42 -36 -59s-18 -32.167 -18 -45.5c0 -12 5 -23.333 15 -34s22.333 -21 37 -31s29.167 -20.833 43.5 -32.5s26.5 -26.834 36.5 -45.501s15 -39.667 15 -63c0 -46.667 -17 -84 -51 -112s-79.667 -42 -137 -42z" />
    <glyph glyph-name="agrave" unicode="&#xe0;" horiz-adv-x="516" 
d="M308 584h-49l-92 166h87zM375 52c-38 -43.333 -83.333 -65 -136 -65c-54.667 0 -98.167 14.833 -130.5 44.5s-48.5 69.167 -48.5 118.5c0 50 16.167 89.667 48.5 119s75.833 44 130.5 44c49.333 0 93 -14.333 131 -43v67c0 35.333 -10.5 63.5 -31.5 84.5
s-48.833 31.5 -83.5 31.5c-52 0 -94 -22 -126 -66l-51 33c42 62 101 93 177 93c55.333 0 99.333 -16 132 -48s49 -74.667 49 -128v-337h-61v52zM238 47c54.667 0 98.667 26.667 132 80v74c-32.667 34.667 -76.667 52 -132 52c-34.667 0 -62 -9.33301 -82 -28
s-30 -43.667 -30 -75s10 -56.333 30 -75s47.333 -28 82 -28z" />
    <glyph glyph-name="aacute" unicode="&#xe1;" horiz-adv-x="516" 
d="M292 751h87l-92 -167h-49zM375 52c-38 -43.333 -83.333 -65 -136 -65c-54.667 0 -98.167 14.833 -130.5 44.5s-48.5 69.167 -48.5 118.5c0 50 16.167 89.667 48.5 119s75.833 44 130.5 44c49.333 0 93 -14.333 131 -43v67c0 35.333 -10.5 63.5 -31.5 84.5
s-48.833 31.5 -83.5 31.5c-52 0 -94 -22 -126 -66l-51 33c42 62 101 93 177 93c55.333 0 99.333 -16 132 -48s49 -74.667 49 -128v-337h-61v52zM238 47c54.667 0 98.667 26.667 132 80v74c-32.667 34.667 -76.667 52 -132 52c-34.667 0 -62 -9.33301 -82 -28
s-30 -43.667 -30 -75s10 -56.333 30 -75s47.333 -28 82 -28z" />
    <glyph glyph-name="acircumflex" unicode="&#xe2;" horiz-adv-x="516" 
d="M388 584h-49l-81 111l-81 -111h-49l89 167h82zM375 52c-38 -43.333 -83.333 -65 -136 -65c-54.667 0 -98.167 14.833 -130.5 44.5s-48.5 69.167 -48.5 118.5c0 50 16.167 89.667 48.5 119s75.833 44 130.5 44c49.333 0 93 -14.333 131 -43v67
c0 35.333 -10.5 63.5 -31.5 84.5s-48.833 31.5 -83.5 31.5c-52 0 -94 -22 -126 -66l-51 33c42 62 101 93 177 93c55.333 0 99.333 -16 132 -48s49 -74.667 49 -128v-337h-61v52zM238 47c54.667 0 98.667 26.667 132 80v74c-32.667 34.667 -76.667 52 -132 52
c-34.667 0 -62 -9.33301 -82 -28s-30 -43.667 -30 -75s10 -56.333 30 -75s47.333 -28 82 -28z" />
    <glyph glyph-name="atilde" unicode="&#xe3;" horiz-adv-x="516" 
d="M416 674c-24.667 -34 -57 -51 -97 -51c-17.333 0 -38.166 3.66699 -62.499 11s-41.166 11 -50.499 11c-23.333 0 -44.333 -8 -63 -24l-24 32c24 34 56 51 96 51c17.333 0 38.166 -3.66699 62.499 -11s41.166 -11 50.499 -11c24.667 0 46 8 64 24zM375 52
c-38 -43.333 -83.333 -65 -136 -65c-54.667 0 -98.167 14.833 -130.5 44.5s-48.5 69.167 -48.5 118.5c0 50 16.167 89.667 48.5 119s75.833 44 130.5 44c49.333 0 93 -14.333 131 -43v67c0 35.333 -10.5 63.5 -31.5 84.5s-48.833 31.5 -83.5 31.5c-52 0 -94 -22 -126 -66
l-51 33c42 62 101 93 177 93c55.333 0 99.333 -16 132 -48s49 -74.667 49 -128v-337h-61v52zM238 47c54.667 0 98.667 26.667 132 80v74c-32.667 34.667 -76.667 52 -132 52c-34.667 0 -62 -9.33301 -82 -28s-30 -43.667 -30 -75s10 -56.333 30 -75s47.333 -28 82 -28z" />
    <glyph glyph-name="adieresis" unicode="&#xe4;" horiz-adv-x="516" 
d="M112 663c0 12.667 4.5 23.5 13.5 32.5s19.833 13.5 32.5 13.5s23.5 -4.5 32.5 -13.5s13.5 -19.833 13.5 -32.5s-4.5 -23.334 -13.5 -32.001s-19.833 -13 -32.5 -13s-23.5 4.33301 -32.5 13s-13.5 19.334 -13.5 32.001zM312 663c0 12.667 4.5 23.5 13.5 32.5
s19.833 13.5 32.5 13.5s23.5 -4.5 32.5 -13.5s13.5 -19.833 13.5 -32.5s-4.5 -23.334 -13.5 -32.001s-19.833 -13 -32.5 -13s-23.5 4.33301 -32.5 13s-13.5 19.334 -13.5 32.001zM375 52c-38 -43.333 -83.333 -65 -136 -65c-54.667 0 -98.167 14.833 -130.5 44.5
s-48.5 69.167 -48.5 118.5c0 50 16.167 89.667 48.5 119s75.833 44 130.5 44c49.333 0 93 -14.333 131 -43v67c0 35.333 -10.5 63.5 -31.5 84.5s-48.833 31.5 -83.5 31.5c-52 0 -94 -22 -126 -66l-51 33c42 62 101 93 177 93c55.333 0 99.333 -16 132 -48
s49 -74.667 49 -128v-337h-61v52zM238 47c54.667 0 98.667 26.667 132 80v74c-32.667 34.667 -76.667 52 -132 52c-34.667 0 -62 -9.33301 -82 -28s-30 -43.667 -30 -75s10 -56.333 30 -75s47.333 -28 82 -28z" />
    <glyph glyph-name="aring" unicode="&#xe5;" horiz-adv-x="516" 
d="M258 568c-26.667 0 -49.5 9.33301 -68.5 28s-28.5 41 -28.5 67s9.5 48.5 28.5 67.5s41.833 28.5 68.5 28.5s49.5 -9.5 68.5 -28.5s28.5 -41.5 28.5 -67.5s-9.5 -48.333 -28.5 -67s-41.833 -28 -68.5 -28zM258 611c14.667 0 27.167 5 37.5 15s15.5 22.333 15.5 37
s-5.16699 27.167 -15.5 37.5s-22.833 15.5 -37.5 15.5s-27.167 -5.16699 -37.5 -15.5s-15.5 -22.833 -15.5 -37.5s5.16699 -27 15.5 -37s22.833 -15 37.5 -15zM375 52c-38 -43.333 -83.333 -65 -136 -65c-54.667 0 -98.167 14.833 -130.5 44.5s-48.5 69.167 -48.5 118.5
c0 50 16.167 89.667 48.5 119s75.833 44 130.5 44c49.333 0 93 -14.333 131 -43v67c0 35.333 -10.5 63.5 -31.5 84.5s-48.833 31.5 -83.5 31.5c-52 0 -94 -22 -126 -66l-51 33c42 62 101 93 177 93c55.333 0 99.333 -16 132 -48s49 -74.667 49 -128v-337h-61v52zM238 47
c54.667 0 98.667 26.667 132 80v74c-32.667 34.667 -76.667 52 -132 52c-34.667 0 -62 -9.33301 -82 -28s-30 -43.667 -30 -75s10 -56.333 30 -75s47.333 -28 82 -28z" />
    <glyph glyph-name="ae" unicode="&#xe6;" horiz-adv-x="819" 
d="M566 -13c-73.333 0 -128.666 31.666 -165.999 94.999c-45.333 -63.333 -102 -95 -170 -95c-52 0 -93.333 13.833 -124 41.5s-46 64.5 -46 110.5c0 47.333 16.667 84.833 50 112.5s78.333 41.5 135 41.5h116v44c0 35.333 -10.5 63.5 -31.5 84.5s-48.833 31.5 -83.5 31.5
c-48 0 -87 -22 -117 -66l-51 33c39.333 62 95.333 93 168 93c75.333 0 128.666 -29 159.999 -87c36.667 58 90 87 160 87c60.667 0 108.834 -22 144.501 -66s53.5 -102.667 53.5 -176v-38h-339c2.66699 -57.333 16.5 -102.666 41.5 -135.999s58.167 -50 99.5 -50
c54 0 96 22.667 126 68l53 -35c-42.667 -62 -102.334 -93 -179.001 -93zM229 46.999c61.333 0 111.001 28.668 149.001 86.001c-10.667 31.333 -16.334 64.666 -17.001 99.999h-117c-36 0 -64.667 -8.5 -86 -25.5s-32 -39.833 -32 -68.5c0 -28 9.33301 -50.333 28 -67
s43.667 -25 75 -25zM566.001 453c-38 0 -69.166 -14.167 -93.499 -42.5s-39.5 -67.5 -45.5 -117.5h270c-3.33301 49.333 -16.833 88.333 -40.5 117s-53.834 43 -90.501 43z" />
    <glyph glyph-name="ccedilla" unicode="&#xe7;" horiz-adv-x="425" 
d="M232 -209c-38.667 0 -68.666 14 -89.999 42l25 40c19.333 -21.333 40.333 -32 63 -32c21.333 0 32 9 32 27c0 22 -21.667 36.667 -65 44l23 102h44l-16 -71c21.333 -2.66699 39 -11 53 -25s21 -29.667 21 -47c0 -22 -8.83301 -40.833 -26.5 -56.5
s-38.834 -23.5 -63.501 -23.5zM415.001 74c-40.667 -58 -97 -87 -169 -87c-60 0 -107.667 23.667 -143 71s-53 111.333 -53 192s17.667 144.667 53 192s83 71 143 71c69.333 0 123 -26 161 -78l-53 -35c-25.333 35.333 -61.333 53 -108 53
c-39.333 0 -70.833 -18.333 -94.5 -55s-35.5 -86 -35.5 -148s11.833 -111.333 35.5 -148s55.167 -55 94.5 -55c50 0 88.667 20.667 116 62z" />
    <glyph glyph-name="egrave" unicode="&#xe8;" horiz-adv-x="508" 
d="M284 584h-49l-92 166h87zM255 -13c-62.667 0 -112.502 23.832 -149.502 71.499s-55.5 111.5 -55.5 191.5s18.5 143.833 55.5 191.5s86.833 71.5 149.5 71.5c60.667 0 108.834 -22 144.501 -66s53.5 -102.667 53.5 -176v-38h-337
c2.66699 -57.333 16.334 -102.666 41.001 -135.999s57.334 -50 98.001 -50c54 0 96 22.667 126 68l53 -35c-42.667 -62 -102.334 -93 -179.001 -93zM254.998 452.999c-37.333 0 -68.167 -14.167 -92.5 -42.5s-39.166 -67.5 -44.499 -117.5h268
c-3.33301 49.333 -16.833 88.333 -40.5 117s-53.834 43 -90.501 43z" />
    <glyph glyph-name="eacute" unicode="&#xe9;" horiz-adv-x="508" 
d="M287 751h87l-92 -167h-49zM255 -13c-62.667 0 -112.502 23.832 -149.502 71.499s-55.5 111.5 -55.5 191.5s18.5 143.833 55.5 191.5s86.833 71.5 149.5 71.5c60.667 0 108.834 -22 144.501 -66s53.5 -102.667 53.5 -176v-38h-337
c2.66699 -57.333 16.334 -102.666 41.001 -135.999s57.334 -50 98.001 -50c54 0 96 22.667 126 68l53 -35c-42.667 -62 -102.334 -93 -179.001 -93zM254.998 452.999c-37.333 0 -68.167 -14.167 -92.5 -42.5s-39.166 -67.5 -44.499 -117.5h268
c-3.33301 49.333 -16.833 88.333 -40.5 117s-53.834 43 -90.501 43z" />
    <glyph glyph-name="ecircumflex" unicode="&#xea;" horiz-adv-x="508" 
d="M384 584h-49l-81 111l-81 -111h-49l89 167h82zM255 -13c-62.667 0 -112.502 23.832 -149.502 71.499s-55.5 111.5 -55.5 191.5s18.5 143.833 55.5 191.5s86.833 71.5 149.5 71.5c60.667 0 108.834 -22 144.501 -66s53.5 -102.667 53.5 -176v-38h-337
c2.66699 -57.333 16.334 -102.666 41.001 -135.999s57.334 -50 98.001 -50c54 0 96 22.667 126 68l53 -35c-42.667 -62 -102.334 -93 -179.001 -93zM254.998 452.999c-37.333 0 -68.167 -14.167 -92.5 -42.5s-39.166 -67.5 -44.499 -117.5h268
c-3.33301 49.333 -16.833 88.333 -40.5 117s-53.834 43 -90.501 43z" />
    <glyph glyph-name="edieresis" unicode="&#xeb;" horiz-adv-x="508" 
d="M108 663c0 12.667 4.5 23.5 13.5 32.5s19.833 13.5 32.5 13.5s23.5 -4.5 32.5 -13.5s13.5 -19.833 13.5 -32.5s-4.5 -23.334 -13.5 -32.001s-19.833 -13 -32.5 -13s-23.5 4.33301 -32.5 13s-13.5 19.334 -13.5 32.001zM308 663c0 12.667 4.5 23.5 13.5 32.5
s19.833 13.5 32.5 13.5s23.5 -4.5 32.5 -13.5s13.5 -19.833 13.5 -32.5s-4.5 -23.334 -13.5 -32.001s-19.833 -13 -32.5 -13s-23.5 4.33301 -32.5 13s-13.5 19.334 -13.5 32.001zM255 -13c-62.667 0 -112.502 23.832 -149.502 71.499s-55.5 111.5 -55.5 191.5
s18.5 143.833 55.5 191.5s86.833 71.5 149.5 71.5c60.667 0 108.834 -22 144.501 -66s53.5 -102.667 53.5 -176v-38h-337c2.66699 -57.333 16.334 -102.666 41.001 -135.999s57.334 -50 98.001 -50c54 0 96 22.667 126 68l53 -35c-42.667 -62 -102.334 -93 -179.001 -93z
M254.998 452.999c-37.333 0 -68.167 -14.167 -92.5 -42.5s-39.166 -67.5 -44.499 -117.5h268c-3.33301 49.333 -16.833 88.333 -40.5 117s-53.834 43 -90.501 43z" />
    <glyph glyph-name="igrave" unicode="&#xec;" horiz-adv-x="246" 
d="M153 584h-49l-92 166h87zM156 0h-66v500h66v-500z" />
    <glyph glyph-name="iacute" unicode="&#xed;" horiz-adv-x="246" 
d="M157 751h87l-92 -167h-49zM156 0h-66v500h66v-500z" />
    <glyph glyph-name="icircumflex" unicode="&#xee;" horiz-adv-x="246" 
d="M253 584h-49l-81 111l-81 -111h-49l89 167h82zM156 0h-66v500h66v-500z" />
    <glyph glyph-name="idieresis" unicode="&#xef;" horiz-adv-x="246" 
d="M-23 663c0 12.667 4.5 23.5 13.5 32.5s19.833 13.5 32.5 13.5s23.5 -4.5 32.5 -13.5s13.5 -19.833 13.5 -32.5s-4.5 -23.334 -13.5 -32.001s-19.833 -13 -32.5 -13s-23.5 4.33301 -32.5 13s-13.5 19.334 -13.5 32.001zM177 663c0 12.667 4.5 23.5 13.5 32.5
s19.833 13.5 32.5 13.5s23.5 -4.5 32.5 -13.5s13.5 -19.833 13.5 -32.5s-4.5 -23.334 -13.5 -32.001s-19.833 -13 -32.5 -13s-23.5 4.33301 -32.5 13s-13.5 19.334 -13.5 32.001zM156 0h-66v500h66v-500z" />
    <glyph glyph-name="eth" unicode="&#xf0;" horiz-adv-x="523" 
d="M381 434c-11.333 56.667 -27.3311 103 -47.998 139l-118 -36v51l87 27c-27.333 29.333 -59.333 44 -96 44c-37.333 0 -74 -11 -110 -33l-26 46c39.333 27.333 85.666 41 138.999 41c61.333 0 112.666 -26 153.999 -78l100 31v-52l-71 -22
c46.667 -85.333 70 -204.333 70 -357c0 -77.333 -18.333 -138 -55 -182s-87.334 -66 -152.001 -66c-64 0 -114.167 22 -150.5 66s-54.5 104.667 -54.5 182s18.167 138 54.5 182s86.5 66 150.5 66c50.667 0 90.334 -17.333 119.001 -52zM116.002 235
c0 -58.667 12.333 -104.667 37 -138s58.667 -50 102 -50c44.667 0 79.5 16.667 104.5 50s37.5 79.333 37.5 138s-12.5 104.667 -37.5 138s-59.833 50 -104.5 50c-43.333 0 -77.333 -16.667 -102 -50s-37 -79.333 -37 -138z" />
    <glyph glyph-name="ntilde" unicode="&#xf1;" horiz-adv-x="546" 
d="M432 674c-24.667 -34 -57 -51 -97 -51c-17.333 0 -38.166 3.66699 -62.499 11s-41.166 11 -50.499 11c-23.333 0 -44.333 -8 -63 -24l-24 32c24 34 56 51 96 51c17.333 0 38.166 -3.66699 62.499 -11s41.166 -11 50.499 -11c24.667 0 46 8 64 24zM466 0h-66v344
c0 72.667 -34.333 109 -103 109c-61.333 0 -108.333 -27.333 -141 -82v-371h-66v500h61v-55c40 45.333 88.667 68 146 68c55.333 0 97.333 -14.5 126 -43.5s43 -70.833 43 -125.5v-344z" />
    <glyph glyph-name="ograve" unicode="&#xf2;" horiz-adv-x="512" 
d="M286 584h-49l-92 166h87zM50 250c0 82 18.167 146.333 54.5 193s86.5 70 150.5 70c64.667 0 115.334 -23.333 152.001 -70s55 -111 55 -193s-18.333 -146.333 -55 -193s-87.334 -70 -152.001 -70c-64 0 -114.167 23.333 -150.5 70s-54.5 111 -54.5 193zM116 250
c0 -63.333 12.333 -113 37 -149s58.667 -54 102 -54c44 0 78.5 18 103.5 54s37.5 85.667 37.5 149s-12.5 113 -37.5 149s-59.5 54 -103.5 54c-43.333 0 -77.333 -18 -102 -54s-37 -85.667 -37 -149z" />
    <glyph glyph-name="oacute" unicode="&#xf3;" horiz-adv-x="512" 
d="M289 751h87l-92 -167h-49zM50 250c0 82 18.167 146.333 54.5 193s86.5 70 150.5 70c64.667 0 115.334 -23.333 152.001 -70s55 -111 55 -193s-18.333 -146.333 -55 -193s-87.334 -70 -152.001 -70c-64 0 -114.167 23.333 -150.5 70s-54.5 111 -54.5 193zM116 250
c0 -63.333 12.333 -113 37 -149s58.667 -54 102 -54c44 0 78.5 18 103.5 54s37.5 85.667 37.5 149s-12.5 113 -37.5 149s-59.5 54 -103.5 54c-43.333 0 -77.333 -18 -102 -54s-37 -85.667 -37 -149z" />
    <glyph glyph-name="ocircumflex" unicode="&#xf4;" horiz-adv-x="512" 
d="M386 584h-49l-81 111l-81 -111h-49l89 167h82zM50 250c0 82 18.167 146.333 54.5 193s86.5 70 150.5 70c64.667 0 115.334 -23.333 152.001 -70s55 -111 55 -193s-18.333 -146.333 -55 -193s-87.334 -70 -152.001 -70c-64 0 -114.167 23.333 -150.5 70
s-54.5 111 -54.5 193zM116 250c0 -63.333 12.333 -113 37 -149s58.667 -54 102 -54c44 0 78.5 18 103.5 54s37.5 85.667 37.5 149s-12.5 113 -37.5 149s-59.5 54 -103.5 54c-43.333 0 -77.333 -18 -102 -54s-37 -85.667 -37 -149z" />
    <glyph glyph-name="otilde" unicode="&#xf5;" horiz-adv-x="512" 
d="M404 674c-24.667 -34 -57 -51 -97 -51c-17.333 0 -38.166 3.66699 -62.499 11s-41.166 11 -50.499 11c-23.333 0 -44.333 -8 -63 -24l-24 32c24 34 56 51 96 51c17.333 0 38.166 -3.66699 62.499 -11s41.166 -11 50.499 -11c24.667 0 46 8 64 24zM50 250
c0 82 18.167 146.333 54.5 193s86.5 70 150.5 70c64.667 0 115.334 -23.333 152.001 -70s55 -111 55 -193s-18.333 -146.333 -55 -193s-87.334 -70 -152.001 -70c-64 0 -114.167 23.333 -150.5 70s-54.5 111 -54.5 193zM116 250c0 -63.333 12.333 -113 37 -149
s58.667 -54 102 -54c44 0 78.5 18 103.5 54s37.5 85.667 37.5 149s-12.5 113 -37.5 149s-59.5 54 -103.5 54c-43.333 0 -77.333 -18 -102 -54s-37 -85.667 -37 -149z" />
    <glyph glyph-name="odieresis" unicode="&#xf6;" horiz-adv-x="512" 
d="M110 663c0 12.667 4.5 23.5 13.5 32.5s19.833 13.5 32.5 13.5s23.5 -4.5 32.5 -13.5s13.5 -19.833 13.5 -32.5s-4.5 -23.334 -13.5 -32.001s-19.833 -13 -32.5 -13s-23.5 4.33301 -32.5 13s-13.5 19.334 -13.5 32.001zM310 663c0 12.667 4.5 23.5 13.5 32.5
s19.833 13.5 32.5 13.5s23.5 -4.5 32.5 -13.5s13.5 -19.833 13.5 -32.5s-4.5 -23.334 -13.5 -32.001s-19.833 -13 -32.5 -13s-23.5 4.33301 -32.5 13s-13.5 19.334 -13.5 32.001zM50 250c0 82 18.167 146.333 54.5 193s86.5 70 150.5 70
c64.667 0 115.334 -23.333 152.001 -70s55 -111 55 -193s-18.333 -146.333 -55 -193s-87.334 -70 -152.001 -70c-64 0 -114.167 23.333 -150.5 70s-54.5 111 -54.5 193zM116 250c0 -63.333 12.333 -113 37 -149s58.667 -54 102 -54c44 0 78.5 18 103.5 54
s37.5 85.667 37.5 149s-12.5 113 -37.5 149s-59.5 54 -103.5 54c-43.333 0 -77.333 -18 -102 -54s-37 -85.667 -37 -149z" />
    <glyph glyph-name="divide" unicode="&#xf7;" horiz-adv-x="832" 
d="M245 90v105h85v-105h-85zM245 471v105h85v-105h-85zM496 363v-60h-416v60h416z" />
    <glyph glyph-name="oslash" unicode="&#xf8;" horiz-adv-x="512" 
d="M184 -74h-55l200 650h55zM50 250c0 82 18.167 146.333 54.5 193s86.5 70 150.5 70c64.667 0 115.334 -23.333 152.001 -70s55 -111 55 -193s-18.333 -146.333 -55 -193s-87.334 -70 -152.001 -70c-64 0 -114.167 23.333 -150.5 70s-54.5 111 -54.5 193zM116 250
c0 -63.333 12.333 -113 37 -149s58.667 -54 102 -54c44 0 78.5 18 103.5 54s37.5 85.667 37.5 149s-12.5 113 -37.5 149s-59.5 54 -103.5 54c-43.333 0 -77.333 -18 -102 -54s-37 -85.667 -37 -149z" />
    <glyph glyph-name="ugrave" unicode="&#xf9;" horiz-adv-x="546" 
d="M303 584h-49l-92 166h87zM80 500h66v-344c0 -72.667 34.333 -109 103 -109c61.333 0 108.333 32 141 96v357h66v-500h-61v62c-40 -50 -88.667 -75 -146 -75c-112.667 0 -169 56.333 -169 169v344z" />
    <glyph glyph-name="uacute" unicode="&#xfa;" horiz-adv-x="546" 
d="M306 751h87l-92 -167h-49zM80 500h66v-344c0 -72.667 34.333 -109 103 -109c61.333 0 108.333 32 141 96v357h66v-500h-61v62c-40 -50 -88.667 -75 -146 -75c-112.667 0 -169 56.333 -169 169v344z" />
    <glyph glyph-name="ucircumflex" unicode="&#xfb;" horiz-adv-x="546" 
d="M403 584h-49l-81 111l-81 -111h-49l89 167h82zM80 500h66v-344c0 -72.667 34.333 -109 103 -109c61.333 0 108.333 32 141 96v357h66v-500h-61v62c-40 -50 -88.667 -75 -146 -75c-112.667 0 -169 56.333 -169 169v344z" />
    <glyph glyph-name="udieresis" unicode="&#xfc;" horiz-adv-x="546" 
d="M127 663c0 12.667 4.5 23.5 13.5 32.5s19.833 13.5 32.5 13.5s23.5 -4.5 32.5 -13.5s13.5 -19.833 13.5 -32.5s-4.5 -23.334 -13.5 -32.001s-19.833 -13 -32.5 -13s-23.5 4.33301 -32.5 13s-13.5 19.334 -13.5 32.001zM327 663c0 12.667 4.5 23.5 13.5 32.5
s19.833 13.5 32.5 13.5s23.5 -4.5 32.5 -13.5s13.5 -19.833 13.5 -32.5s-4.5 -23.334 -13.5 -32.001s-19.833 -13 -32.5 -13s-23.5 4.33301 -32.5 13s-13.5 19.334 -13.5 32.001zM80 500h66v-344c0 -72.667 34.333 -109 103 -109c61.333 0 108.333 32 141 96v357h66v-500
h-61v62c-40 -50 -88.667 -75 -146 -75c-112.667 0 -169 56.333 -169 169v344z" />
    <glyph glyph-name="yacute" unicode="&#xfd;" horiz-adv-x="473" 
d="M260 751h87l-92 -167h-49zM25 500l67 0.000976562l145 -433l144 433h67l-164 -475c-40 -114.667 -112.667 -195.667 -218 -243l-27 52c38 18 69.5 38.667 94.5 62s47.5 52.666 67.5 87.999z" />
    <glyph glyph-name="thorn" unicode="&#xfe;" horiz-adv-x="536" 
d="M156 700v-249c38.667 40.667 85 61 139 61c58.667 0 105.167 -23.667 139.5 -71s51.5 -111.333 51.5 -192s-18.333 -144.667 -55 -192s-85.667 -71 -147 -71c-50 0 -92.667 14.667 -128 44v-235h-66v905h66zM156 115c30 -46 73.002 -69 129.002 -69
c41.333 0 74.166 18.333 98.499 55s36.5 86 36.5 148s-11.167 111.333 -33.5 148s-52.5 55 -90.5 55c-58.667 0 -105.334 -29 -140.001 -87v-250z" />
    <glyph glyph-name="ydieresis" unicode="&#xff;" horiz-adv-x="473" 
d="M100 663c0 12.667 4.5 23.5 13.5 32.5s19.833 13.5 32.5 13.5s23.5 -4.5 32.5 -13.5s13.5 -19.833 13.5 -32.5s-4.5 -23.334 -13.5 -32.001s-19.833 -13 -32.5 -13s-23.5 4.33301 -32.5 13s-13.5 19.334 -13.5 32.001zM300 663c0 12.667 4.5 23.5 13.5 32.5
s19.833 13.5 32.5 13.5s23.5 -4.5 32.5 -13.5s13.5 -19.833 13.5 -32.5s-4.5 -23.334 -13.5 -32.001s-19.833 -13 -32.5 -13s-23.5 4.33301 -32.5 13s-13.5 19.334 -13.5 32.001zM25 500l67 0.000976562l145 -433l144 433h67l-164 -475
c-40 -114.667 -112.667 -195.667 -218 -243l-27 52c38 18 69.5 38.667 94.5 62s47.5 52.666 67.5 87.999z" />
    <glyph glyph-name="Amacron" unicode="&#x100;" horiz-adv-x="519" 
d="M259 613l107 -357h-214zM210 666l-200 -666h66l58 196h250l59 -196h66l-200 666h-99zM393 784h-267v58h267v-58z" />
    <glyph glyph-name="amacron" unicode="&#x101;" horiz-adv-x="516" 
d="M238 47c-34.667 0 -62 9.33301 -82 28s-30 43.667 -30 75s10 56.333 30 75s47.333 28 82 28c55.333 0 99.333 -17.333 132 -52v-74c-33.333 -53.333 -77.333 -80 -132 -80zM375 0h61v337c0 53.333 -16.333 96 -49 128s-76.667 48 -132 48c-76 0 -135 -31 -177 -93l51 -33
c32 44 74 66 126 66c34.667 0 62.5 -10.5 83.5 -31.5s31.5 -49.167 31.5 -84.5v-67c-38 28.667 -81.667 43 -131 43c-54.667 0 -98.167 -14.667 -130.5 -44s-48.5 -69 -48.5 -119c0 -49.333 16.167 -88.833 48.5 -118.5s75.833 -44.5 130.5 -44.5c52.667 0 98 21.667 136 65
v-52zM391 634h-267v58h267v-58z" />
    <glyph glyph-name="Abreve" unicode="&#x102;" horiz-adv-x="519" 
d="M259 613l107 -357h-214zM210 666l-200 -666h66l58 196h250l59 -196h66l-200 666h-99zM259 788c-44.667 0 -72.001 25.667 -82.001 77h-51c2 -41.333 15 -74.5 39 -99.5s55.333 -37.5 94 -37.5s70 12.5 94 37.5s37 58.167 39 99.5h-51
c-11.333 -51.333 -38.666 -77 -81.999 -77z" />
    <glyph glyph-name="abreve" unicode="&#x103;" horiz-adv-x="516" 
d="M238 47c-34.667 0 -62 9.33301 -82 28s-30 43.667 -30 75s10 56.333 30 75s47.333 28 82 28c55.333 0 99.333 -17.333 132 -52v-74c-33.333 -53.333 -77.333 -80 -132 -80zM375 0h61v337c0 53.333 -16.333 96 -49 128s-76.667 48 -132 48c-76 0 -135 -31 -177 -93l51 -33
c32 44 74 66 126 66c34.667 0 62.5 -10.5 83.5 -31.5s31.5 -49.167 31.5 -84.5v-67c-38 28.667 -81.667 43 -131 43c-54.667 0 -98.167 -14.667 -130.5 -44s-48.5 -69 -48.5 -119c0 -49.333 16.167 -88.833 48.5 -118.5s75.833 -44.5 130.5 -44.5c52.667 0 98 21.667 136 65
v-52zM258 638c-44.667 0 -72.001 25.667 -82.001 77h-51c2 -41.333 15 -74.5 39 -99.5s55.333 -37.5 94 -37.5s70 12.5 94 37.5s37 58.167 39 99.5h-51c-11.333 -51.333 -38.666 -77 -81.999 -77z" />
    <glyph glyph-name="Aogonek" unicode="&#x104;" horiz-adv-x="519" 
d="M259 613l107 -357h-214zM210 666l-200 -666h66l58 196h250l53 -175c-42 -6.66699 -75.667 -20 -101 -40c-27.333 -21.333 -41 -49.333 -41 -84c0 -28.667 9.16699 -51.167 27.5 -67.5s43.166 -24.5 74.499 -24.5c46.667 0 83.334 16.667 110.001 50l-24 44
c-22 -29.333 -49.667 -44 -83 -44c-15.333 0 -27.333 4.83301 -36 14.5s-13 21.5 -13 35.5c0 20.667 7.83301 40.167 23.5 58.5s38.5 30.5 68.5 36.5h66l-200 666h-99z" />
    <glyph glyph-name="aogonek" unicode="&#x105;" horiz-adv-x="516" 
d="M476 -105c-22 -29.333 -49.667 -43.998 -83 -43.998c-15.333 0 -27.333 4.83301 -36 14.5s-13 21.5 -13 35.5c0 20.667 7.83301 40.167 23.5 58.5s38.5 30.5 68.5 36.5v4v18v319c0 53.333 -16.333 96 -49 128s-76.667 48 -132 48c-76 0 -135 -31 -177 -93l51 -33
c32 44 74 66 126 66c34.667 0 62.5 -10.5 83.5 -31.5s31.5 -49.167 31.5 -84.5v-67c-38 28.667 -81.667 43 -131 43c-54.667 0 -98.167 -14.667 -130.5 -44s-48.5 -69 -48.5 -119c0 -49.333 16.167 -88.833 48.5 -118.5s75.833 -44.5 130.5 -44.5c52.667 0 98 21.667 136 65
v-50c-17.333 -6.66699 -33 -15.334 -47 -26.001c-26.667 -20.667 -40 -48.334 -40 -83.001c0 -28.667 9.16699 -51.167 27.5 -67.5s43.166 -24.5 74.499 -24.5c46.667 0 83.334 16.667 110.001 50zM238 47.002c-34.667 0 -62 9.33301 -82 28s-30 43.667 -30 75
s10 56.333 30 75s47.333 28 82 28c55.333 0 99.333 -17.333 132 -52v-74c-33.333 -53.333 -77.333 -80 -132 -80z" />
    <glyph glyph-name="Cacute" unicode="&#x106;" horiz-adv-x="536" 
d="M306 617c64 0 113.667 -25.333 149 -76l51 36c-48 68 -115 102 -201 102c-74.667 0 -134.167 -31.333 -178.5 -94s-66.5 -146.667 -66.5 -252s22.167 -189.333 66.5 -252s103.833 -94 178.5 -94c90.667 0 161 38.333 211 115l-51 36
c-36.667 -59.333 -89.667 -89 -159 -89c-54 0 -97.167 25.833 -129.5 77.5s-48.5 120.5 -48.5 206.5s16.167 154.833 48.5 206.5s75.5 77.5 129.5 77.5zM332 901h87l-92 -167h-49z" />
    <glyph glyph-name="cacute" unicode="&#x107;" horiz-adv-x="425" 
d="M362 109c-27.333 -41.333 -66 -62 -116 -62c-39.333 0 -70.833 18.333 -94.5 55s-35.5 86 -35.5 148s11.833 111.333 35.5 148s55.167 55 94.5 55c46.667 0 82.667 -17.667 108 -53l53 35c-38 52 -91.667 78 -161 78c-60 0 -107.667 -23.667 -143 -71
s-53 -111.333 -53 -192s17.667 -144.667 53 -192s83 -71 143 -71c72 0 128.333 29 169 87zM266 751h87l-92 -167h-49z" />
    <glyph glyph-name="Ccaron" unicode="&#x10c;" horiz-adv-x="536" 
d="M306 617c64 0 113.667 -25.333 149 -76l51 36c-48 68 -115 102 -201 102c-74.667 0 -134.167 -31.333 -178.5 -94s-66.5 -146.667 -66.5 -252s22.167 -189.333 66.5 -252s103.833 -94 178.5 -94c90.667 0 161 38.333 211 115l-51 36
c-36.667 -59.333 -89.667 -89 -159 -89c-54 0 -97.167 25.833 -129.5 77.5s-48.5 120.5 -48.5 206.5s16.167 154.833 48.5 206.5s75.5 77.5 129.5 77.5zM178 901h49l81 -111l81 111h49l-89 -167h-82z" />
    <glyph glyph-name="ccaron" unicode="&#x10d;" horiz-adv-x="425" 
d="M362 109c-27.333 -41.333 -66 -62 -116 -62c-39.333 0 -70.833 18.333 -94.5 55s-35.5 86 -35.5 148s11.833 111.333 35.5 148s55.167 55 94.5 55c46.667 0 82.667 -17.667 108 -53l53 35c-38 52 -91.667 78 -161 78c-60 0 -107.667 -23.667 -143 -71
s-53 -111.333 -53 -192s17.667 -144.667 53 -192s83 -71 143 -71c72 0 128.333 29 169 87zM122 751h49l81 -111l81 111h49l-89 -167h-82z" />
    <glyph glyph-name="Dcaron" unicode="&#x10e;" horiz-adv-x="625" 
d="M307 606c57.333 0 103.333 -24.8311 138 -74.498s52 -115.834 52 -198.501s-17.333 -148.834 -52 -198.501s-80.667 -74.5 -138 -74.5h-141v546h141zM565 333.002c0 101.333 -23.333 182.168 -70 242.501s-109.334 90.5 -188.001 90.5h-207v-666h207
c78.667 0 141.334 30.167 188.001 90.5s70 141.166 70 242.499zM162 901.004h49l81 -111l81 111h49l-89 -167h-82z" />
    <glyph glyph-name="dcaron" unicode="&#x10f;" horiz-adv-x="536" 
d="M380 134c-34 -58 -80.666 -87 -139.999 -87c-38 0 -68.167 18.333 -90.5 55s-33.5 86 -33.5 148s12.167 111.333 36.5 148s57.166 55 98.499 55c56 0 99 -23 129 -69v-250zM446.001 700h-66v-231c-35.333 29.333 -78 44 -128 44c-61.333 0 -110.333 -23.667 -147 -71
s-55 -111.333 -55 -192s17.167 -144.667 51.5 -192s80.833 -71 139.5 -71c56 0 104 22 144 66v-53h61v700zM530.001 730h87l-92 -167h-49z" />
    <glyph glyph-name="Dcroat" unicode="&#x110;" horiz-adv-x="625" 
d="M565 333c0 101.333 -23.333 182.168 -70 242.501s-109.334 90.5 -188.001 90.5h-207v-306h-74v-54h74v-306h207c78.667 0 141.334 30.167 188.001 90.5s70 141.166 70 242.499zM307 606.002c57.333 0 103.333 -24.8311 138 -74.498s52 -115.834 52 -198.501
s-17.333 -148.834 -52 -198.501s-80.667 -74.5 -138 -74.5h-141v246h201v54h-201v246h141z" />
    <glyph glyph-name="dcroat" unicode="&#x111;" horiz-adv-x="536" 
d="M446 700h-66v-68h-200v-54h200v-109c-35.333 29.333 -78 44 -128 44c-61.333 0 -110.333 -23.667 -147 -71s-55 -111.333 -55 -192s17.167 -144.667 51.5 -192s80.833 -71 139.5 -71c56 0 104 22 144 66v-53h61v578h75v54h-75v68zM380 134
c-34 -58 -80.666 -87 -139.999 -87c-38 0 -68.167 18.333 -90.5 55s-33.5 86 -33.5 148s12.167 111.333 36.5 148s57.166 55 98.499 55c56 0 99 -23 129 -69v-250z" />
    <glyph glyph-name="Emacron" unicode="&#x112;" horiz-adv-x="514" 
d="M166 606h288v60h-354v-666h364v60h-298v256h267v60h-267v230zM420 784h-267v58h267v-58z" />
    <glyph glyph-name="emacron" unicode="&#x113;" horiz-adv-x="508" 
d="M255 453c36.667 0 66.835 -14.333 90.502 -43s37.167 -67.667 40.5 -117h-268c5.33301 50 20.166 89.167 44.499 117.5s55.166 42.5 92.499 42.5zM255.001 -13c76.667 0 136.336 31.001 179.003 93.001l-53 35c-30 -45.333 -72 -68 -126 -68
c-40.667 0 -73.334 16.667 -98.001 50s-38.334 78.666 -41.001 135.999h337v38c0 73.333 -17.833 132 -53.5 176s-83.834 66 -144.501 66c-62.667 0 -112.5 -23.833 -149.5 -71.5s-55.5 -111.5 -55.5 -191.5s18.5 -143.833 55.5 -191.5s86.833 -71.5 149.5 -71.5z
M397.003 634.001h-267v58h267v-58z" />
    <glyph glyph-name="Edotaccent" unicode="&#x116;" horiz-adv-x="514" 
d="M166 606h288v60h-354v-666h364v60h-298v256h267v60h-267v230zM287 761c14.667 0 27.167 5 37.5 15s15.5 22.333 15.5 37s-5.16699 27.167 -15.5 37.5s-22.833 15.5 -37.5 15.5s-27.167 -5.16699 -37.5 -15.5s-15.5 -22.833 -15.5 -37.5s5.16699 -27 15.5 -37
s22.833 -15 37.5 -15z" />
    <glyph glyph-name="edotaccent" unicode="&#x117;" horiz-adv-x="508" 
d="M255 453c36.667 0 66.835 -14.333 90.502 -43s37.167 -67.667 40.5 -117h-268c5.33301 50 20.166 89.167 44.499 117.5s55.166 42.5 92.499 42.5zM255.001 -13c76.667 0 136.336 31.001 179.003 93.001l-53 35c-30 -45.333 -72 -68 -126 -68
c-40.667 0 -73.334 16.667 -98.001 50s-38.334 78.666 -41.001 135.999h337v38c0 73.333 -17.833 132 -53.5 176s-83.834 66 -144.501 66c-62.667 0 -112.5 -23.833 -149.5 -71.5s-55.5 -111.5 -55.5 -191.5s18.5 -143.833 55.5 -191.5s86.833 -71.5 149.5 -71.5z
M254.003 611.001c14.667 0 27.167 5 37.5 15s15.5 22.333 15.5 37s-5.16699 27.167 -15.5 37.5s-22.833 15.5 -37.5 15.5s-27.167 -5.16699 -37.5 -15.5s-15.5 -22.833 -15.5 -37.5s5.16699 -27 15.5 -37s22.833 -15 37.5 -15z" />
    <glyph glyph-name="Eogonek" unicode="&#x118;" horiz-adv-x="514" 
d="M166 606l288 0.000976562v60h-354v-666h288c-11.333 -5.33301 -22 -12 -32 -20c-26.667 -20.667 -40 -48.334 -40 -83.001c0 -28.667 9.16699 -51.167 27.5 -67.5s43.166 -24.5 74.499 -24.5c46.667 0 83.334 16.667 110.001 50l-24 44c-22 -29.333 -49.667 -44 -83 -44
c-15.333 0 -27.333 4.83301 -36 14.5s-13 21.5 -13 35.5c0 20.667 7.83301 40.167 23.5 58.5s38.5 30.5 68.5 36.5v22v38h-298v256h267v60h-267v230z" />
    <glyph glyph-name="eogonek" unicode="&#x119;" horiz-adv-x="508" 
d="M360 -105c-22 -29.333 -49.6631 -44 -82.9961 -44c-15.333 0 -27.333 4.83301 -36 14.5s-13 21.5 -13 35.5c0 20.667 8 40.334 24 59.001c12 14 28.333 24.333 49 31c54.667 10.667 99 40.334 133 89.001l-53 35c-30 -45.333 -72 -68 -126 -68
c-40.667 0 -73.334 16.667 -98.001 50s-38.334 78.666 -41.001 135.999h337v38c0 73.333 -17.833 132 -53.5 176s-83.834 66 -144.501 66c-62.667 0 -112.5 -23.833 -149.5 -71.5s-55.5 -111.5 -55.5 -191.5s18.667 -144 56 -192c31.333 -40.667 72.666 -64 123.999 -70
c-6 -3.33301 -12 -7.33301 -18 -12c-26.667 -20.667 -40 -48.334 -40 -83.001c0 -28.667 9.16699 -51.167 27.5 -67.5s43.166 -24.5 74.499 -24.5c46.667 0 83.334 16.667 110.001 50zM255.004 453c36.667 0 66.835 -14.333 90.502 -43s37.167 -67.667 40.5 -117h-268
c5.33301 50 20.166 89.167 44.499 117.5s55.166 42.5 92.499 42.5z" />
    <glyph glyph-name="Ecaron" unicode="&#x11a;" horiz-adv-x="514" 
d="M166 606h288v60h-354v-666h364v60h-298v256h267v60h-267v230zM157 901h49l81 -111l81 111h49l-89 -167h-82z" />
    <glyph glyph-name="ecaron" unicode="&#x11b;" horiz-adv-x="508" 
d="M255 453c36.667 0 66.835 -14.333 90.502 -43s37.167 -67.667 40.5 -117h-268c5.33301 50 20.166 89.167 44.499 117.5s55.166 42.5 92.499 42.5zM255.001 -13c76.667 0 136.336 31.001 179.003 93.001l-53 35c-30 -45.333 -72 -68 -126 -68
c-40.667 0 -73.334 16.667 -98.001 50s-38.334 78.666 -41.001 135.999h337v38c0 73.333 -17.833 132 -53.5 176s-83.834 66 -144.501 66c-62.667 0 -112.5 -23.833 -149.5 -71.5s-55.5 -111.5 -55.5 -191.5s18.5 -143.833 55.5 -191.5s86.833 -71.5 149.5 -71.5z
M124.003 751.001h49l81 -111l81 111h49l-89 -167h-82z" />
    <glyph glyph-name="Gbreve" unicode="&#x11e;" horiz-adv-x="602" 
d="M517 325h-219v-60h153v-121c-34 -63.333 -82.333 -95 -145 -95c-54 0 -97.167 25.833 -129.5 77.5s-48.5 120.5 -48.5 206.5s18 154.833 54 206.5s84.333 77.5 145 77.5c60 0 107 -19 141 -57l43 45c-44 49.333 -105.667 74 -185 74c-81.333 0 -146 -31.333 -194 -94
s-72 -146.667 -72 -252s22.167 -189.333 66.5 -252s103.833 -94 178.5 -94c62.667 0 113 24.667 151 74v-61h61v325zM321 788c-44.667 0 -72.001 25.667 -82.001 77h-51c2 -41.333 15 -74.5 39 -99.5s55.333 -37.5 94 -37.5s70 12.5 94 37.5s37 58.167 39 99.5h-51
c-11.333 -51.333 -38.666 -77 -81.999 -77z" />
    <glyph glyph-name="gbreve" unicode="&#x11f;" horiz-adv-x="536" 
d="M380 147c-34 -58 -80.666 -86.999 -139.999 -86.999c-38 0 -68.167 17.167 -90.5 51.5s-33.5 80.166 -33.5 137.499c0 62 12.167 111.333 36.5 148s57.166 55 98.499 55c28.667 0 54.5 -8 77.5 -24s40.167 -38 51.5 -66v-215zM446.001 499.001l-61 -0.000976562v-46
c-36 39.333 -80.333 59 -133 59c-61.333 0 -110.333 -23.667 -147 -71s-55 -111.333 -55 -192c0 -76 17.333 -136.5 52 -181.5s81 -67.5 139 -67.5c54 -0 100.333 20.333 139 61v-99c0 -38 -10.167 -67.167 -30.5 -87.5s-49.166 -30.5 -86.499 -30.5c-60 0 -104 27 -132 81
l-54 -34c40.667 -72.667 102.667 -109 186 -109c57.333 0 102.166 15.833 134.499 47.5s48.5 75.834 48.5 132.501v537zM258.001 638c-44.667 0 -72.001 25.667 -82.001 77h-51c2 -41.333 15 -74.5 39 -99.5s55.333 -37.5 94 -37.5s70 12.5 94 37.5s37 58.167 39 99.5h-51
c-11.333 -51.333 -38.666 -77 -81.999 -77z" />
    <glyph glyph-name="Gcommaaccent" unicode="&#x122;" horiz-adv-x="602" 
d="M517 325h-219v-60h153v-121c-34 -63.333 -82.333 -95 -145 -95c-54 0 -97.167 25.833 -129.5 77.5s-48.5 120.5 -48.5 206.5s18 154.833 54 206.5s84.333 77.5 145 77.5c60 0 107 -19 141 -57l43 45c-44 49.333 -105.667 74 -185 74c-81.333 0 -146 -31.333 -194 -94
s-72 -146.667 -72 -252s22.167 -189.333 66.5 -252s103.833 -94 178.5 -94c62.667 0 113 24.667 151 74v-61h61v325zM284 -45h87l-92 -167h-49z" />
    <glyph glyph-name="gcommaaccent" unicode="&#x123;" horiz-adv-x="536" 
d="M380 147c-34 -58 -80.666 -86.999 -139.999 -86.999c-38 0 -68.167 17.167 -90.5 51.5s-33.5 80.166 -33.5 137.499c0 62 12.167 111.333 36.5 148s57.166 55 98.499 55c28.667 0 54.5 -8 77.5 -24s40.167 -38 51.5 -66v-215zM446.001 499.001l-61 -0.000976562v-46
c-36 39.333 -80.333 59 -133 59c-61.333 0 -110.333 -23.667 -147 -71s-55 -111.333 -55 -192c0 -76 17.333 -136.5 52 -181.5s81 -67.5 139 -67.5c54 -0 100.333 20.333 139 61v-99c0 -38 -10.167 -67.167 -30.5 -87.5s-49.166 -30.5 -86.499 -30.5c-60 0 -104 27 -132 81
l-54 -34c40.667 -72.667 102.667 -109 186 -109c57.333 0 102.166 15.833 134.499 47.5s48.5 75.834 48.5 132.501v537zM300.001 583h-87l92 167h49z" />
    <glyph glyph-name="hbar" unicode="&#x127;" horiz-adv-x="546" 
d="M356 632v-54h-341v54h341zM466 0h-66v344c0 72.667 -34.333 109 -103 109c-61.333 0 -108.333 -27.333 -141 -82v-371h-66v700h66v-249c39.333 41.333 86.333 62 141 62c55.333 0 97.333 -14.5 126 -43.5s43 -70.833 43 -125.5v-344z" />
    <glyph glyph-name="Itilde" unicode="&#x128;" horiz-adv-x="266" 
d="M282 824c-24.667 -34 -57 -51 -97 -51c-17.333 0 -38.166 3.66699 -62.499 11s-41.166 11 -50.499 11c-23.333 0 -44.333 -8 -63 -24l-24 32c24 34 56 51 96 51c17.333 0 38.166 -3.66699 62.499 -11s41.166 -11 50.499 -11c24.667 0 46 8 64 24zM166 0h-66v666h66v-666z
" />
    <glyph glyph-name="itilde" unicode="&#x129;" horiz-adv-x="246" 
d="M272 674c-24.667 -34 -57 -51 -97 -51c-17.333 0 -38.166 3.66699 -62.499 11s-41.166 11 -50.499 11c-23.333 0 -44.333 -8 -63 -24l-24 32c24 34 56 51 96 51c17.333 0 38.166 -3.66699 62.499 -11s41.166 -11 50.499 -11c24.667 0 46 8 64 24zM156 0h-66v500h66v-500z
" />
    <glyph glyph-name="Imacron" unicode="&#x12a;" horiz-adv-x="266" 
d="M166 666h-66v-666h66v666zM267 784h-267v58h267v-58z" />
    <glyph glyph-name="imacron" unicode="&#x12b;" horiz-adv-x="246" 
d="M156 500h-66v-500h66v500zM257 634h-267v58h267v-58z" />
    <glyph glyph-name="Iogonek" unicode="&#x12e;" horiz-adv-x="266" 
d="M166 666l-66 0.000976562v-662c-15.333 -6 -29.333 -14 -42 -24c-26.667 -20.667 -40 -48.334 -40 -83.001c0 -28.667 9.16699 -51.167 27.5 -67.5s43.166 -24.5 74.499 -24.5c46.667 0 83.334 16.667 110.001 50l-24 44c-22 -29.333 -49.667 -44 -83 -44
c-15.333 0 -27.333 4.83301 -36 14.5s-13 21.5 -13 35.5c0 20.667 7.83301 40.167 23.5 58.5s38.5 30.5 68.5 36.5v22v644z" />
    <glyph glyph-name="iogonek" unicode="&#x12f;" horiz-adv-x="246" 
d="M156 500l-66 0.000976562v-500c-15.333 -6 -29.333 -14 -42 -24c-26.667 -20.667 -40 -48.334 -40 -83.001c0 -28.667 9.16699 -51.167 27.5 -67.5s43.166 -24.5 74.499 -24.5c46.667 0 83.334 16.667 110.001 50l-24 44c-22 -29.333 -49.667 -44 -83 -44
c-15.333 0 -27.333 4.83301 -36 14.5s-13 21.5 -13 35.5c0 20.667 7.83301 40.167 23.5 58.5s38.5 30.5 68.5 36.5v4v18v482zM77 663.001c0 -12.667 4.5 -23.334 13.5 -32.001s19.833 -13 32.5 -13s23.5 4.33301 32.5 13s13.5 19.334 13.5 32.001s-4.5 23.5 -13.5 32.5
s-19.833 13.5 -32.5 13.5s-23.5 -4.5 -32.5 -13.5s-13.5 -19.833 -13.5 -32.5z" />
    <glyph glyph-name="Idotaccent" unicode="&#x130;" horiz-adv-x="266" 
d="M166 666h-66v-666h66v666zM133 761c14.667 0 27.167 5 37.5 15s15.5 22.333 15.5 37s-5.16699 27.167 -15.5 37.5s-22.833 15.5 -37.5 15.5s-27.167 -5.16699 -37.5 -15.5s-15.5 -22.833 -15.5 -37.5s5.16699 -27 15.5 -37s22.833 -15 37.5 -15z" />
    <glyph glyph-name="dotlessi" unicode="&#x131;" horiz-adv-x="246" 
d="M156 0h-66v500h66v-500z" />
    <glyph glyph-name="IJ" unicode="&#x132;" horiz-adv-x="667" 
d="M427 -13c-71.333 0 -125.001 37.001 -161.001 111.001l54 34c22.667 -55.333 58.334 -83 107.001 -83c28.667 0 50.667 10.167 66 30.5s23 49.5 23 87.5v499h66v-499c0 -56.667 -13.667 -100.834 -41 -132.501s-65.333 -47.5 -114 -47.5zM165.999 0.000976562h-66v666h66
v-666z" />
    <glyph glyph-name="ij" unicode="&#x133;" horiz-adv-x="492" 
d="M402 500l-66 -0.000976562v-594c0 -19.333 -4.83301 -34.666 -14.5 -45.999s-22.5 -17 -38.5 -17c-27.333 0 -49.666 10.667 -66.999 32l-42 -36c25.333 -37.333 61.666 -56 108.999 -56c36.667 0 65.667 11 87 33s32 52 32 90v594zM323 662.999
c0 -12.667 4.5 -23.334 13.5 -32.001s19.833 -13 32.5 -13s23.5 4.33301 32.5 13s13.5 19.334 13.5 32.001s-4.5 23.5 -13.5 32.5s-19.833 13.5 -32.5 13.5s-23.5 -4.5 -32.5 -13.5s-13.5 -19.833 -13.5 -32.5zM156 499.999h-66v-500h66v500zM77 662.999
c0 -12.667 4.5 -23.334 13.5 -32.001s19.833 -13 32.5 -13s23.5 4.33301 32.5 13s13.5 19.334 13.5 32.001s-4.5 23.5 -13.5 32.5s-19.833 13.5 -32.5 13.5s-23.5 -4.5 -32.5 -13.5s-13.5 -19.833 -13.5 -32.5z" />
    <glyph glyph-name="Jcircumflex" unicode="&#x134;" horiz-adv-x="401" 
d="M415 734h-49l-81 111l-81 -111h-49l89 167h82zM161 -13c-71.333 0 -125.001 37.001 -161.001 111.001l54 34c22.667 -55.333 58.334 -83 107.001 -83c28.667 0 50.667 10.167 66 30.5s23 49.5 23 87.5v499h66v-499c0 -56.667 -13.667 -100.834 -41 -132.501
s-65.333 -47.5 -114 -47.5z" />
    <glyph glyph-name="jcircumflex" unicode="&#x135;" horiz-adv-x="246" 
d="M253 584h-49l-81 111l-81 -111h-49l89 167h82zM156 -94c0 -38 -10.667 -67.999 -32 -89.999s-50.333 -33 -87 -33c-47.333 0 -83.666 18.667 -108.999 56l42 36c17.333 -21.333 39.666 -32 66.999 -32c16 0 28.833 5.66699 38.5 17s14.5 26.666 14.5 45.999v594h66v-594z
" />
    <glyph glyph-name="Kcommaaccent" unicode="&#x136;" horiz-adv-x="521" 
d="M166 0v262l46 55l232 -317h77l-267 367l251 299h-80l-259 -311v311h-66v-666h66zM244 -45h87l-92 -167h-49z" />
    <glyph glyph-name="kcommaaccent" unicode="&#x137;" horiz-adv-x="467" 
d="M219 -45h87l-92 -167h-49zM100 0v700h66v-431l201 231h80l-185 -212l200 -288h-77l-166 239l-53 -61v-178h-66z" />
    <glyph glyph-name="kgreenlandic" unicode="&#x138;" horiz-adv-x="492" 
d="M100 0v500h66v-239l223 239h83l-191 -204l206 -296h-82l-171 246l-68 -72v-174h-66z" />
    <glyph glyph-name="Lacute" unicode="&#x139;" horiz-adv-x="419" 
d="M100 0h314v60h-248v606h-66v-666zM137 901h87l-92 -167h-49z" />
    <glyph glyph-name="lacute" unicode="&#x13a;" horiz-adv-x="246" 
d="M156 700h-66v-700h66v700zM137 901h87l-92 -167h-49z" />
    <glyph glyph-name="Lcommaaccent" unicode="&#x13b;" horiz-adv-x="419" 
d="M100 0h314v60h-248v606h-66v-666zM223 -45h87l-92 -167h-49z" />
    <glyph glyph-name="lcommaaccent" unicode="&#x13c;" horiz-adv-x="246" 
d="M156 700h-66v-700h66v700zM80 -45h87l-92 -167h-49z" />
    <glyph glyph-name="Lcaron" unicode="&#x13d;" horiz-adv-x="419" 
d="M100 0h314v60h-248v606h-66v-666zM270 730h87l-92 -167h-49z" />
    <glyph glyph-name="lcaron" unicode="&#x13e;" horiz-adv-x="246" 
d="M156 700h-66v-700h66v700zM240 730h87l-92 -167h-49z" />
    <glyph glyph-name="Ldot" unicode="&#x13f;" horiz-adv-x="419" 
d="M302 267c-14.667 0 -27.167 5 -37.5 15s-15.5 22.333 -15.5 37s5.16699 27.167 15.5 37.5s22.833 15.5 37.5 15.5s27.167 -5.16699 37.5 -15.5s15.5 -22.833 15.5 -37.5s-5.16699 -27 -15.5 -37s-22.833 -15 -37.5 -15zM100 666h66v-606h248v-60h-314v666z" />
    <glyph glyph-name="ldot" unicode="&#x140;" horiz-adv-x="315" 
d="M272 279c-14.667 0 -27.167 5 -37.5 15s-15.5 22.333 -15.5 37s5.16699 27.167 15.5 37.5s22.833 15.5 37.5 15.5s27.167 -5.16699 37.5 -15.5s15.5 -22.833 15.5 -37.5s-5.16699 -27 -15.5 -37s-22.833 -15 -37.5 -15zM156 0h-66v700h66v-700z" />
    <glyph glyph-name="Lslash" unicode="&#x141;" horiz-adv-x="419" 
d="M21 304v51l250 75v-52zM100 666h66v-606h248v-60h-314v666z" />
    <glyph glyph-name="lslash" unicode="&#x142;" horiz-adv-x="246" 
d="M-2 304v51l250 75v-52zM156 0h-66v700h66v-700z" />
    <glyph glyph-name="Nacute" unicode="&#x143;" horiz-adv-x="639" 
d="M363 901h87l-92 -167h-49zM473 67v599h66v-666h-100l-273 599v-599h-66v666h100z" />
    <glyph glyph-name="nacute" unicode="&#x144;" horiz-adv-x="546" 
d="M296 751h87l-92 -167h-49zM466 0h-66v344c0 72.667 -34.333 109 -103 109c-61.333 0 -108.333 -27.333 -141 -82v-371h-66v500h61v-55c40 45.333 88.667 68 146 68c55.333 0 97.333 -14.5 126 -43.5s43 -70.833 43 -125.5v-344z" />
    <glyph glyph-name="Ncommaaccent" unicode="&#x145;" horiz-adv-x="639" 
d="M200 666h-100v-666h66v599l273 -599h100v666h-66v-599zM303 -45h87l-92 -167h-49z" />
    <glyph glyph-name="ncommaaccent" unicode="&#x146;" horiz-adv-x="546" 
d="M466 344c0 54.667 -14.333 96.5 -43 125.5s-70.667 43.5 -126 43.5c-57.333 0 -106 -22.667 -146 -68v55h-61v-500h66v371c32.667 54.667 79.667 82 141 82c68.667 0 103 -36.333 103 -109v-344h66v344zM256 -45h87l-92 -167h-49z" />
    <glyph glyph-name="Ncaron" unicode="&#x147;" horiz-adv-x="639" 
d="M200 666h-100v-666h66v599l273 -599h100v666h-66v-599zM189 901h49l81 -111l81 111h49l-89 -167h-82z" />
    <glyph glyph-name="ncaron" unicode="&#x148;" horiz-adv-x="546" 
d="M466 344c0 54.667 -14.333 96.5 -43 125.5s-70.667 43.5 -126 43.5c-57.333 0 -106 -22.667 -146 -68v55h-61v-500h66v371c32.667 54.667 79.667 82 141 82c68.667 0 103 -36.333 103 -109v-344h66v344zM158 751h49l81 -111l81 111h49l-89 -167h-82z" />
    <glyph glyph-name="Omacron" unicode="&#x14c;" horiz-adv-x="635" 
d="M128 333c0 88.667 16.833 158.167 50.5 208.5s79.834 75.5 138.501 75.5c59.333 0 105.833 -25.167 139.5 -75.5s50.5 -119.833 50.5 -208.5s-16.833 -158.167 -50.5 -208.5s-80.167 -75.5 -139.5 -75.5c-58.667 0 -104.834 25.167 -138.501 75.5
s-50.5 119.833 -50.5 208.5zM60 333c0 -108 22.833 -192.667 68.5 -254s108.5 -92 188.5 -92c80.667 0 143.834 30.667 189.501 92s68.5 146 68.5 254s-22.833 192.667 -68.5 254s-108.834 92 -189.501 92c-80 0 -142.833 -30.667 -188.5 -92s-68.5 -146 -68.5 -254z
M451 784h-267v58h267v-58z" />
    <glyph glyph-name="omacron" unicode="&#x14d;" horiz-adv-x="512" 
d="M116 250c0 63.333 12.333 113 37 149s58.667 54 102 54c44 0 78.5 -18 103.5 -54s37.5 -85.667 37.5 -149s-12.5 -113 -37.5 -149s-59.5 -54 -103.5 -54c-43.333 0 -77.333 18 -102 54s-37 85.667 -37 149zM50 250c0 -82 18.167 -146.333 54.5 -193s86.5 -70 150.5 -70
c64.667 0 115.334 23.333 152.001 70s55 111 55 193s-18.333 146.333 -55 193s-87.334 70 -152.001 70c-64 0 -114.167 -23.333 -150.5 -70s-54.5 -111 -54.5 -193zM389 634h-267v58h267v-58z" />
    <glyph glyph-name="Ohungarumlaut" unicode="&#x150;" horiz-adv-x="635" 
d="M128 333c0 88.667 16.833 158.167 50.5 208.5s79.834 75.5 138.501 75.5c59.333 0 105.833 -25.167 139.5 -75.5s50.5 -119.833 50.5 -208.5s-16.833 -158.167 -50.5 -208.5s-80.167 -75.5 -139.5 -75.5c-58.667 0 -104.834 25.167 -138.501 75.5
s-50.5 119.833 -50.5 208.5zM60 333c0 -108 22.833 -192.667 68.5 -254s108.5 -92 188.5 -92c80.667 0 143.834 30.667 189.501 92s68.5 146 68.5 254s-22.833 192.667 -68.5 254s-108.834 92 -189.501 92c-80 0 -142.833 -30.667 -188.5 -92s-68.5 -146 -68.5 -254z
M411 901h87l-92 -167h-49zM270 901h87l-92 -167h-49z" />
    <glyph glyph-name="ohungarumlaut" unicode="&#x151;" horiz-adv-x="512" 
d="M116 250c0 63.333 12.333 113 37 149s58.667 54 102 54c44 0 78.5 -18 103.5 -54s37.5 -85.667 37.5 -149s-12.5 -113 -37.5 -149s-59.5 -54 -103.5 -54c-43.333 0 -77.333 18 -102 54s-37 85.667 -37 149zM50 250c0 -82 18.167 -146.333 54.5 -193s86.5 -70 150.5 -70
c64.667 0 115.334 23.333 152.001 70s55 111 55 193s-18.333 146.333 -55 193s-87.334 70 -152.001 70c-64 0 -114.167 -23.333 -150.5 -70s-54.5 -111 -54.5 -193zM350 751h87l-92 -167h-49zM209 751h87l-92 -167h-49z" />
    <glyph glyph-name="OE" unicode="&#x152;" horiz-adv-x="855" 
d="M128 333c0 88.667 16.833 158.167 50.5 208.5s79.834 75.5 138.501 75.5c59.333 0 105.833 -25.167 139.5 -75.5s50.5 -119.833 50.5 -208.5s-16.833 -158.167 -50.5 -208.5s-80.167 -75.5 -139.5 -75.5c-58.667 0 -104.834 25.167 -138.501 75.5
s-50.5 119.833 -50.5 208.5zM60 333c0 -108 22.8311 -192.667 68.498 -254s108.5 -92 188.5 -92c30 0 58 4.33301 84 13h404v60h-314c5.33301 6 10.666 12.333 15.999 19c42.667 58 65.334 137 68.001 237h199v60h-200c-5.33301 88 -27.666 158.333 -66.999 211
c-5.33301 6.66699 -10.666 13 -15.999 19h304v60h-394c-26 8.66699 -54 13 -84 13c-80 0 -142.833 -30.667 -188.5 -92s-68.5 -146 -68.5 -254z" />
    <glyph glyph-name="oe" unicode="&#x153;" horiz-adv-x="854" 
d="M601 -13c-62.667 0 -112.502 23.832 -149.502 71.499s-55.5 111.5 -55.5 191.5s18.5 143.833 55.5 191.5s86.833 71.5 149.5 71.5c60.667 0 108.834 -22 144.501 -66s53.5 -102.667 53.5 -176v-38h-337c2.66699 -57.333 16.334 -102.666 41.001 -135.999
s57.334 -50 98.001 -50c54 0 96 22.667 126 68l53 -35c-42.667 -62 -102.334 -93 -179.001 -93zM600.998 452.999c-37.333 0 -68.167 -14.167 -92.5 -42.5s-39.166 -67.5 -44.499 -117.5h268c-3.33301 49.333 -16.833 88.333 -40.5 117s-53.834 43 -90.501 43z
M49.9971 249.999c0 82 18.167 146.333 54.5 193s86.5 70 150.5 70c64.667 0 115.334 -23.333 152.001 -70s55 -111 55 -193s-18.333 -146.333 -55 -193s-87.334 -70 -152.001 -70c-64 0 -114.167 23.333 -150.5 70s-54.5 111 -54.5 193zM115.997 249.999
c0 -63.333 12.333 -113 37 -149s58.667 -54 102 -54c44 0 78.5 18 103.5 54s37.5 85.667 37.5 149s-12.5 113 -37.5 149s-59.5 54 -103.5 54c-43.333 0 -77.333 -18 -102 -54s-37 -85.667 -37 -149z" />
    <glyph glyph-name="Racute" unicode="&#x154;" horiz-adv-x="545" 
d="M286 901h87l-92 -167h-49zM100 0v666h66h101c68 0 122.167 -18 162.5 -54s60.5 -84 60.5 -144c0 -46 -12.167 -85.333 -36.5 -118s-58.5 -55.667 -102.5 -69l159 -281h-73l-152 270h-18h-101v-270h-66zM166 606v-276h101c47.333 0 85 12.5 113 37.5s42 58.5 42 100.5
s-14 75.5 -42 100.5s-65.667 37.5 -113 37.5h-101z" />
    <glyph glyph-name="racute" unicode="&#x155;" horiz-adv-x="331" 
d="M331 510c-10.667 2 -23.667 3 -39 3c-56 0 -103 -27.667 -141 -83v70h-61v-500h66v345c28.667 68.667 73.667 103 135 103l29 -3zM229 751h87l-92 -167h-49z" />
    <glyph glyph-name="Rcommaaccent" unicode="&#x156;" horiz-adv-x="545" 
d="M258 -45h87l-92 -167h-49zM100 0v666h66h101c68 0 122.167 -18 162.5 -54s60.5 -84 60.5 -144c0 -46 -12.167 -85.333 -36.5 -118s-58.5 -55.667 -102.5 -69l159 -281h-73l-152 270h-18h-101v-270h-66zM166 606v-276h101c47.333 0 85 12.5 113 37.5s42 58.5 42 100.5
s-14 75.5 -42 100.5s-65.667 37.5 -113 37.5h-101z" />
    <glyph glyph-name="rcommaaccent" unicode="&#x157;" horiz-adv-x="331" 
d="M86 -45h87l-92 -167h-49zM320 445l-29 3c-61.333 0 -106.333 -34.333 -135 -103v-345h-66v500h61v-70c38 55.333 85 83 141 83c14.667 0 27.667 -1 39 -3z" />
    <glyph glyph-name="Rcaron" unicode="&#x158;" horiz-adv-x="545" 
d="M142 901h49l81 -111l81 111h49l-89 -167h-82zM100 0v666h66h101c68 0 122.167 -18 162.5 -54s60.5 -84 60.5 -144c0 -46 -12.167 -85.333 -36.5 -118s-58.5 -55.667 -102.5 -69l159 -281h-73l-152 270h-18h-101v-270h-66zM166 606v-276h101c47.333 0 85 12.5 113 37.5
s42 58.5 42 100.5s-14 75.5 -42 100.5s-65.667 37.5 -113 37.5h-101z" />
    <glyph glyph-name="rcaron" unicode="&#x159;" horiz-adv-x="331" 
d="M85 751h49l81 -111l81 111h49l-89 -167h-82zM320 445l-29 3c-61.333 0 -106.333 -34.333 -135 -103v-345h-66v500h61v-70c38 55.333 85 83 141 83c14.667 0 27.667 -1 39 -3z" />
    <glyph glyph-name="Sacute" unicode="&#x15a;" horiz-adv-x="518" 
d="M400 157c0 -33.333 -12.8301 -59.998 -38.4971 -79.998s-59.834 -30 -102.501 -30c-69.333 0 -122 30.333 -158 91l-51 -36c47.333 -76.667 117 -115 209 -115c63.333 0 114 15.333 152 46s57 72 57 124c0 44 -11.5 80.5 -34.5 109.5s-50.833 50.833 -83.5 65.5
s-65.334 28.334 -98.001 41.001s-60.5 29 -83.5 49s-34.5 45.333 -34.5 76c0 36.667 11.833 66 35.5 88s55.167 33 94.5 33c60.667 0 108 -24.333 142 -73l51 36c-46 64.667 -110.333 97 -193 97c-60.667 0 -108.834 -16.333 -144.501 -49s-53.5 -76.667 -53.5 -132
c0 -40.667 11.5 -74.834 34.5 -102.501s50.833 -48.834 83.5 -63.501l98 -42.5c32.667 -13.667 60.5 -31.334 83.5 -53.001s34.5 -48.167 34.5 -79.5zM292.003 901.002h87l-92 -167h-49z" />
    <glyph glyph-name="sacute" unicode="&#x15b;" horiz-adv-x="428" 
d="M317 120c0 -22 -9.16797 -39.6689 -27.501 -53.002s-42.833 -20 -73.5 -20c-51.333 0 -91.666 23 -120.999 69l-50 -34c42 -63.333 99 -95 171 -95c50.667 0 91.167 12 121.5 36s45.5 56.333 45.5 97c0 33.333 -8.83301 61.166 -26.5 83.499s-39.167 39 -64.5 50
s-50.833 21 -76.5 30s-47.334 20.5 -65.001 34.5s-26.5 31.667 -26.5 53c0 25.333 8.66699 45.333 26 60s40.666 22 69.999 22c46 0 82.333 -18.667 109 -56l50 34c-39.333 54.667 -92.333 82 -159 82c-49.333 0 -88.666 -12.833 -117.999 -38.5s-44 -60.167 -44 -103.5
c0 -31.333 8.83301 -57.666 26.5 -78.999s39.334 -37.666 65.001 -48.999s51.167 -21.666 76.5 -30.999s46.833 -21.5 64.5 -36.5s26.5 -33.5 26.5 -55.5zM246.999 750.998h87l-92 -167h-49z" />
    <glyph glyph-name="Scedilla" unicode="&#x15e;" horiz-adv-x="518" 
d="M400 157c0 -33.333 -12.8311 -59.998 -38.498 -79.998s-59.834 -30 -102.501 -30c-69.333 0 -122 30.333 -158 91l-51 -36c44 -71.333 107.667 -109.333 191 -114l-17 -76c43.333 -7.33301 65 -22 65 -44c0 -18 -10.667 -27 -32 -27c-22.667 0 -43.667 10.667 -63 32
l-25 -40c21.333 -28 51.333 -42 90 -42c24.667 0 45.834 7.83301 63.501 23.5s26.5 34.5 26.5 56.5c0 17.333 -7 33 -21 47s-31.667 22.333 -53 25l10 45c51.333 4 93.333 19 126 45c38 30.667 57 72 57 124c0 44 -11.5 80.5 -34.5 109.5s-50.833 50.833 -83.5 65.5
s-65.334 28.334 -98.001 41.001s-60.5 29 -83.5 49s-34.5 45.333 -34.5 76c0 36.667 11.833 66 35.5 88s55.167 33 94.5 33c60.667 0 108 -24.333 142 -73l51 36c-46 64.667 -110.333 97 -193 97c-60.667 0 -108.834 -16.333 -144.501 -49s-53.5 -76.667 -53.5 -132
c0 -40.667 11.5 -74.834 34.5 -102.501s50.833 -48.834 83.5 -63.501l98 -42.5c32.667 -13.667 60.5 -31.334 83.5 -53.001s34.5 -48.167 34.5 -79.5z" />
    <glyph glyph-name="scedilla" unicode="&#x15f;" horiz-adv-x="428" 
d="M317 120c0 -22 -9.16895 -39.6689 -27.502 -53.002s-42.833 -20 -73.5 -20c-51.333 0 -91.666 23 -120.999 69l-50 -34c36.667 -54.667 84.334 -85.667 143.001 -93l-17 -77c43.333 -7.33301 65 -22 65 -44c0 -18 -10.667 -27 -32 -27c-22.667 0 -43.667 10.667 -63 32
l-25 -40c21.333 -28 51.333 -42 90 -42c24.667 0 45.834 7.83301 63.501 23.5s26.5 34.5 26.5 56.5c0 17.333 -7 33 -21 47s-31.667 22.333 -53 25l10 44c43.333 2.66699 78.666 14.667 105.999 36c30 24 45 56.333 45 97c0 33.333 -8.83301 61.166 -26.5 83.499
s-39.167 39 -64.5 50s-50.833 21 -76.5 30s-47.334 20.5 -65.001 34.5s-26.5 31.667 -26.5 53c0 25.333 8.66699 45.333 26 60s40.666 22 69.999 22c46 0 82.333 -18.667 109 -56l50 34c-39.333 54.667 -92.333 82 -159 82c-49.333 0 -88.666 -12.833 -117.999 -38.5
s-44 -60.167 -44 -103.5c0 -31.333 8.83301 -57.666 26.5 -78.999s39.334 -37.666 65.001 -48.999s51.167 -21.666 76.5 -30.999s46.833 -21.5 64.5 -36.5s26.5 -33.5 26.5 -55.5z" />
    <glyph glyph-name="Scaron" unicode="&#x160;" horiz-adv-x="518" 
d="M134 901h49l81 -111l81 111h49l-89 -167h-82zM400 157c0 31.333 -11.5029 57.8311 -34.5029 79.498s-50.833 39.334 -83.5 53.001l-98 42.5c-32.667 14.667 -60.5 35.834 -83.5 63.501s-34.5 61.834 -34.5 102.501c0 55.333 17.833 99.333 53.5 132s83.834 49 144.501 49
c82.667 0 147 -32.333 193 -97l-51 -36c-34 48.667 -81.333 73 -142 73c-39.333 0 -70.833 -11 -94.5 -33s-35.5 -51.333 -35.5 -88c0 -30.667 11.5 -56 34.5 -76s50.833 -36.333 83.5 -49s65.334 -26.334 98.001 -41.001s60.5 -36.5 83.5 -65.5s34.5 -65.5 34.5 -109.5
c0 -52 -19 -93.333 -57 -124s-88.667 -46 -152 -46c-92 0 -161.667 38.333 -209 115l51 36c36 -60.667 88.667 -91 158 -91c42.667 0 76.834 10 102.501 30s38.5 46.667 38.5 80z" />
    <glyph glyph-name="scaron" unicode="&#x161;" horiz-adv-x="428" 
d="M94 751h49l81 -111l81 111h49l-89 -167h-82zM317 120c0 22 -8.83203 40.502 -26.499 55.502s-39.167 27.167 -64.5 36.5s-50.833 19.666 -76.5 30.999s-47.334 27.666 -65.001 48.999s-26.5 47.666 -26.5 78.999c0 43.333 14.667 77.833 44 103.5
s68.666 38.5 117.999 38.5c66.667 0 119.667 -27.333 159 -82l-50 -34c-26.667 37.333 -63 56 -109 56c-29.333 0 -52.666 -7.33301 -69.999 -22s-26 -34.667 -26 -60c0 -21.333 8.83301 -39 26.5 -53s39.334 -25.5 65.001 -34.5s51.167 -19 76.5 -30
s46.833 -27.667 64.5 -50s26.5 -50.166 26.5 -83.499c0 -40.667 -15.167 -73 -45.5 -97s-70.833 -36 -121.5 -36c-72 0 -129 31.667 -171 95l50 34c29.333 -46 69.666 -69 120.999 -69c30.667 0 55.167 6.66699 73.5 20s27.5 31 27.5 53z" />
    <glyph glyph-name="Tcommaaccent" unicode="&#x162;" horiz-adv-x="407" 
d="M397 666h-387.001v-60h160v-606h11l-20 -88c43.333 -7.33301 65 -22 65 -44c0 -18 -10.667 -27 -32 -27c-22.667 0 -43.667 10.667 -63 32l-25 -40c21.333 -28 51.333 -42 90 -42c24.667 0 45.834 7.83301 63.501 23.5s26.5 34.5 26.5 56.5c0 17.333 -7 33 -21 47
s-31.667 22.333 -53 25l13 57h11v606h161v60z" />
    <glyph glyph-name="tcommaaccent" unicode="&#x163;" horiz-adv-x="321" 
d="M35 440l67.998 0.000976562v-330c0 -38 10.667 -68 32 -90c12 -12.667 26.667 -21.667 44 -27l-18 -81c43.333 -7.33301 65 -22 65 -44c0 -18 -10.667 -27 -32 -27c-22.667 0 -43.667 10.667 -63 32l-25 -40c21.333 -28 51.333 -42 90 -42
c24.667 0 45.834 7.83301 63.501 23.5s26.5 34.5 26.5 56.5c0 17.333 -7 33 -21 47s-31.667 22.333 -53 25l10 44v0c46.667 0 83 18.667 109 56l-42 36c-17.333 -21.333 -39.666 -32 -66.999 -32c-16 0 -28.833 5.66699 -38.5 17s-14.5 26.666 -14.5 45.999v330h128v60h-128
v100h-66v-100h-68v-60z" />
    <glyph glyph-name="Tcaron" unicode="&#x164;" horiz-adv-x="407" 
d="M397 666h-387v-60h160v-606h66v606h161v60zM73 901h49l81 -111l81 111h49l-89 -167h-82z" />
    <glyph glyph-name="tcaron" unicode="&#x165;" horiz-adv-x="321" 
d="M35 440l67.999 0.000976562v-330c0 -38 10.667 -68 32 -90s50.333 -33 87 -33c46.667 0 83 18.667 109 56l-42 36c-17.333 -21.333 -39.666 -32 -66.999 -32c-16 0 -28.833 5.66699 -38.5 17s-14.5 26.666 -14.5 45.999v330h128v60h-128v100h-66v-100h-68v-60z
M282.999 730.001h87l-92 -167h-49z" />
    <glyph glyph-name="Umacron" unicode="&#x16a;" horiz-adv-x="614" 
d="M307 49c-47.333 0 -85.166 15.167 -113.499 45.5s-42.5 70.833 -42.5 121.5v450h-66v-450c0 -70 20.167 -125.667 60.5 -167s94.166 -62 161.499 -62s121.166 20.667 161.499 62s60.5 97 60.5 167v450h-66v-450c0 -50.667 -14.167 -91.167 -42.5 -121.5
s-66.166 -45.5 -113.499 -45.5zM440 784h-267v58h267v-58z" />
    <glyph glyph-name="umacron" unicode="&#x16b;" horiz-adv-x="546" 
d="M80 156c0 -112.667 56.333 -169 169 -169c57.333 0 106 25 146 75v-62h61v500h-66v-357c-32.667 -64 -79.667 -96 -141 -96c-68.667 0 -103 36.333 -103 109v344h-66v-344zM406 634h-267v58h267v-58z" />
    <glyph glyph-name="Uring" unicode="&#x16e;" horiz-adv-x="614" 
d="M307 49c-47.333 0 -85.166 15.167 -113.499 45.5s-42.5 70.833 -42.5 121.5v450h-66v-450c0 -70 20.167 -125.667 60.5 -167s94.166 -62 161.499 -62s121.166 20.667 161.499 62s60.5 97 60.5 167v450h-66v-450c0 -50.667 -14.167 -91.167 -42.5 -121.5
s-66.166 -45.5 -113.499 -45.5zM307 761c-14.667 0 -27.167 5 -37.5 15s-15.5 22.333 -15.5 37s5.16699 27.167 15.5 37.5s22.833 15.5 37.5 15.5s27.167 -5.16699 37.5 -15.5s15.5 -22.833 15.5 -37.5s-5.16699 -27 -15.5 -37s-22.833 -15 -37.5 -15zM307 718
c26.667 0 49.5 9.33301 68.5 28s28.5 41 28.5 67s-9.5 48.5 -28.5 67.5s-41.833 28.5 -68.5 28.5s-49.5 -9.5 -68.5 -28.5s-28.5 -41.5 -28.5 -67.5s9.5 -48.333 28.5 -67s41.833 -28 68.5 -28z" />
    <glyph glyph-name="uring" unicode="&#x16f;" horiz-adv-x="546" 
d="M80 156c0 -112.667 56.333 -169 169 -169c57.333 0 106 25 146 75v-62h61v500h-66v-357c-32.667 -64 -79.667 -96 -141 -96c-68.667 0 -103 36.333 -103 109v344h-66v-344zM273 611c-14.667 0 -27.167 5 -37.5 15s-15.5 22.333 -15.5 37s5.16699 27.167 15.5 37.5
s22.833 15.5 37.5 15.5s27.167 -5.16699 37.5 -15.5s15.5 -22.833 15.5 -37.5s-5.16699 -27 -15.5 -37s-22.833 -15 -37.5 -15zM273 568c26.667 0 49.5 9.33301 68.5 28s28.5 41 28.5 67s-9.5 48.5 -28.5 67.5s-41.833 28.5 -68.5 28.5s-49.5 -9.5 -68.5 -28.5
s-28.5 -41.5 -28.5 -67.5s9.5 -48.333 28.5 -67s41.833 -28 68.5 -28z" />
    <glyph glyph-name="Uhungarumlaut" unicode="&#x170;" horiz-adv-x="614" 
d="M307 49c-47.333 0 -85.166 15.167 -113.499 45.5s-42.5 70.833 -42.5 121.5v450h-66v-450c0 -70 20.167 -125.667 60.5 -167s94.166 -62 161.499 -62s121.166 20.667 161.499 62s60.5 97 60.5 167v450h-66v-450c0 -50.667 -14.167 -91.167 -42.5 -121.5
s-66.166 -45.5 -113.499 -45.5zM401 901h87l-92 -167h-49zM260 901h87l-92 -167h-49z" />
    <glyph glyph-name="uhungarumlaut" unicode="&#x171;" horiz-adv-x="546" 
d="M80 156c0 -112.667 56.333 -169 169 -169c57.333 0 106 25 146 75v-62h61v500h-66v-357c-32.667 -64 -79.667 -96 -141 -96c-68.667 0 -103 36.333 -103 109v344h-66v-344zM367 751h87l-92 -167h-49zM226 751h87l-92 -167h-49z" />
    <glyph glyph-name="Uogonek" unicode="&#x172;" horiz-adv-x="614" 
d="M307 49c-47.333 0 -85.168 15.167 -113.501 45.5s-42.5 70.833 -42.5 121.5v450h-66v-450c0 -70 20.333 -125.667 61 -167c36.667 -38 85 -58.667 145 -62c-3.33301 -2 -6.33301 -4.33301 -9 -7c-27.333 -20.667 -41 -48.334 -41 -83.001
c0 -28.667 9.16699 -51.167 27.5 -67.5s43.166 -24.5 74.499 -24.5c46.667 0 83.334 16.667 110.001 50l-24 44c-22 -29.333 -49.667 -44 -83 -44c-15.333 0 -27.333 4.83301 -36 14.5s-13 21.5 -13 35.5c0 20.667 7.66699 40.334 23 59.001c10.667 12 24.667 21.333 42 28
c42 8.66699 77.333 27.667 106 57c40.667 41.333 61 97 61 167v450h-66v-450c0 -50.667 -14.167 -91.167 -42.5 -121.5s-66.166 -45.5 -113.499 -45.5z" />
    <glyph glyph-name="uogonek" unicode="&#x173;" horiz-adv-x="546" 
d="M80 156c0 -112.667 56.333 -168.998 169 -168.998c57.333 0 106 25 146 75v-60c-17.333 -6.66699 -33 -15.334 -47 -26.001c-26.667 -20.667 -40 -48.334 -40 -83.001c0 -28.667 9.16699 -51.167 27.5 -67.5s43.166 -24.5 74.499 -24.5
c46.667 0 83.334 16.667 110.001 50l-24 44c-22 -29.333 -49.667 -44 -83 -44c-15.333 0 -27.333 4.83301 -36 14.5s-13 21.5 -13 35.5c0 20.667 7.83301 40.167 23.5 58.5s38.5 30.5 68.5 36.5v4v18v482h-66v-357c-32.667 -64 -79.667 -96 -141 -96
c-68.667 0 -103 36.333 -103 109v344h-66v-344z" />
    <glyph glyph-name="Ydieresis" unicode="&#x178;" horiz-adv-x="449" 
d="M78 813c0 12.667 4.5 23.5 13.5 32.5s19.833 13.5 32.5 13.5s23.5 -4.5 32.5 -13.5s13.5 -19.833 13.5 -32.5s-4.5 -23.334 -13.5 -32.001s-19.833 -13 -32.5 -13s-23.5 4.33301 -32.5 13s-13.5 19.334 -13.5 32.001zM278 813c0 12.667 4.5 23.5 13.5 32.5
s19.833 13.5 32.5 13.5s23.5 -4.5 32.5 -13.5s13.5 -19.833 13.5 -32.5s-4.5 -23.334 -13.5 -32.001s-19.833 -13 -32.5 -13s-23.5 4.33301 -32.5 13s-13.5 19.334 -13.5 32.001zM192 0v247l-187 419h69l150 -343l151 343h69l-186 -416v-250h-66z" />
    <glyph glyph-name="Zacute" unicode="&#x179;" horiz-adv-x="505" 
d="M463 666h-398v-60h313l-333 -566v-40h407v60h-322l333 566v40zM286 901h87l-92 -167h-49z" />
    <glyph glyph-name="zacute" unicode="&#x17a;" horiz-adv-x="428" 
d="M393 500h-338v-60h248l-268 -400v-40h347v60h-258l269 400v40zM242 751h87l-92 -167h-49z" />
    <glyph glyph-name="Zdotaccent" unicode="&#x17b;" horiz-adv-x="505" 
d="M463 666h-398v-60h313l-333 -566v-40h407v60h-322l333 566v40zM272 761c14.667 0 27.167 5 37.5 15s15.5 22.333 15.5 37s-5.16699 27.167 -15.5 37.5s-22.833 15.5 -37.5 15.5s-27.167 -5.16699 -37.5 -15.5s-15.5 -22.833 -15.5 -37.5s5.16699 -27 15.5 -37
s22.833 -15 37.5 -15z" />
    <glyph glyph-name="zdotaccent" unicode="&#x17c;" horiz-adv-x="428" 
d="M393 500h-338v-60h248l-268 -400v-40h347v60h-258l269 400v40zM234 611c14.667 0 27.167 5 37.5 15s15.5 22.333 15.5 37s-5.16699 27.167 -15.5 37.5s-22.833 15.5 -37.5 15.5s-27.167 -5.16699 -37.5 -15.5s-15.5 -22.833 -15.5 -37.5s5.16699 -27 15.5 -37
s22.833 -15 37.5 -15z" />
    <glyph glyph-name="Zcaron" unicode="&#x17d;" horiz-adv-x="505" 
d="M142 901h49l81 -111l81 111h49l-89 -167h-82zM463 626l-333 -566h322v-60h-407v40l333 566h-313v60h398v-40z" />
    <glyph glyph-name="zcaron" unicode="&#x17e;" horiz-adv-x="428" 
d="M104 751h49l81 -111l81 111h49l-89 -167h-82zM393 459l-269 -399h258v-60h-347v40l268 399h-248v60h338v-40z" />
    <glyph glyph-name="florin" unicode="&#x192;" horiz-adv-x="575" 
d="M378 617c-62.667 0 -94 -37.666 -94 -112.999v-151h187v-50h-187v-397c0 -38 -10.667 -68 -32 -90s-50.333 -33 -87 -33c-47.333 0 -83.666 18.667 -108.999 56l42 36c17.333 -21.333 39.666 -32 66.999 -32c16 0 28.833 5.66699 38.5 17s14.5 26.666 14.5 45.999v397
h-103v50h103v151c0 54.667 13.667 97.5 41 128.5s67 46.5 119 46.5c66 0 120 -23 162 -69l-45 -44c-30.667 34 -69.667 51 -117 51z" />
    <glyph glyph-name="Scommaaccent" unicode="&#x218;" horiz-adv-x="518" 
d="M400 157c0 -33.333 -12.8301 -59.998 -38.4971 -79.998s-59.834 -30 -102.501 -30c-69.333 0 -122 30.333 -158 91l-51 -36c47.333 -76.667 117 -115 209 -115c63.333 0 114 15.333 152 46s57 72 57 124c0 44 -11.5 80.5 -34.5 109.5s-50.833 50.833 -83.5 65.5
s-65.334 28.334 -98.001 41.001s-60.5 29 -83.5 49s-34.5 45.333 -34.5 76c0 36.667 11.833 66 35.5 88s55.167 33 94.5 33c60.667 0 108 -24.333 142 -73l51 36c-46 64.667 -110.333 97 -193 97c-60.667 0 -108.834 -16.333 -144.501 -49s-53.5 -76.667 -53.5 -132
c0 -40.667 11.5 -74.834 34.5 -102.501s50.833 -48.834 83.5 -63.501l98 -42.5c32.667 -13.667 60.5 -31.334 83.5 -53.001s34.5 -48.167 34.5 -79.5zM223.003 -44.998h87l-92 -167h-49z" />
    <glyph glyph-name="scommaaccent" unicode="&#x219;" horiz-adv-x="428" 
d="M317 120c0 -22 -9.16797 -39.6689 -27.501 -53.002s-42.833 -20 -73.5 -20c-51.333 0 -91.666 23 -120.999 69l-50 -34c42 -63.333 99 -95 171 -95c50.667 0 91.167 12 121.5 36s45.5 56.333 45.5 97c0 33.333 -8.83301 61.166 -26.5 83.499s-39.167 39 -64.5 50
s-50.833 21 -76.5 30s-47.334 20.5 -65.001 34.5s-26.5 31.667 -26.5 53c0 25.333 8.66699 45.333 26 60s40.666 22 69.999 22c46 0 82.333 -18.667 109 -56l50 34c-39.333 54.667 -92.333 82 -159 82c-49.333 0 -88.666 -12.833 -117.999 -38.5s-44 -60.167 -44 -103.5
c0 -31.333 8.83301 -57.666 26.5 -78.999s39.334 -37.666 65.001 -48.999s51.167 -21.666 76.5 -30.999s46.833 -21.5 64.5 -36.5s26.5 -33.5 26.5 -55.5zM182.999 -45.002h87l-92 -167h-49z" />
    <glyph glyph-name="uni021A" unicode="&#x21a;" horiz-adv-x="407" 
d="M397 666h-387v-60h160v-606h66v606h161v60zM159 -45h87l-92 -167h-49z" />
    <glyph glyph-name="uni021B" unicode="&#x21b;" horiz-adv-x="321" 
d="M35 440l67.999 0.000976562v-330c0 -38 10.667 -68 32 -90s50.333 -33 87 -33c46.667 0 83 18.667 109 56l-42 36c-17.333 -21.333 -39.666 -32 -66.999 -32c-16 0 -28.833 5.66699 -38.5 17s-14.5 26.666 -14.5 45.999v330h128v60h-128v100h-66v-100h-68v-60z
M158.999 -44.999h87l-92 -167h-49z" />
    <glyph glyph-name="uni0237" unicode="&#x237;" horiz-adv-x="246" 
d="M156 -94c0 -38 -10.667 -67.999 -32 -89.999s-50.333 -33 -87 -33c-47.333 0 -83.666 18.667 -108.999 56l42 36c17.333 -21.333 39.666 -32 66.999 -32c16 0 28.833 5.66699 38.5 17s14.5 26.666 14.5 45.999v594h66v-594z" />
    <glyph glyph-name="afii57929" unicode="&#x2bc;" horiz-adv-x="314" 
d="M218 771c0 -21.333 -1 -40.668 -3 -58.001s-5 -33.5 -9 -48.5s-8.83301 -29 -14.5 -42s-12.5 -26.167 -20.5 -39.5h-74c18 26 32 52.333 42 79s15 52.334 15 77.001h-53v119h117v-87z" />
    <glyph glyph-name="circumflex" unicode="&#x2c6;" horiz-adv-x="392" 
d="M326 584h-49l-81 111l-81 -111h-49l89 167h82z" />
    <glyph glyph-name="caron" unicode="&#x2c7;" horiz-adv-x="392" 
d="M66 751h49l81 -111l81 111h49l-89 -167h-82z" />
    <glyph glyph-name="breve" unicode="&#x2d8;" horiz-adv-x="366" 
d="M183 638c43.333 0 70.667 25.667 82 77h51c-2 -41.333 -15 -74.5 -39 -99.5s-55.333 -37.5 -94 -37.5s-70 12.5 -94 37.5s-37 58.167 -39 99.5h51c10 -51.333 37.333 -77 82 -77z" />
    <glyph glyph-name="dotaccent" unicode="&#x2d9;" horiz-adv-x="246" 
d="M123 611c-14.667 0 -27.167 5 -37.5 15s-15.5 22.333 -15.5 37s5.16699 27.167 15.5 37.5s22.833 15.5 37.5 15.5s27.167 -5.16699 37.5 -15.5s15.5 -22.833 15.5 -37.5s-5.16699 -27 -15.5 -37s-22.833 -15 -37.5 -15z" />
    <glyph glyph-name="ring" unicode="&#x2da;" horiz-adv-x="254" 
d="M127 568c-26.667 0 -49.5 9.33301 -68.5 28s-28.5 41 -28.5 67s9.5 48.5 28.5 67.5s41.833 28.5 68.5 28.5s49.5 -9.5 68.5 -28.5s28.5 -41.5 28.5 -67.5s-9.5 -48.333 -28.5 -67s-41.833 -28 -68.5 -28zM127 611c14.667 0 27.167 5 37.5 15s15.5 22.333 15.5 37
s-5.16699 27.167 -15.5 37.5s-22.833 15.5 -37.5 15.5s-27.167 -5.16699 -37.5 -15.5s-15.5 -22.833 -15.5 -37.5s5.16699 -27 15.5 -37s22.833 -15 37.5 -15z" />
    <glyph glyph-name="ogonek" unicode="&#x2db;" horiz-adv-x="235" 
d="M246 -149c-26.667 -33.333 -63.334 -50 -110.001 -50c-31.333 0 -56.166 8.16699 -74.499 24.5s-27.5 38.833 -27.5 67.5c0 34.667 13.5 62.5 40.5 83.5s62.833 34.833 107.5 41.5v-22c-30 -6 -52.833 -18.167 -68.5 -36.5s-23.5 -37.833 -23.5 -58.5
c0 -14 4.33301 -25.833 13 -35.5s20.667 -14.5 36 -14.5c33.333 0 61 14.667 83 44z" />
    <glyph glyph-name="tilde" unicode="&#x2dc;" horiz-adv-x="357" 
d="M327 674c-24.667 -34 -57 -51 -97 -51c-17.333 0 -38.166 3.66699 -62.499 11s-41.166 11 -50.499 11c-23.333 0 -44.333 -8 -63 -24l-24 32c24 34 56 51 96 51c17.333 0 38.166 -3.66699 62.499 -11s41.166 -11 50.499 -11c24.667 0 46 8 64 24z" />
    <glyph glyph-name="hungarumlaut" unicode="&#x2dd;" horiz-adv-x="282" 
d="M124 751h87l-92 -167h-49zM265 751h87l-92 -167h-49z" />
    <glyph glyph-name="uni0964" unicode="&#x964;" horiz-adv-x="819" 
d="M136 -41v537h68v-537h-68z" />
    <glyph glyph-name="uni0965" unicode="&#x965;" horiz-adv-x="819" 
d="M136 -27v517h68v-517h-68zM313 -27v517h68v-517h-68z" />
    <glyph glyph-name="uni0C00" unicode="&#xc00;" 
d="M-267 808v87h86v-87h-86zM-221 662c-52 0 -98.001 17.5 -138.001 52.5s-65 79.5 -75 133.5h73c6.66699 -36 23.334 -66 50.001 -90s56.667 -36 90 -36c34 0 64.333 12 91 36s43 54 49 90h73c-9.33301 -54 -34 -98.5 -74 -133.5s-86.333 -52.5 -139 -52.5z" />
    <glyph glyph-name="U0C01" unicode="&#xc01;" horiz-adv-x="355" 
d="M314 95l20.002 -61.001c-12.667 -10.667 -27.167 -19 -43.5 -25s-33.5 -9 -51.5 -9c-56.667 0 -104.834 22.5 -144.501 67.5s-59.5 99.5 -59.5 163.5s19.833 118.5 59.5 163.5s87.834 67.5 144.501 67.5c19.333 0 37.166 -1.66699 53.499 -5s30.166 -8.33301 41.499 -15
l-20 -61c-16 6 -30.333 10.167 -43 12.5s-23.334 2.5 -32.001 0.5c-37.333 0 -69.333 -15.833 -96 -47.5s-40 -70.167 -40 -115.5c0 -44.667 13.333 -83 40 -115s58.667 -48 96 -48c14 0 27.333 2.33301 40 7s24.334 11.334 35.001 20.001v0z" />
    <glyph glyph-name="U0C02" unicode="&#xc02;" horiz-adv-x="540" 
d="M34 235c0 65.333 23 120.833 69 166.5s101.667 68.5 167 68.5c64.667 0 120.167 -22.833 166.5 -68.5s69.5 -101.167 69.5 -166.5c0 -64.667 -23.167 -120 -69.5 -166s-101.833 -69 -166.5 -69c-65.333 0 -121 23 -167 69s-69 101.333 -69 166v0zM99 235
c0 -46.667 16.667 -86.5 50 -119.5s73.666 -49.5 120.999 -49.5c46.667 0 86.5 16.5 119.5 49.5s49.5 72.833 49.5 119.5c0 47.333 -16.5 87.666 -49.5 120.999s-72.833 50 -119.5 50c-47.333 0 -87.666 -16.667 -120.999 -50s-50 -73.666 -50 -120.999v0z" />
    <glyph glyph-name="U0C03" unicode="&#xc03;" horiz-adv-x="293" 
d="M42 366c0 28.667 10.333 53.167 31 73.5s45.334 30.5 74.001 30.5s53.167 -10.167 73.5 -30.5s30.5 -44.833 30.5 -73.5c0 -29.333 -10.167 -54.166 -30.5 -74.499s-44.833 -30.5 -73.5 -30.5s-53.334 10.167 -74.001 30.5s-31 45.166 -31 74.499v0zM95 366
c0 -14.667 5.16699 -27 15.5 -37s22.5 -15 36.5 -15c14.667 0 27.167 5 37.5 15s15.5 22.333 15.5 37s-5.16699 27.167 -15.5 37.5s-22.833 15.5 -37.5 15.5c-14 0 -26.167 -5.16699 -36.5 -15.5s-15.5 -22.833 -15.5 -37.5v0zM42 105c0 28.667 10.333 53.334 31 74.001
s45.334 31 74.001 31s53.167 -10.333 73.5 -31s30.5 -45.334 30.5 -74.001s-10.167 -53.334 -30.5 -74.001s-44.833 -31 -73.5 -31s-53.334 10.333 -74.001 31s-31 45.334 -31 74.001v0zM95 105c0 -14.667 5.16699 -27.167 15.5 -37.5s22.5 -15.5 36.5 -15.5
c14.667 0 27.167 5.16699 37.5 15.5s15.5 22.833 15.5 37.5c0 14 -5.16699 26 -15.5 36s-22.833 15 -37.5 15c-14 0 -26.167 -5 -36.5 -15s-15.5 -22 -15.5 -36v0z" />
    <glyph glyph-name="U0C05" unicode="&#xc05;" horiz-adv-x="677" 
d="M142 366c0 -18.667 6.16699 -34.167 18.5 -46.5s27.5 -18.5 45.5 -18.5c18.667 0 34.334 6.16699 47.001 18.5s19 27.833 19 46.5c0 18 -6.33301 33.333 -19 46s-28.334 19 -47.001 19c-18 0 -33.167 -6.33301 -45.5 -19s-18.5 -28 -18.5 -46v0zM37 274
c0 58.667 16.499 108.334 49.499 149.001s72.833 61 119.5 61c32.667 0 60.667 -11.667 84 -35s35 -51 35 -83s-11.667 -59.5 -35 -82.5s-51.333 -34.5 -84 -34.5c-22 0 -41.833 6 -59.5 18s-28.834 27.333 -33.501 46h-4c-2 -5.33301 -3.66699 -11.166 -5 -17.499
s-2 -13.5 -2 -21.5c0 -62.667 21.333 -113 64 -151s100 -57 172 -57s129.5 20.167 172.5 60.5s64.5 94.166 64.5 161.499c0 39.333 -6.5 73 -19.5 101s-28.5 42 -46.5 42c-15.333 0 -28.166 -6.33301 -38.499 -19s-15.5 -28 -15.5 -46c0 -16 6 -31.333 18 -46
s28 -26.667 48 -36v-49h-210v53h91l35 -5l4 5c-12 9.33301 -21.167 20.833 -27.5 34.5s-9.5 28.167 -9.5 43.5c0 32 10.333 59.667 31 83s45.334 35 74.001 35c36 0 66.667 -19.167 92 -57.5s38 -84.5 38 -138.5c0 -86.667 -27.333 -156.334 -82 -209.001
s-127.667 -79 -219 -79c-90.667 0 -163.5 25 -218.5 75s-82.5 116.333 -82.5 199v0z" />
    <glyph glyph-name="U0C06" unicode="&#xc06;" horiz-adv-x="727" 
d="M140 366c0 -18.667 6.33301 -34.167 19 -46.5s28.334 -18.5 47.001 -18.5c18 0 33.167 6.16699 45.5 18.5s18.5 27.833 18.5 46.5c0 18 -6.16699 33.333 -18.5 46s-27.5 19 -45.5 19c-18.667 0 -34.334 -6.33301 -47.001 -19s-19 -28 -19 -46v0zM507 366
c0 -18.667 6.5 -34.167 19.5 -46.5s28.5 -18.5 46.5 -18.5c16 0 29.667 6.16699 41 18.5s17 27.833 17 46.5c0 18 -5.66699 33.333 -17 46s-25 19 -41 19c-18 0 -33.5 -6.33301 -46.5 -19s-19.5 -28 -19.5 -46v0zM35 274c0 58.667 16.666 108.334 49.999 149.001
s73.666 61 120.999 61c32 0 59.667 -11.667 83 -35s35 -51 35 -83s-11.667 -59.5 -35 -82.5s-51 -34.5 -83 -34.5c-22 0 -42 5.83301 -60 17.5s-30.333 27.167 -37 46.5h-4c-1.33301 -4 -2.33301 -9.16699 -3 -15.5s-1 -14.166 -1 -23.499c0 -62.667 23.833 -113 71.5 -151
s111.167 -57 190.5 -57c68.667 0 127 12.667 175 38s72 56 72 92c0 9.33301 -3.66699 18.666 -11 27.999s-17.333 17.666 -30 24.999h-259v52h132l38 -4l2 5c-8.66699 8 -15.5 17.333 -20.5 28s-7.5 22.667 -7.5 36c0 32 11.667 59.667 35 83s51.333 35 84 35
c32 0 59.5 -11.667 82.5 -35s34.5 -51 34.5 -83c0 -24 -5.5 -45.333 -16.5 -64s-25.5 -31.334 -43.5 -38.001v-4c14.667 -8.66699 26.334 -19.5 35.001 -32.5s13 -26.833 13 -41.5c0 -51.333 -30.667 -95.166 -92 -131.499s-135.666 -54.5 -222.999 -54.5
c-99.333 0 -178.833 25 -238.5 75s-89.5 116.333 -89.5 199v0z" />
    <glyph glyph-name="U0C07" unicode="&#xc07;" horiz-adv-x="623" 
d="M185 118c0 -14 9.00098 -26.167 27.001 -36.5s40 -15.5 66 -15.5c38.667 0 73 3.83301 103 11.5s53.333 18.5 70 32.5v4c-21.333 18 -46.833 31.833 -76.5 41.5s-61.834 14.5 -96.501 14.5c-26 0 -48 -5 -66 -15s-27 -22.333 -27 -37v0zM15.001 314
c0 47.333 15.332 87.498 45.999 120.498s68 49.5 112 49.5c23.333 0 44.666 -5 63.999 -15s34.333 -24 45 -42h6c10 18 24.5 32 43.5 42s39.833 15 62.5 15c50.667 0 94 -21.667 130 -65s54 -96 54 -158c0 -27.333 -4.83301 -53.833 -14.5 -79.5s-23.5 -49.167 -41.5 -70.5
c18.667 -22 32.834 -49.333 42.501 -82s14.5 -68.667 14.5 -108h-66c0 32.667 -2.66699 61 -8 85s-13 42 -23 54h-6c-22.667 -19.333 -51.167 -34.166 -85.5 -44.499s-71.833 -15.5 -112.5 -15.5c-44 0 -81.333 11.667 -112 35s-46 51 -46 83s15.333 59.5 46 82.5
s68 34.5 112 34.5c42 0 80.333 -6.83301 115 -20.5s62.334 -32.5 83.001 -56.5h6c10 17.333 17.667 34.833 23 52.5s8 34.5 8 50.5c0 43.333 -11.667 80.5 -35 111.5s-51.333 46.5 -84 46.5c-21.333 0 -40 -10.167 -56 -30.5s-24 -45.166 -24 -74.499h-61
c0 29.333 -7.83301 54.166 -23.5 74.499s-34.5 30.5 -56.5 30.5c-26 0 -48.167 -10.167 -66.5 -30.5s-27.5 -45.166 -27.5 -74.499h-64v0z" />
    <glyph glyph-name="U0C08" unicode="&#xc08;" horiz-adv-x="1068" 
d="M846 156c0 -18 6.33301 -33.333 19 -46s28 -19 46 -19s33.5 6.33301 46.5 19s19.5 28 19.5 46s-6.5 33.5 -19.5 46.5s-28.5 19.5 -46.5 19.5s-33.333 -6.5 -46 -19.5s-19 -28.5 -19 -46.5v0zM8 274h134.002c8.66699 50.667 28.5 93.5 59.5 128.5s67.5 56.167 109.5 63.5
v3c-18 6 -34.667 20.333 -50 43s-27 50 -35 82l52 20c6 -34 18.833 -62.167 38.5 -84.5s41.167 -33.5 64.5 -33.5c9.33301 0 19.666 2.16699 30.999 6.5s22.666 10.5 33.999 18.5l203 141l27 -46l-218 -154v-4c38.667 -13.333 71.167 -36.5 97.5 -69.5
s43.166 -71.167 50.499 -114.5h305c18 0 33.5 5.16699 46.5 15.5s19.5 22.5 19.5 36.5c0 14.667 -6.5 27.167 -19.5 37.5s-28.5 15.5 -46.5 15.5c-18.667 0 -34.167 -8.33301 -46.5 -25s-17.166 -36.334 -14.499 -59.001h-53c-6.66699 36 1 67.667 23 95s50 41 84 41
s63.167 -10.167 87.5 -30.5s36.5 -45.166 36.5 -74.499c0 -19.333 -4.33301 -36.166 -13 -50.499s-20 -22.833 -34 -25.5v-5c14 -8.66699 25.333 -20.834 34 -36.501s13 -33.167 13 -52.5c0 -32 -11.5 -59.5 -34.5 -82.5s-50.5 -34.5 -82.5 -34.5
c-32.667 0 -60.5 11.5 -83.5 34.5s-34.5 50.5 -34.5 82.5c0 12 2.16699 23.5 6.5 34.5s10.5 21.5 18.5 31.5l-4 4l-46 -4h-160c0 -61.333 -22.667 -113.666 -68 -156.999s-100.333 -65 -165 -65s-119.667 21.667 -165 65s-68 95.666 -68 156.999h-134v52v0zM206.002 274h336
c0 40 -16.333 74.167 -49 102.5s-72 42.5 -118 42.5c-46.667 0 -86.5 -14.167 -119.5 -42.5s-49.5 -62.5 -49.5 -102.5v0zM206.002 222c0 -43.333 16.5 -80.166 49.5 -110.499s72.833 -45.5 119.5 -45.5c46 0 85.333 15.167 118 45.5s49 67.166 49 110.499h-336v0z" />
    <glyph glyph-name="U0C09" unicode="&#xc09;" horiz-adv-x="654" 
d="M466 105c0 -14.667 5.16699 -27.167 15.5 -37.5s22.5 -15.5 36.5 -15.5c14.667 0 27.167 5.16699 37.5 15.5s15.5 22.833 15.5 37.5c0 14 -5.16699 26 -15.5 36s-22.833 15 -37.5 15c-14 0 -26.167 -5 -36.5 -15s-15.5 -22 -15.5 -36v0zM338 79l-8 0.000976562
c-14 -24.667 -32.167 -44 -54.5 -58s-46.166 -21 -71.499 -21c-46.667 0 -86.667 19.167 -120 57.5s-50 84.5 -50 138.5c0 74 26.167 138.333 78.5 193s117.166 85.667 194.499 93l-10 119v53h77v-53l-11 -123c46.667 -4 89.5 -13 128.5 -27s72.167 -33 99.5 -57l-45 -44
c-26.667 22 -58 39 -94 51s-74.667 18 -116 18c-51.333 0 -96.5 -10.833 -135.5 -32.5s-65.167 -50.167 -78.5 -85.5h488v-66h-505c-2 -3.33301 -3.5 -8.33301 -4.5 -15s-1.5 -14.667 -1.5 -24c0 -36 10.333 -66.667 31 -92s45.334 -38 74.001 -38c30 0 55.333 12.667 76 38
s31 56 31 92h48c0 -28 5.33301 -52.167 16 -72.5s25 -33.833 43 -40.5l-4 22c0 28.667 10.167 53.334 30.5 74.001s44.833 31 73.5 31c29.333 0 54.166 -10.333 74.499 -31s30.5 -45.334 30.5 -74.001s-11.833 -53.334 -35.5 -74.001s-52.167 -31 -85.5 -31
c-37.333 0 -70.5 7 -99.5 21s-50.5 33.333 -64.5 58v0z" />
    <glyph glyph-name="U0C0A" unicode="&#xc0a;" horiz-adv-x="1016" 
d="M34 196c0 60 17.998 114.669 53.998 164.002s83.333 84.666 142 105.999l-12 135v53h79v-53l-13 -123l50 6c10.667 0 20.167 -0.666992 28.5 -2s16.166 -3.33301 23.499 -6l-12 125v53h79v-53l-12 -133c25.333 -4.66699 50.5 -13 75.5 -25s49.167 -27.667 72.5 -47
l-41 -48c-27.333 22.667 -59.166 40.167 -95.499 52.5s-75.166 18.5 -116.499 18.5c-51.333 0 -96.5 -10.833 -135.5 -32.5s-65.167 -50.167 -78.5 -85.5h736c18.667 0 34.167 5.16699 46.5 15.5s18.5 22.833 18.5 37.5c0 14 -6.16699 26.167 -18.5 36.5
s-27.833 15.5 -46.5 15.5c-16 0 -29.5 -6.5 -40.5 -19.5s-16.5 -28.5 -16.5 -46.5h-59c0 32.667 11.333 60.5 34 83.5s50 34.5 82 34.5c32.667 0 60.667 -10.167 84 -30.5s35 -44.833 35 -73.5c0 -16.667 -4.5 -32.5 -13.5 -47.5s-21.5 -27.167 -37.5 -36.5v-4
c16 -8.66699 28.5 -20.5 37.5 -35.5s13.5 -30.833 13.5 -47.5c0 -28.667 -11 -53.167 -33 -73.5s-48.333 -30.5 -79 -30.5c-32 0 -59.5 10.167 -82.5 30.5s-34.5 44.833 -34.5 73.5c0 8 1.33301 16.5 4 25.5s6.66699 17.833 12 26.5l-2 4l-45 -4h-612
c-2 -7.33301 -3.5 -14.333 -4.5 -21s-1.5 -12.667 -1.5 -18c0 -36 10.333 -66.667 31 -92s45.334 -38 74.001 -38c30 0 55.333 12.667 76 38s31 56 31 92h48c0 -30 5 -56 15 -78s23.333 -36 40 -42l6 7l-6 22c0 28.667 10.167 53.334 30.5 74.001s44.833 31 73.5 31
c29.333 0 54.166 -10.333 74.499 -31s30.5 -45.334 30.5 -74.001s-12.5 -53.334 -37.5 -74.001s-55.167 -31 -90.5 -31c-34.667 0 -66 7 -94 21s-49 33.333 -63 58h-8c-14 -24.667 -32.167 -44 -54.5 -58s-46.166 -21 -71.499 -21c-46.667 0 -86.667 19.167 -120 57.5
s-50 84.5 -50 138.5v0zM465.998 107.002c0 -13.333 5.16699 -24.833 15.5 -34.5s22.5 -14.5 36.5 -14.5c14.667 0 27.167 4.83301 37.5 14.5s15.5 21.167 15.5 34.5s-5.16699 24.833 -15.5 34.5s-22.833 14.5 -37.5 14.5c-14 0 -26.167 -4.83301 -36.5 -14.5
s-15.5 -21.167 -15.5 -34.5v0zM805.998 183.002c0 -14 5.83301 -26.333 17.5 -37s25.5 -16 41.5 -16c16.667 0 30.834 5.33301 42.501 16s17.5 23 17.5 37c0 14.667 -5.83301 27 -17.5 37s-25.834 15 -42.501 15c-16 0 -29.833 -5 -41.5 -15s-17.5 -22.333 -17.5 -37v0z" />
    <glyph glyph-name="U0C0B" unicode="&#xc0b;" horiz-adv-x="1399" 
d="M442 66c27.333 0 50.834 17.3398 70.501 52.0068s29.5 77 29.5 127s-13.167 92.667 -39.5 128s-57.833 53 -94.5 53l20 64c49.333 0 91.333 -24 126 -72s52 -105.667 52 -173c9.33301 -52 30.333 -94.833 63 -128.5s69.334 -50.5 110.001 -50.5c38 0 70.5 16.667 97.5 50
s40.5 73.666 40.5 120.999c0 51.333 -16.333 95.166 -49 131.499s-72 54.5 -118 54.5l14 65c60 0 111.333 -24.667 154 -74s64 -109 64 -179c17.333 -50.667 42.333 -91.5 75 -122.5s67 -46.5 103 -46.5s66.667 16.667 92 50s38 73.666 38 120.999
c0 51.333 -15.5 95.166 -46.5 131.499s-68.833 54.5 -113.5 54.5l15 65c60 0 111.167 -24.667 153.5 -74s63.5 -109 63.5 -179c0 -64.667 -20.333 -120 -61 -166s-89.667 -69 -147 -69c-44.667 0 -84.5 12.5 -119.5 37.5s-58.833 57.833 -71.5 98.5
c-16.667 -41.333 -42.334 -74.333 -77.001 -99s-72.334 -37 -113.001 -37c-42 0 -80.167 11.667 -114.5 35s-58.5 53.666 -72.5 90.999c-14 -37.333 -34.333 -67.666 -61 -90.999s-54.334 -35 -83.001 -35c-28 0 -53.333 7.66699 -76 23s-38.667 35.666 -48 60.999l-5 -1
c-15.333 -25.333 -34 -45.5 -56 -60.5s-45 -22.5 -69 -22.5c-40 0 -74.167 14 -102.5 42s-42.5 62 -42.5 102c0 28 10.5 54.667 31.5 80s48.833 44 83.5 56c28.667 10.667 51.667 23.667 69 39s26 31 26 47s-7.16699 30 -21.5 42s-31.166 18 -50.499 18
c-20 0 -37 -6 -51 -18s-21 -26 -21 -42c0 -8 1.83301 -16.5 5.5 -25.5s8.83398 -17.833 15.501 -26.5l-56 -20c-10 10 -17.667 21.167 -23 33.5s-8 25.166 -8 38.499c0 32 13.833 59.667 41.5 83s60.5 35 98.5 35c37.333 0 69.166 -11.667 95.499 -35s39.5 -51 39.5 -83
c0 -26.667 -10.333 -51.834 -31 -75.501s-47.667 -41.5 -81 -53.5c-29.333 -10.667 -52.833 -24.5 -70.5 -41.5s-26.5 -34.167 -26.5 -51.5c0 -22 7.66699 -40.5 23 -55.5s34 -22.5 56 -22.5c30 0 55.333 12.667 76 38s31 56 31 92h47c0 -36 9.83301 -66.667 29.5 -92
s43.167 -38 70.5 -38v0z" />
    <glyph glyph-name="U0C0C" unicode="&#xc0c;" horiz-adv-x="795" 
d="M23 332c0 40 13.999 74.001 41.999 102.001s62 42 102 42c26.667 0 51.334 -6.33301 74.001 -19s40.334 -29.667 53.001 -51h5c12.667 21.333 30.5 38.333 53.5 51s48.167 19 75.5 19c40 0 74.167 -14 102.5 -42s42.5 -62 42.5 -102c0 -35.333 -10.5 -69.5 -31.5 -102.5
s-50.167 -60.833 -87.5 -83.5c-28 -18 -50.167 -38.5 -66.5 -61.5s-24.5 -46.167 -24.5 -69.5c0 -30 12.5 -55.5 37.5 -76.5s54.833 -31.5 89.5 -31.5c53.333 0 99 26.5 137 79.5s57 116.833 57 191.5c0 55.333 -8 107.166 -24 155.499s-39.333 90.833 -70 127.5h75
c27.333 -42 48 -87.167 62 -135.5s21 -97.833 21 -148.5c0 -92.667 -25.333 -171.667 -76 -237s-112 -98 -184 -98c-52.667 0 -97.5 17.5 -134.5 52.5s-55.5 77.5 -55.5 127.5c0 28.667 10.5 57.834 31.5 87.501s49.833 56.5 86.5 80.5c28 18.667 50.167 40.667 66.5 66
s24.5 50.666 24.5 75.999c0 22 -7.66699 40.5 -23 55.5s-34 22.5 -56 22.5c-30 0 -55.333 -12.667 -76 -38s-31 -56 -31 -92h-47c0 36 -10.5 66.667 -31.5 92s-46.167 38 -75.5 38c-22 0 -40.667 -7.5 -56 -22.5s-23 -33.5 -23 -55.5c0 -14 1.66699 -27.5 5 -40.5
s8.66602 -25.5 15.999 -37.5h-68c-6 10.667 -10.5 22.5 -13.5 35.5s-4.5 27.167 -4.5 42.5v0z" />
    <glyph glyph-name="U0C0E" unicode="&#xc0e;" horiz-adv-x="590" 
d="M76 118c0 -18 6.33301 -33.5 19 -46.5s28.334 -19.5 47.001 -19.5c18 0 33.167 6.5 45.5 19.5s18.5 28.5 18.5 46.5c0 18.667 -6.16699 34.167 -18.5 46.5s-27.5 18.5 -45.5 18.5c-18.667 0 -34.334 -6.16699 -47.001 -18.5s-19 -27.833 -19 -46.5v0zM23 118
c0 32 11.667 59.5 35 82.5s51.333 34.5 84 34.5c24 0 46 -6.5 66 -19.5s35 -30.5 45 -52.5c16.667 -30 34.834 -53.667 54.501 -71s38.167 -26 55.5 -26c32.667 0 60.667 21.667 84 65s35 95.666 35 156.999c0 86.667 -27.167 160.334 -81.5 221.001s-119.833 91 -196.5 91
l14 64c90.667 0 168 -36.667 232 -110s96 -162 96 -266c0 -79.333 -17.833 -147.166 -53.5 -203.499s-78.834 -84.5 -129.501 -84.5c-19.333 0 -38.833 7 -58.5 21s-36.5 33 -50.5 57h-4c-3.33301 -22.667 -15.333 -41.334 -36 -56.001s-44.667 -22 -72 -22
c-32.667 0 -60.667 11.667 -84 35s-35 51 -35 83v0z" />
    <glyph glyph-name="U0C0F" unicode="&#xc0f;" horiz-adv-x="590" 
d="M76 118c0 -18 6.33301 -33.5 19 -46.5s28.334 -19.5 47.001 -19.5c18 0 33.167 6.5 45.5 19.5s18.5 28.5 18.5 46.5c0 18.667 -6.16699 34.167 -18.5 46.5s-27.5 18.5 -45.5 18.5c-18.667 0 -34.334 -6.16699 -47.001 -18.5s-19 -27.833 -19 -46.5v0zM23 118
c0 32 11.668 59.5 35.001 82.5s51.333 34.5 84 34.5c24 0 46.833 -6.33301 68.5 -19s38.834 -30.334 51.501 -53.001c18 -30 35.833 -53.667 53.5 -71s33.5 -26 47.5 -26c32.667 0 60.667 21.667 84 65s35 95.666 35 156.999c0 86.667 -27.167 160.334 -81.5 221.001
s-119.833 91 -196.5 91l20 64c89.333 0 165.333 -36.667 228 -110s94 -162 94 -266c0 -79.333 -17.833 -147.166 -53.5 -203.499s-78.834 -84.5 -129.501 -84.5c-23.333 0 -45 7.16699 -65 21.5s-35 33.5 -45 57.5h-6c-6 -23.333 -18.833 -42.333 -38.5 -57
s-41.834 -22 -66.501 -22c-32.667 0 -60.667 11.667 -84 35s-35 51 -35 83v0zM122.001 482c-36 62.667 -51.667 129.501 -47 200.501s29.667 133.167 75 186.5l60 -41c-37.333 -45.333 -58.5 -97.833 -63.5 -157.5s7.83301 -115.834 38.5 -168.501l-63 -20v0z" />
    <glyph glyph-name="U0C10" unicode="&#xc10;" horiz-adv-x="676" 
d="M102 121c0 -19.333 6.49902 -35.667 19.499 -49s28.833 -20 47.5 -20c20 0 37.167 6.5 51.5 19.5s21.5 28.5 21.5 46.5c0 20.667 -6.83301 38.167 -20.5 52.5s-30.5 21.5 -50.5 21.5c-19.333 0 -35.666 -7 -48.999 -21s-20 -30.667 -20 -50v0zM34.999 117.999
c0 37.333 13.168 68.8311 39.501 94.498s57.833 38.5 94.5 38.5c30.667 0 58.167 -8.66699 82.5 -26s40.833 -39.666 49.5 -66.999s25.834 -49.5 51.501 -66.5s55.167 -25.5 88.5 -25.5c36 0 67 16.5 93 49.5s39 72.833 39 119.5c0 50.667 -11.667 94 -35 130
s-51.333 54 -84 54c-28 0 -52.167 -10.167 -72.5 -30.5s-30.5 -45.166 -30.5 -74.499h-57c0 29.333 -9.33301 54.166 -28 74.499s-40.667 30.5 -66 30.5c-24.667 0 -45.667 -10.167 -63 -30.5s-26 -45.166 -26 -74.499h-65c0 47.333 15 87.5 45 120.5s66.333 49.5 109 49.5
c25.333 0 48.833 -5.66699 70.5 -17s38.5 -27.333 50.5 -48l4 -1c11.333 20.667 28.666 36.834 51.999 48.501s49 17.5 77 17.5c50.667 0 94 -24.333 130 -73s54 -107.334 54 -176.001c0 -67.333 -19.333 -125 -58 -173s-85 -72 -139 -72
c-30.667 0 -58.834 7.33301 -84.501 22s-45.5 34 -59.5 58h-7c-8 -24 -23.333 -43.333 -46 -58s-47.667 -22 -75 -22c-36.667 0 -68.167 12.667 -94.5 38s-39.5 55.333 -39.5 90v0z" />
    <glyph glyph-name="U0C12" unicode="&#xc12;" horiz-adv-x="614" 
d="M42 144c0 28 10.5 54.334 31.5 79.001s48.5 43 82.5 55c28.667 10.667 51.667 24 69 40s26 32 26 48c0 14.667 -7 27.167 -21 37.5s-31 15.5 -51 15.5c-19.333 0 -36.166 -5.16699 -50.499 -15.5s-21.5 -22.833 -21.5 -37.5c0 -8.66699 1.16699 -16.334 3.5 -23.001
s5.5 -11.667 9.5 -15l-46 -27c-9.33301 6.66699 -16.833 15.834 -22.5 27.501s-8.5 24.5 -8.5 38.5c0 32 13.5 59.5 40.5 82.5s59.5 34.5 97.5 34.5c37.333 0 69.333 -10.833 96 -32.5s40 -47.834 40 -78.501c0 -28.667 -10.5 -55.5 -31.5 -80.5s-48.167 -43.5 -81.5 -55.5
c-28.667 -10.667 -52 -24.5 -70 -41.5s-27 -34.167 -27 -51.5c0 -22 7.83301 -40.5 23.5 -55.5s34.167 -22.5 55.5 -22.5c30 0 55.5 12.667 76.5 38s31.5 56 31.5 92h48c0 -36 10.167 -66.667 30.5 -92s45.166 -38 74.499 -38c22 0 40.667 7.5 56 22.5s23 33.5 23 55.5
c0 14 -1.66699 27.5 -5 40.5s-8.33301 25.5 -15 37.5h68c5.33301 -10.667 9.5 -22.5 12.5 -35.5s4.5 -27.167 4.5 -42.5c0 -40 -14 -74 -42 -102s-62 -42 -102 -42c-28 -0 -53.5 5.83301 -76.5 17.5s-40.5 27.834 -52.5 48.501h-5c-12 -20.667 -29.333 -36.834 -52 -48.501
s-47.667 -17.5 -75 -17.5c-40 0 -74 14 -102 42s-42 62 -42 102v0z" />
    <glyph glyph-name="U0C13" unicode="&#xc13;" horiz-adv-x="616" 
d="M43 144c0 29.333 10.499 56.8359 31.499 82.5029s48.833 44.5 83.5 56.5c28.667 10.667 51.667 23.5 69 38.5s26 29.833 26 44.5s-7.16699 27.167 -21.5 37.5s-31.166 15.5 -50.499 15.5c-20 0 -37 -5.16699 -51 -15.5s-21 -22.833 -21 -37.5
c0 -8.66699 1 -16.334 3 -23.001s5 -11.667 9 -15l-47 -27c-9.33301 6.66699 -16.833 15.834 -22.5 27.501s-8.5 24.167 -8.5 37.5c0 26 9.33301 49.167 28 69.5s42.334 33.166 71.001 38.499l2 4c-14.667 12.667 -26.167 27.5 -34.5 44.5s-12.5 34.5 -12.5 52.5
c0 28.667 12.667 53.334 38 74.001s56 31 92 31c26 0 50.167 -8.5 72.5 -25.5s38.5 -39.833 48.5 -68.5l-57 -24c-9.33301 16 -19.833 28.667 -31.5 38s-22.5 14 -32.5 14c-18 0 -33.333 -5.16699 -46 -15.5s-19 -22.5 -19 -36.5c0 -12.667 4 -25.834 12 -39.501
s20 -27.167 36 -40.5c29.333 0 54.666 -11.333 75.999 -34s32 -50 32 -82c0 -26.667 -10.333 -51.834 -31 -75.501s-47.667 -41.5 -81 -53.5c-29.333 -10.667 -52.833 -24.5 -70.5 -41.5s-26.5 -34.167 -26.5 -51.5c0 -22 7.66699 -40.5 23 -55.5s34 -22.5 56 -22.5
c30 0 55.333 12.667 76 38s31 56 31 92h47c0 -36 10.5 -66.667 31.5 -92s46.167 -38 75.5 -38c22 0 40.667 7.5 56 22.5s23 33.5 23 55.5c0 14 -1.66699 27.5 -5 40.5s-8.66602 25.5 -15.999 37.5h68c6 -10.667 10.5 -22.5 13.5 -35.5s4.5 -27.167 4.5 -42.5
c0 -40 -14 -74 -42 -102s-62 -42 -102 -42c-31.333 0 -58.833 6.66699 -82.5 20s-38.5 30.666 -44.5 51.999l-9 -2c-7.33301 -21.333 -22.333 -38.333 -45 -51s-49.334 -19 -80.001 -19c-40 0 -74.167 14 -102.5 42s-42.5 62 -42.5 102v0z" />
    <glyph glyph-name="U0C14" unicode="&#xc14;" horiz-adv-x="734" 
d="M41 144c0 26 10.6699 50.835 32.0029 74.502s49.666 42.167 84.999 55.5c27.333 10 49.5 23.333 66.5 40s25.5 34 25.5 52c0 14.667 -6.33301 27.167 -19 37.5s-28 15.5 -46 15.5c-21.333 0 -39.666 -5.16699 -54.999 -15.5s-23 -22.833 -23 -37.5
c0 -5.33301 2.16699 -11.833 6.5 -19.5s10.5 -16.167 18.5 -25.5l-46 -34c-12.667 12.667 -22.334 25.667 -29.001 39s-10 26.666 -10 39.999c0 18.667 5.5 35.167 16.5 49.5s24.833 23.166 41.5 26.499v5l-23 -2h-21v65h163c11.333 0 20.833 4.5 28.5 13.5
s11.5 19.833 11.5 32.5c0 12 -4 22.5 -12 31.5s-17.667 13.5 -29 13.5h-248v65h615c40 0 74 -12.667 102 -38s42 -56 42 -92c0 -32 -11.333 -59.5 -34 -82.5s-50 -34.5 -82 -34.5c-32.667 0 -60.667 11.5 -84 34.5s-35 50.5 -35 82.5c0 11.333 2.16699 22.5 6.5 33.5
s10.833 21.5 19.5 31.5l-2 5l-41 -5h-167c4.66699 -5.33301 8.16699 -11.833 10.5 -19.5s3.5 -16.167 3.5 -25.5c0 -24 -8.16699 -45.167 -24.5 -63.5s-36.833 -29.833 -61.5 -34.5v-4c20.667 -3.33301 37.834 -13 51.501 -29s20.5 -34.667 20.5 -56
c0 -27.333 -10.333 -53.166 -31 -77.499s-48 -42.5 -82 -54.5c-28.667 -10.667 -51.667 -24.5 -69 -41.5s-26 -34.167 -26 -51.5c0 -22 7.66699 -40.5 23 -55.5s33.666 -22.5 54.999 -22.5c30 0 55.333 12.667 76 38s31 56 31 92h48c0 -36 10.333 -66.667 31 -92
s46 -38 76 -38c21.333 0 39.666 7.5 54.999 22.5s23 33.5 23 55.5c0 14 -1.83301 27.667 -5.5 41s-8.5 25.666 -14.5 36.999h68c6 -10.667 10.333 -22.5 13 -35.5s4 -27.167 4 -42.5c0 -40 -14 -74 -42 -102s-61.667 -42 -101 -42c-27.333 -0 -52.5 6.33301 -75.5 19
s-40.833 29.667 -53.5 51h-7c-12 -21.333 -29.333 -38.333 -52 -51s-47.334 -19 -74.001 -19c-40 0 -74 14 -102 42s-42 62 -42 102v0zM550.003 536.002c0 -18 6.66699 -33.5 20 -46.5s29.333 -19.5 48 -19.5c18 0 33.167 6.5 45.5 19.5s18.5 28.5 18.5 46.5
s-6.16699 33.333 -18.5 46s-27.5 19 -45.5 19c-18.667 0 -34.667 -6.33301 -48 -19s-20 -28 -20 -46v0z" />
    <glyph glyph-name="U0C15" unicode="&#xc15;" horiz-adv-x="512" 
d="M118 354c0 -20 12.6689 -37.001 38.002 -51.001s56.333 -21 93 -21c54 0 100.333 -13.5 139 -40.5s58 -59.5 58 -97.5c0 -40 -19.833 -74 -59.5 -102s-87.834 -42 -144.501 -42c-44.667 0 -86.834 9 -126.501 27s-73.167 43.333 -100.5 76l45 45
c22 -26 49 -46.167 81 -60.5s65.667 -21.5 101 -21.5c38.667 0 71.5 7.5 98.5 22.5s40.5 33.5 40.5 55.5c0 23.333 -14.833 43.333 -44.5 60s-65.167 25 -106.5 25c-49.333 0 -91.166 12.167 -125.499 36.5s-51.5 53.833 -51.5 88.5c0 21.333 8.16699 42 24.5 62
s37.833 36 64.5 48c-16 17.333 -28.5 38.5 -37.5 63.5s-13.5 51.833 -13.5 80.5h51c0 -34.667 9.5 -64.334 28.5 -89.001s41.833 -37 68.5 -37c10 0 20.333 2.66699 31 8s21 13 31 23l164 157l34 -33l-166 -168c18 -5.33301 34.667 -12.166 50 -20.499
s29.666 -17.833 42.999 -28.5l-32 -58c-22 18.667 -46.5 32.834 -73.5 42.501s-54.833 14.5 -83.5 14.5c-32.667 0 -60.667 -6.33301 -84 -19s-35 -28 -35 -46v0z" />
    <glyph glyph-name="U0C16" unicode="&#xc16;" horiz-adv-x="672" 
d="M124 366c0 -18.667 6.33301 -34.167 19 -46.5s28 -18.5 46 -18.5s33.333 6.16699 46 18.5s19 27.833 19 46.5c0 18 -6.33301 33.333 -19 46s-28 19 -46 19s-33.333 -6.33301 -46 -19s-19 -28 -19 -46v0zM88 98c0 -9.33301 5.16992 -17 15.5029 -23s23.166 -9 38.499 -9
c29.333 0 54.5 2 75.5 6s35.833 10 44.5 18v7c-16 11.333 -33.833 20 -53.5 26s-39.834 9 -60.501 9c-16.667 0 -30.834 -3.33301 -42.501 -10s-17.5 -14.667 -17.5 -24v0zM450.003 0c-18 0 -35.833 3.33398 -53.5 10.001s-33.834 16.334 -48.501 29.001l-6 -2l17 -103v-52
h-79v52l18 103l-6 2c-14.667 -12.667 -35 -22.334 -61 -29.001s-55.667 -10 -89 -10c-32.667 0 -60.667 9.5 -84 28.5s-35 42.167 -35 69.5c0 26.667 12.167 49.834 36.5 69.501s53.833 29.5 88.5 29.5c33.333 0 63.5 -5.16699 90.5 -15.5s48.5 -24.833 64.5 -43.5h6
c8 8.66699 14 21.5 18 38.5s6 36.5 6 58.5c0 25.333 -1.83301 47 -5.5 65s-9.5 31.333 -17.5 40l-7 -2c-6.66699 -26.667 -20.667 -48.167 -42 -64.5s-45.333 -24.5 -72 -24.5c-32.667 0 -60.667 11.5 -84 34.5s-35 50.5 -35 82.5s11.667 59.667 35 83s51.333 35 84 35
c58 0 107.333 -24.333 148 -73s61 -107.334 61 -176.001c0 -22.667 -4 -45.834 -12 -69.501s-19.667 -46.5 -35 -68.5v-6c14.667 -8.66699 30.334 -15 47.001 -19s34 -6 52 -6c32.667 0 60.667 16.5 84 49.5s35 72.833 35 119.5c0 45.333 -9.5 85.333 -28.5 120
s-44.167 57.667 -75.5 69l38 58c39.333 -14 71 -43.667 95 -89s36 -98 36 -158c0 -64.667 -18 -120 -54 -166s-79.333 -69 -130 -69v0z" />
    <glyph glyph-name="U0C17" unicode="&#xc17;" horiz-adv-x="519" 
d="M37 0c0 108.667 12.833 203.499 38.5 284.499s62.167 139.833 109.5 176.5c-22.667 16.667 -40.167 39 -52.5 67s-18.5 59.333 -18.5 94h52c0 -36.667 9.16699 -67.667 27.5 -93s40.5 -38 66.5 -38c9.33301 0 19.5 3.16699 30.5 9.5s22.167 14.833 33.5 25.5l164 158
l34 -34l-188 -188c47.333 -36 83.833 -94.667 109.5 -176s38.5 -176.666 38.5 -285.999h-64c0 116 -15.333 214.833 -46 296.5s-68 122.5 -112 122.5s-81.333 -40.833 -112 -122.5s-46 -180.5 -46 -296.5h-65v0z" />
    <glyph glyph-name="U0C18" unicode="&#xc18;" horiz-adv-x="896" 
d="M76 118c0 -18 6.33301 -33.5 19 -46.5s28.334 -19.5 47.001 -19.5c18 0 33.167 6.5 45.5 19.5s18.5 28.5 18.5 46.5c0 18.667 -6.16699 34.167 -18.5 46.5s-27.5 18.5 -45.5 18.5c-18.667 0 -34.334 -6.16699 -47.001 -18.5s-19 -27.833 -19 -46.5v0zM665 66
c36 0 66.6641 13.999 91.9971 41.999s38 62 38 102c0 53.333 -16.333 100 -49 140s-74 64.667 -124 74l21 64c63.333 -11.333 115.5 -43.166 156.5 -95.499s61.5 -113.166 61.5 -182.499c0 -58.667 -19.167 -108.334 -57.5 -149.001s-84.5 -61 -138.5 -61
c-31.333 0 -60.5 7.16699 -87.5 21.5s-49.5 34.5 -67.5 60.5h-7c-11.333 -25.333 -29.666 -45.333 -54.999 -60s-53.666 -22 -84.999 -22c-20.667 0 -39.334 4.16699 -56.001 12.5s-29 19.5 -37 33.5h-8l24 -151v-53h-80v53l31 148l-6 3
c-11.333 -14 -24.833 -25.167 -40.5 -33.5s-31.834 -12.5 -48.501 -12.5c-32.667 0 -60.667 11.667 -84 35s-35 51 -35 83s11.667 59.5 35 82.5s51.333 34.5 84 34.5c25.333 0 49.5 -8.83301 72.5 -26.5s40.167 -41.167 51.5 -70.5c8.66699 -22 22 -39.5 40 -52.5
s37 -19.5 57 -19.5c28.667 0 53.334 14 74.001 42s31 62 31 102c0 45.333 -15.833 88 -47.5 128s-73.5 69.333 -125.5 88l22 56c64.667 -23.333 116.834 -60 156.501 -110s59.5 -104 59.5 -162c0 -14.667 -0.5 -26.667 -1.5 -36s-2.16699 -16 -3.5 -20
c15.333 -27.333 35.333 -48.833 60 -64.5s50.334 -23.5 77.001 -23.5v0zM10.9971 633.999l49.998 0.000976562c0 -32.667 7.83301 -60.667 23.5 -84s34.834 -35 57.501 -35c10.667 0 22 2.16699 34 6.5s24 10.5 36 18.5l215 146l31 -44l-219 -150
c-16.667 -11.333 -33.167 -20 -49.5 -26s-32.166 -9 -47.499 -9c-36.667 0 -67.667 17.167 -93 51.5s-38 76.166 -38 125.499v0z" />
    <glyph glyph-name="U0C19" unicode="&#xc19;" horiz-adv-x="618" 
d="M43 144c0 30 11.165 58.0039 33.498 84.0039s51.833 45.667 88.5 59c26.667 10 48 22.167 64 36.5s24 28.5 24 42.5c0 14.667 -7.16699 27.167 -21.5 37.5s-31.166 15.5 -50.499 15.5c-20 0 -37 -5.16699 -51 -15.5s-21 -22.833 -21 -37.5
c0 -5.33301 1.83301 -11.333 5.5 -18s8.83398 -13.334 15.501 -20.001l-54 -27c-10.667 12.667 -18.834 24.5 -24.501 35.5s-8.5 20.833 -8.5 29.5c0 32 13.667 59.667 41 83s60 35 98 35c33.333 0 62.333 -8.66699 87 -26s39.334 -39.333 44.001 -66h124v78h51v-78h79v-52
h-253c-3.33301 -20.667 -14.833 -40.334 -34.5 -59.001s-44.167 -33.334 -73.5 -44.001s-52.833 -24.5 -70.5 -41.5s-26.5 -34.167 -26.5 -51.5c0 -22 7.66699 -40.5 23 -55.5s34 -22.5 56 -22.5c30 0 55.333 10 76 30s31 44.333 31 73h47c0 -28.667 10.5 -53 31.5 -73
s46.167 -30 75.5 -30c22 0 40.667 7.5 56 22.5s23 33.5 23 55.5c0 5.33301 -1.5 13.166 -4.5 23.499s-7.5 24.5 -13.5 42.5h65c5.33301 -9.33301 9.33301 -19.666 12 -30.999s4 -23 4 -35c0 -40 -13.833 -74 -41.5 -102s-61.167 -42 -100.5 -42
c-27.333 0 -52.5 6.16699 -75.5 18.5s-40.5 28.833 -52.5 49.5l-4 -2c-12 -20.667 -29.5 -36.834 -52.5 -48.501s-48.5 -17.5 -76.5 -17.5c-40 0 -74.167 14 -102.5 42s-42.5 62 -42.5 102v0z" />
    <glyph glyph-name="U0C1A" unicode="&#xc1a;" horiz-adv-x="640" 
d="M428 0c-21.333 0 -40.666 5.49902 -57.999 16.499s-29.333 25.5 -36 43.5l-5 -2c-6.66699 -17.333 -18.834 -31.333 -36.501 -42s-37.5 -16 -59.5 -16c-36.667 0 -67.667 12.667 -93 38s-38 56 -38 92c0 10.667 1.66699 21.167 5 31.5s8.33301 19.5 15 27.5l-7 7h-105v65
h209v-45c-15.333 -6 -27.833 -16.667 -37.5 -32s-14.5 -33.333 -14.5 -54c0 -18 6.5 -33.167 19.5 -45.5s28.5 -18.5 46.5 -18.5s33.333 6.16699 46 18.5s19 27.5 19 45.5v40h65v-40c0 -18 6.33301 -33.167 19 -45.5s28 -18.5 46 -18.5c30.667 0 57 16 79 48
s33 70.667 33 116c0 56.667 -20.333 105.334 -61 146.001s-89.667 61 -147 61h-22c-40 0 -74.167 14.167 -102.5 42.5s-42.5 62.5 -42.5 102.5h51c0 -25.333 9.16699 -47.333 27.5 -66s40.833 -28.667 67.5 -30c8.66699 0 18.5 3 29.5 9s22.167 14.667 33.5 26l164 157
l35 -33l-172 -163c59.333 -14.667 108.166 -45.667 146.499 -93s57.5 -100.333 57.5 -159c0 -64 -17.167 -118.333 -51.5 -163s-76.166 -67 -125.499 -67v0z" />
    <glyph glyph-name="U0C1B" unicode="&#xc1b;" horiz-adv-x="641" 
d="M428 0c-14.667 0 -29 3.16797 -43 9.50098s-26.333 15.5 -37 27.5l-4 -3l23 -160v-59h-80v53l20 166l-4 1c-8.66699 -11.333 -19.167 -20 -31.5 -26s-25.166 -9 -38.499 -9c-36.667 0 -67.667 12.667 -93 38s-38 56 -38 92c0 11.333 2 22.333 6 33s9.66699 20.667 17 30
l-3 5l-28 -2h-84v65h209v-45c-15.333 -6 -27.833 -16.667 -37.5 -32s-14.5 -33.333 -14.5 -54c0 -18 6.5 -33.167 19.5 -45.5s28.5 -18.5 46.5 -18.5s33.333 6.16699 46 18.5s19 27.5 19 45.5v40h65v-40c0 -18 7.16699 -33.167 21.5 -45.5s31.166 -18.5 50.499 -18.5
c28.667 0 53.334 16 74.001 48s31 70.667 31 116c0 52 -17 97.667 -51 137s-76.333 62 -127 68h-40c-38.667 0 -71.834 14.5 -99.501 43.5s-41.5 63.5 -41.5 103.5h52c0 -26.667 9.16699 -49.334 27.5 -68.001s40.166 -28 65.499 -28c8 0 17.333 3 28 9
s21.334 14.667 32.001 26l170 165l33 -41l-173 -163c55.333 -14 100.666 -44.5 135.999 -91.5s53 -100.5 53 -160.5c0 -64 -17.167 -118.333 -51.5 -163s-76.166 -67 -125.499 -67v0z" />
    <glyph glyph-name="U0C1C" unicode="&#xc1c;" horiz-adv-x="651" 
d="M43 144c0 29.333 10.4971 57.0049 31.4971 83.0049s48.833 45 83.5 57c28.667 10.667 51.667 23.5 69 38.5s26 29.5 26 43.5c0 14.667 -7.16699 27.167 -21.5 37.5s-31.166 15.5 -50.499 15.5c-20 0 -37 -5.16699 -51 -15.5s-21 -22.833 -21 -37.5
c0 -10 1.33301 -19.333 4 -28s6.33398 -16.667 11.001 -24l-56 -13c-8 9.33301 -14.167 19.666 -18.5 30.999s-6.5 22.666 -6.5 33.999c0 32 13.5 59.333 40.5 82s59.5 34 97.5 34c26 0 49.833 -5.33301 71.5 -16s37.834 -25.334 48.501 -44.001
c34 -34.667 67.333 -61.334 100 -80.001s61.667 -28 87 -28c18 0 33.5 5 46.5 15s19.5 22.333 19.5 37c0 10.667 -6.5 20 -19.5 28s-28.5 12 -46.5 12c-4.66699 0 -11.5 -1.33301 -20.5 -4s-21.5 -7 -37.5 -13l-24 52c11.333 9.33301 24.166 16.5 38.499 21.5
s28.833 7.5 43.5 7.5c36 0 66.667 -10.167 92 -30.5s38 -44.833 38 -73.5c0 -32 -12.667 -59.5 -38 -82.5s-56 -34.5 -92 -34.5c-28.667 0 -58.167 8.66699 -88.5 26s-58.833 41.666 -85.5 72.999l-7 -2c0 -21.333 -9.33301 -42 -28 -62s-43 -35.667 -73 -47
c-29.333 -10.667 -52.833 -24.5 -70.5 -41.5s-26.5 -34.167 -26.5 -51.5c0 -22 7.66699 -40.5 23 -55.5s34 -22.5 56 -22.5c30 0 55.333 12.667 76 38s31 56 31 92h47c0 -36 10.5 -66.667 31.5 -92s46.167 -38 75.5 -38c22 0 40.667 7.5 56 22.5s23 33.5 23 55.5
c0 14 -1.66699 27.5 -5 40.5s-8.66602 25.5 -15.999 37.5h70c5.33301 -14.667 9.33301 -28.5 12 -41.5s4 -25.167 4 -36.5c0 -40 -14 -74 -42 -102s-62 -42 -102 -42c-26 0 -50.333 6.5 -73 19.5s-40.667 31.167 -54 54.5h-8c-13.333 -22.667 -31.333 -40.667 -54 -54
s-46.667 -20 -72 -20c-40 0 -74.167 14 -102.5 42s-42.5 62 -42.5 102v0z" />
    <glyph glyph-name="U0C1D" unicode="&#xc1d;" horiz-adv-x="1183" 
d="M98 235c0 -46.667 16.667 -86.5 50 -119.5s73.333 -49.5 120 -49.5s86.667 16.5 120 49.5s50 72.833 50 119.5c0 49.333 -16.667 91.5 -50 126.5s-73.333 52.5 -120 52.5s-86.667 -17.5 -120 -52.5s-50 -77.167 -50 -126.5v0zM33 235c0 48.667 16.333 93.333 49 134
s75.334 69.334 128.001 86.001c-26.667 15.333 -48 37.333 -64 66s-24 59.667 -24 93h53c0 -36 9.16699 -66.667 27.5 -92s40.166 -38 65.499 -38c8 0 17 2 27 6s20.333 9.66699 31 17l181 161l39 -44l-200 -164c48 -17.333 86.5 -46.666 115.5 -87.999s43.5 -87 43.5 -137
c0 -10 -1.83301 -22.333 -5.5 -37s-8.83398 -31.334 -15.501 -50.001c14.667 -25.333 34.334 -45.333 59.001 -60s51 -22 79 -22c37.333 0 69.5 17.167 96.5 51.5s40.5 75.833 40.5 124.5c0 49.333 -14.333 91.333 -43 126s-63.334 52 -104.001 52l22 56
c52.667 0 97.5 -22.667 134.5 -68s55.5 -100.333 55.5 -165c0 -19.333 -1.16699 -36.333 -3.5 -51s-5.83301 -27.334 -10.5 -38.001c10 -26.667 27.667 -48 53 -64s53.666 -24 84.999 -24c36 0 67 17.167 93 51.5s39 75.833 39 124.5c0 49.333 -13.667 91.333 -41 126
s-60.333 52 -99 52l35 58c47.333 0 87.5 -23 120.5 -69s49.5 -101.667 49.5 -167c0 -66.667 -19.167 -123.667 -57.5 -171s-84.833 -71 -139.5 -71c-26 0 -52.167 7 -78.5 21s-50.166 33.333 -71.499 58l33 -157v-52h-79v52l22 164c-18.667 -26.667 -41.5 -47.667 -68.5 -63
s-54.833 -23 -83.5 -23c-31.333 -0 -61.5 8.33301 -90.5 25s-53.833 40 -74.5 70c-23.333 -30 -51.666 -53.333 -84.999 -70s-68 -25 -104 -25c-65.333 0 -120.833 23 -166.5 69s-68.5 101.333 -68.5 166v0z" />
    <glyph glyph-name="U0C1E" unicode="&#xc1e;" horiz-adv-x="808" 
d="M15 314c0 47.333 15.6689 87.499 47.002 120.499s68.666 49.5 111.999 49.5c20.667 0 40.5 -6.33301 59.5 -19s34.5 -29.667 46.5 -51h6c12 21.333 27.833 38.333 47.5 51s40.5 19 62.5 19c32.667 0 63 -8.33301 91 -25s50.333 -39 67 -67h116v78h53v-78h78v-52h-230
c2.66699 -7.33301 4.66699 -17.666 6 -30.999s2 -29.333 2 -48c0 -24.667 -4 -49.334 -12 -74.001s-19.333 -47.667 -34 -69v-7c14.667 -14.667 26 -37.334 34 -68.001s12 -67 12 -109h-65c0 28 -2.16699 53.167 -6.5 75.5s-10.833 41.166 -19.5 56.499l-6 6
c-28 -23.333 -59.5 -41.166 -94.5 -53.499s-71.5 -18.5 -109.5 -18.5c-43.333 0 -80.333 11.667 -111 35s-46 51 -46 83s15.333 59.5 46 82.5s67.667 34.5 111 34.5c40.667 0 79.167 -6.16699 115.5 -18.5s68.5 -30.166 96.5 -53.499c8 14 14 29.333 18 46s6 34 6 52
c0 43.333 -11.5 80.5 -34.5 111.5s-50.833 46.5 -83.5 46.5c-22.667 0 -41.834 -10.167 -57.501 -30.5s-23.5 -45.166 -23.5 -74.499h-61c0 29.333 -7.83301 54.166 -23.5 74.499s-34.5 30.5 -56.5 30.5c-26 0 -48.333 -10.167 -67 -30.5s-28 -45.166 -28 -74.499h-64v0z
M186.002 117.999c0 -14 8.99902 -26.168 26.999 -36.501s39.667 -15.5 65 -15.5c34 0 64.667 3.83301 92 11.5s50 18.834 68 33.501v6c-20.667 16.667 -44.667 29.667 -72 39s-56.666 14 -87.999 14c-25.333 0 -47 -5 -65 -15s-27 -22.333 -27 -37v0z" />
    <glyph glyph-name="U0C1F" unicode="&#xc1f;" horiz-adv-x="744" 
d="M117 314c0 -18 6.5 -33.333 19.5 -46s28.5 -19 46.5 -19s33.5 6.33301 46.5 19s19.5 28 19.5 46c0 18.667 -6.5 34.167 -19.5 46.5s-28.5 18.5 -46.5 18.5s-33.5 -6.16699 -46.5 -18.5s-19.5 -27.833 -19.5 -46.5v0zM515 0c-30.667 0 -58.8301 9.16699 -84.4971 27.5
s-44.167 42.833 -55.5 73.5l-4 -2c-10.667 -30 -30.334 -54 -59.001 -72s-61 -27 -97 -27c-48.667 0 -90.334 21.5 -125.001 64.5s-52 94.833 -52 155.5c0 57.333 11.5 106.333 34.5 147s50.833 61 83.5 61v118h54v-118c24.667 0 46 -11 64 -33s27 -49 27 -81
s-11.5 -59.667 -34.5 -83s-50.833 -35 -83.5 -35c-16.667 0 -32 2.66699 -46 8s-25.333 13 -34 23l-4 -3c0 -44 11.333 -81.333 34 -112s50 -46 82 -46c34.667 0 64.5 14 89.5 42s37.5 62 37.5 102h60c0 -40 11.333 -74 34 -102s49.667 -42 81 -42c34 0 63.167 16 87.5 48
s36.5 70.333 36.5 115c0 48.667 -11.833 90.334 -35.5 125.001s-51.834 52 -84.501 52l13 72c48 0 88.667 -24.333 122 -73s50 -107.334 50 -176.001c0 -63.333 -18.667 -117.333 -56 -162s-82.333 -67 -135 -67v0z" />
    <glyph glyph-name="U0C20" unicode="&#xc20;" horiz-adv-x="540" 
d="M99 242c0 -48.667 16.667 -90.167 50 -124.5s73.666 -51.5 120.999 -51.5c46.667 0 86.5 17.167 119.5 51.5s49.5 75.833 49.5 124.5c0 49.333 -16.5 91.166 -49.5 125.499s-72.833 51.5 -119.5 51.5c-47.333 0 -87.666 -17.167 -120.999 -51.5s-50 -76.166 -50 -125.499
v0zM34 242c0 50 14.6699 95.167 44.0029 135.5s67.666 68.5 114.999 84.5c-21.333 18 -38 40.833 -50 68.5s-18 58.167 -18 91.5h52c0 -36.667 9.16699 -67.667 27.5 -93s40.166 -38 65.499 -38c9.33301 0 19.666 3.16699 30.999 9.5s22.333 14.833 33 25.5l165 158l34 -34
l-187 -188c48 -16 86.667 -44.833 116 -86.5s44 -88.5 44 -140.5c0 -64.667 -23.167 -120 -69.5 -166s-101.833 -69 -166.5 -69c-65.333 0 -121 23.667 -167 71s-69 104.333 -69 171v0zM231.003 196v92h78v-92h-78v0z" />
    <glyph glyph-name="U0C21" unicode="&#xc21;" horiz-adv-x="672" 
d="M468 156c0 -18 6.33301 -33.333 19 -46s28 -19 46 -19s33.333 6.33301 46 19s19 28 19 46s-6.33301 33.5 -19 46.5s-28 19.5 -46 19.5s-33.333 -6.5 -46 -19.5s-19 -28.5 -19 -46.5v0zM35 210c0 59.333 19.666 113.668 58.999 163.001s90.333 83.666 153 102.999
c-16.667 17.333 -29.667 38.666 -39 63.999s-14 52.666 -14 81.999h52c0 -36.667 9.33301 -67.667 28 -93s40.667 -38 66 -38c9.33301 0 19.5 3.16699 30.5 9.5s22.167 14.833 33.5 25.5l165 158l41 -47l-175 -155c30.667 -5.33301 58.834 -13.333 84.501 -24
s48.167 -23.667 67.5 -39l-35 -53c-22.667 18.667 -52.5 33.334 -89.5 44.001s-78.5 16 -124.5 16c-66 0 -122 -21.167 -168 -63.5s-69 -93.166 -69 -152.499c0 -40 10.167 -74 30.5 -102s45.166 -42 74.499 -42c30 0 55.5 12.667 76.5 38s31.5 56 31.5 92h48
c0 -38 9 -70.5 27 -97.5s39.667 -40.5 65 -40.5h28v4c-18 6.66699 -32.5 18.667 -43.5 36s-16.5 36.666 -16.5 57.999c0 30.667 10.667 57 32 79s47.666 33 78.999 33c32.667 0 60.334 -11.5 83.001 -34.5s34 -50.5 34 -82.5c0 -41.333 -17.167 -76.833 -51.5 -106.5
s-75.833 -44.5 -124.5 -44.5c-27.333 0 -53 7 -77 21s-43 33 -57 57l-4 -2c-13.333 -23.333 -32.333 -41.833 -57 -55.5s-51 -20.5 -79 -20.5c-45.333 0 -84.166 20.333 -116.499 61s-48.5 90.334 -48.5 149.001v0z" />
    <glyph glyph-name="U0C22" unicode="&#xc22;" horiz-adv-x="672" 
d="M468 156c0 -18 6.33301 -33.333 19 -46s28 -19 46 -19s33.333 6.33301 46 19s19 28 19 46s-6.33301 33.5 -19 46.5s-28 19.5 -46 19.5s-33.333 -6.5 -46 -19.5s-19 -28.5 -19 -46.5v0zM35 210c0 60 18.999 114.664 56.999 163.997s87.667 83.333 149 102
c-17.333 18 -30.5 39.5 -39.5 64.5s-13.5 52.167 -13.5 81.5h51c0 -36.667 9.16699 -67.667 27.5 -93s40.5 -38 66.5 -38c8.66699 0 18.667 3.16699 30 9.5s22.666 14.833 33.999 25.5l165 158l34 -34l-166 -168c32.667 -5.33301 62.5 -13.333 89.5 -24
s49.5 -23.667 67.5 -39l-35 -53c-22.667 18.667 -52.5 33.334 -89.5 44.001s-78.5 16 -124.5 16c-66 0 -122 -21.167 -168 -63.5s-69 -93.166 -69 -152.499c0 -40 10.167 -74 30.5 -102s45.166 -42 74.499 -42c26.667 0 49.167 12.667 67.5 38s27.5 56 27.5 92h54
c0 -38 9.83301 -70.5 29.5 -97.5s42.834 -40.5 69.501 -40.5h24v4c-18.667 7.33301 -34 19.5 -46 36.5s-18 36.167 -18 57.5c0 32.667 11.667 60.5 35 83.5s51.333 34.5 84 34.5s60.334 -12 83.001 -36s34 -53 34 -87c0 -41.333 -19.167 -76.833 -57.5 -106.5
s-84.5 -44.5 -138.5 -44.5c-20 0 -39 3.66699 -57 11s-33.667 18 -47 32l-6 -2l26 -132v-53h-92v53l25 132l-4 2c-10.667 -14 -24.167 -24.667 -40.5 -32s-33.833 -11 -52.5 -11c-47.333 0 -87.666 20.333 -120.999 61s-50 90.334 -50 149.001v0z" />
    <glyph glyph-name="U0C23" unicode="&#xc23;" horiz-adv-x="761" 
d="M488 111c0 -18 6.33301 -33.5 19 -46.5s28.334 -19.5 47.001 -19.5c18 0 33.167 6.5 45.5 19.5s18.5 28.5 18.5 46.5s-6.16699 33.5 -18.5 46.5s-27.5 19.5 -45.5 19.5c-18.667 0 -34.334 -6.5 -47.001 -19.5s-19 -28.5 -19 -46.5v0zM43 346
c0 36.667 16.6689 67.833 50.002 93.5s73.666 38.5 120.999 38.5c32.667 0 62.834 -7.66699 90.501 -23s49.167 -36 64.5 -62l4 1c14.667 26 34.667 46.5 60 61.5s52.666 22.5 81.999 22.5c58 0 107.167 -25.667 147.5 -77s60.5 -113.333 60.5 -186
c0 -61.333 -16.5 -113.5 -49.5 -156.5s-72.833 -64.5 -119.5 -64.5c-32 0 -59.5 11.333 -82.5 34s-34.5 50.334 -34.5 83.001s11.5 60.5 34.5 83.5s50.5 34.5 82.5 34.5c21.333 0 40.666 -5.5 57.999 -16.5s29 -25.167 35 -42.5h4c2 6 3.66699 12.833 5 20.5
s2 15.834 2 24.501c0 54.667 -14 101.167 -42 139.5s-61.667 57.5 -101 57.5c-29.333 0 -55.5 -11.167 -78.5 -33.5s-37.5 -50.5 -43.5 -84.5h-45c-6 34 -21.667 62.167 -47 84.5s-54.333 33.5 -87 33.5c-29.333 0 -54.166 -6.33301 -74.499 -19
s-30.5 -28.334 -30.5 -47.001c0 -21.333 15.333 -40 46 -56s67.667 -24 111 -24v-48c-43.333 0 -80.333 -8.66699 -111 -26s-46 -38 -46 -62c0 -18 11.5 -33.167 34.5 -45.5s50.833 -18.5 83.5 -18.5c18 0 35.333 2.5 52 7.5s32 12.167 46 21.5l25 -69
c-18.667 -10.667 -38.334 -18.667 -59.001 -24s-42 -8 -64 -8c-50.667 0 -94 13.333 -130 40s-54 58.667 -54 96c0 24 7.16699 45.667 21.5 65s33.5 33.333 57.5 42v6c-22.667 4.66699 -41.5 16.667 -56.5 36s-22.5 41.666 -22.5 66.999v0z" />
    <glyph glyph-name="U0C24" unicode="&#xc24;" horiz-adv-x="654" 
d="M98 301c0 -18 6.5 -33.5 19.5 -46.5s28.833 -19.5 47.5 -19.5c18 0 33.333 6.5 46 19.5s19 28.5 19 46.5s-6.33301 33.333 -19 46s-28 19 -46 19c-18.667 0 -34.5 -6.33301 -47.5 -19s-19.5 -28 -19.5 -46v0zM426 301c0 -18 6.33301 -33.5 19 -46.5s28 -19.5 46 -19.5
s33.333 6.5 46 19.5s19 28.5 19 46.5s-6.33301 33.333 -19 46s-28 19 -46 19s-33.333 -6.33301 -46 -19s-19 -28 -19 -46v0zM179 582l51.998 0.00195312c0 -26.667 9.16699 -49.334 27.5 -68.001s40.5 -28 66.5 -28c8.66699 0 18.667 3 30 9s22.666 14.667 33.999 26
l165 157l33 -33l-167 -167c59.333 -14.667 107.833 -41 145.5 -79s56.5 -79.667 56.5 -125c0 -82.667 -27.333 -149 -82 -199s-127.667 -75 -219 -75c-87.333 0 -157.166 23.667 -209.499 71s-78.5 110.666 -78.5 189.999c0 43.333 12.833 80.5 38.5 111.5
s56.834 46.5 93.501 46.5c32 0 59.5 -11.5 82.5 -34.5s34.5 -50.833 34.5 -83.5s-11.5 -60.5 -34.5 -83.5s-50.5 -34.5 -82.5 -34.5c-11.333 0 -21.333 1.16699 -30 3.5s-15.667 5.83301 -21 10.5l-7 -1c0 -39.333 19.5 -70.833 58.5 -94.5s90.833 -35.5 155.5 -35.5
c67.333 0 121 11.833 161 35.5s60 55.167 60 94.5l-5 1c-4 -4.66699 -10 -8.16699 -18 -10.5s-17.333 -3.5 -28 -3.5c-32.667 0 -60.5 11.5 -83.5 34.5s-34.5 50.833 -34.5 83.5c0 26 9.33301 48.667 28 68s41.667 30.333 69 33v4c-17.333 10 -38.166 17.333 -62.499 22
s-50.833 7 -79.5 7c-41.333 0 -76.5 14.5 -105.5 43.5s-43.5 63.5 -43.5 103.5v0z" />
    <glyph glyph-name="U0C25" unicode="&#xc25;" horiz-adv-x="645" 
d="M101 196c0 -36 8.83203 -66.667 26.499 -92s39.5 -38 65.5 -38c29.333 0 54.333 12.667 75 38s31 56 31 92h49c0 -36 10.333 -66.667 31 -92s45.667 -38 75 -38c25.333 0 47 12.667 65 38s27 56 27 92c0 62 -21.667 114.667 -65 158s-95.666 65 -156.999 65
c-62 0 -114.667 -21.667 -158 -65s-65 -96 -65 -158v0zM34.999 196c0 62.667 19.5 118.998 58.5 168.998s89.5 83.667 151.5 101c-20.667 18 -36.5 40.5 -47.5 67.5s-16.5 56.5 -16.5 88.5h52c0 -36.667 9.16699 -67.667 27.5 -93s40.166 -38 65.499 -38
c9.33301 0 19.666 3.16699 30.999 9.5s22.333 14.833 33 25.5l165 158l34 -34l-181 -182c60 -17.333 108.667 -51.166 146 -101.499s56 -107.166 56 -170.499c0 -54 -15.167 -100.167 -45.5 -138.5s-67.166 -57.5 -110.499 -57.5c-22.667 -0 -43.667 3.83301 -63 11.5
s-35.666 18.834 -48.999 33.501l-4 -3l25 -133v-53h-79v53l22 132l-4 4c-13.333 -14.667 -29.333 -25.834 -48 -33.501s-39 -11.5 -61 -11.5c-44 0 -81.333 19.167 -112 57.5s-46 84.5 -46 138.5v0zM283.999 248.998v77h79v-77h-79v0z" />
    <glyph glyph-name="U0C26" unicode="&#xc26;" horiz-adv-x="645" 
d="M101 196c0 -36 8.83203 -66.667 26.499 -92s39.5 -38 65.5 -38c29.333 0 54.333 12.667 75 38s31 56 31 92h49c0 -36 10.333 -66.667 31 -92s45.667 -38 75 -38c25.333 0 47 12.667 65 38s27 56 27 92c0 62 -21.667 114.667 -65 158s-95.666 65 -156.999 65
c-62 0 -114.667 -21.667 -158 -65s-65 -96 -65 -158v0zM34.999 196c0 62.667 19.502 118.998 58.502 168.998s89.5 83.667 151.5 101c-20.667 18 -36.5 40.5 -47.5 67.5s-16.5 56.5 -16.5 88.5h52c0 -36.667 9.16699 -67.667 27.5 -93s40.166 -38 65.499 -38
c9.33301 0 19.666 3.16699 30.999 9.5s22.333 14.833 33 25.5l165 158l34 -34l-181 -182c60 -17.333 108.667 -51.166 146 -101.499s56 -107.166 56 -170.499c0 -54 -16 -100.167 -48 -138.5s-71 -57.5 -117 -57.5c-26.667 0 -51 7.16699 -73 21.5s-37.333 33.5 -46 57.5
l-5 -1c-8.66699 -24 -24.667 -43 -48 -57s-50 -21 -80 -21c-44 0 -81.333 19.167 -112 57.5s-46 84.5 -46 138.5v0z" />
    <glyph glyph-name="U0C27" unicode="&#xc27;" horiz-adv-x="645" 
d="M101 196c0 -36 8.83203 -66.667 26.499 -92s39.5 -38 65.5 -38c29.333 0 54.333 12.667 75 38s31 56 31 92h49c0 -36 10.333 -66.667 31 -92s45.667 -38 75 -38c25.333 0 47 12.667 65 38s27 56 27 92c0 62 -21.667 114.667 -65 158s-95.666 65 -156.999 65
c-62 0 -114.667 -21.667 -158 -65s-65 -96 -65 -158v0zM34.999 196c0 62.667 19.501 118.998 58.501 168.998s89.5 83.667 151.5 101c-20.667 18 -36.5 40.5 -47.5 67.5s-16.5 56.5 -16.5 88.5h52c0 -36.667 9.16699 -67.667 27.5 -93s40.166 -38 65.499 -38
c9.33301 0 19.666 3.16699 30.999 9.5s22.333 14.833 33 25.5l165 158l34 -34l-181 -182c60 -17.333 108.667 -51.166 146 -101.499s56 -107.166 56 -170.499c0 -54 -15.167 -100.167 -45.5 -138.5s-67.166 -57.5 -110.499 -57.5c-21.333 0 -41.333 3.66699 -60 11
s-34.667 17.666 -48 30.999l-4 -3l31 -117v-52h-91v52l27 115l-4 5c-12 -13.333 -27.667 -23.666 -47 -30.999s-41 -11 -65 -11c-44 0 -81.333 19.167 -112 57.5s-46 84.5 -46 138.5v0z" />
    <glyph glyph-name="U0C28" unicode="&#xc28;" horiz-adv-x="606" 
d="M394 66c31.333 0 57.832 17.167 79.499 51.5s32.5 75.833 32.5 124.5c0 53.333 -21 98.833 -63 136.5s-92.667 56.5 -152 56.5h-89c-40 0 -74 14.5 -102 43.5s-42 63.5 -42 103.5h52c0 -26.667 9.33301 -49.334 28 -68.001s40.667 -28 66 -28c9.33301 0 19.5 3 30.5 9
s22.167 14.667 33.5 26l165 157l33 -33l-157 -155c73.333 -4 135.333 -29.833 186 -77.5s76 -104.5 76 -170.5c0 -66.667 -17.167 -123.667 -51.5 -171s-76.166 -71 -125.499 -71c-37.333 0 -70 11.5 -98 34.5s-45 51.833 -51 86.5c-4.66699 25.333 -15 46.5 -31 63.5
s-34.333 25.5 -55 25.5c-18 0 -33.5 -9.16699 -46.5 -27.5s-19.5 -40.166 -19.5 -65.499c0 -10 3.33301 -23.167 10 -39.5s16.334 -35.833 29.001 -58.5l-58 -21c-15.333 26 -27 49.167 -35 69.5s-12 36.833 -12 49.5c0 43.333 13 80.333 39 111s57 46 93 46
s67.167 -11.333 93.5 -34s41.166 -51 44.499 -85c2 -25.333 12.333 -46.5 31 -63.5s40.667 -25.5 66 -25.5v0z" />
    <glyph glyph-name="U0C2A" unicode="&#xc2a;" horiz-adv-x="572" 
d="M76 118c0 -18 6.33301 -33.5 19 -46.5s28.334 -19.5 47.001 -19.5c18 0 33.167 6.5 45.5 19.5s18.5 28.5 18.5 46.5c0 18.667 -6.16699 34.167 -18.5 46.5s-27.5 18.5 -45.5 18.5c-18.667 0 -34.334 -6.16699 -47.001 -18.5s-19 -27.833 -19 -46.5v0zM363 66
c31.333 0 57.6689 16.667 79.002 50s32 73.666 32 120.999c0 56 -15.5 103.667 -46.5 143s-68.5 59 -112.5 59l23 57c53.333 0 99.166 -25.333 137.499 -76s57.5 -111.667 57.5 -183c0 -66 -16.5 -122 -49.5 -168s-73.167 -69 -120.5 -69c-22 0 -43 6.16699 -63 18.5
s-36.333 28.833 -49 49.5l-6 -2c-7.33301 -19.333 -20.5 -35.166 -39.5 -47.499s-40.167 -18.5 -63.5 -18.5c-32.667 0 -60.667 11.667 -84 35s-35 51 -35 83s11.667 59.5 35 82.5s51.333 34.5 84 34.5c28 0 53.667 -8.83301 77 -26.5s40.333 -41.167 51 -70.5
c8 -22 20.667 -39.5 38 -52.5s35.666 -19.5 54.999 -19.5v0zM11.0029 634l49.998 0.000976562c0 -32.667 7.83301 -60.667 23.5 -84s34.834 -35 57.501 -35c10.667 0 22 2.16699 34 6.5s24 10.5 36 18.5l215 146l31 -44l-219 -150c-16.667 -11.333 -33.167 -20 -49.5 -26
s-32.166 -9 -47.499 -9c-36.667 0 -67.667 17.167 -93 51.5s-38 76.166 -38 125.499v0z" />
    <glyph glyph-name="U0C2B" unicode="&#xc2b;" horiz-adv-x="577" 
d="M76 118c0 -18 6.33301 -33.5 19 -46.5s28.334 -19.5 47.001 -19.5c18 0 33.167 6.5 45.5 19.5s18.5 28.5 18.5 46.5c0 18.667 -6.16699 34.167 -18.5 46.5s-27.5 18.5 -45.5 18.5c-18.667 0 -34.334 -6.16699 -47.001 -18.5s-19 -27.833 -19 -46.5v0zM370 66
c30.667 0 57 17.3301 79 51.9971s33 76.334 33 125.001c0 54 -17 100.167 -51 138.5s-74.667 57.5 -122 57.5l15 57c60 0 111 -24.667 153 -74s63 -109 63 -179c0 -67.333 -17.167 -124.666 -51.5 -171.999s-76.166 -71 -125.499 -71c-17.333 0 -34.333 3.66699 -51 11
s-31.334 17.333 -44.001 30l-4 -6l26 -140v-53h-80v53l27 139l-6 5c-10.667 -12 -23.667 -21.5 -39 -28.5s-32 -10.5 -50 -10.5c-32.667 0 -60.667 11.667 -84 35s-35 51 -35 83s11.667 59.5 35 82.5s51.333 34.5 84 34.5c30.667 0 57.667 -9.16699 81 -27.5
s37.333 -41.5 42 -69.5c3.33301 -21.333 15 -38.666 35 -51.999s43.333 -20 70 -20v0zM11 633.997l49.998 0.000976562c0 -32.667 7.83301 -60.667 23.5 -84s34.834 -35 57.501 -35c10.667 0 22 2.16699 34 6.5s24 10.5 36 18.5l215 146l31 -44l-219 -150
c-16.667 -11.333 -33.167 -20 -49.5 -26s-32.166 -9 -47.499 -9c-36.667 0 -67.667 17.167 -93 51.5s-38 76.166 -38 125.499v0z" />
    <glyph glyph-name="U0C2C" unicode="&#xc2c;" horiz-adv-x="645" 
d="M442 66c27.333 0 50.832 17.3359 70.499 52.0029s29.5 77 29.5 127s-13.167 92.667 -39.5 128s-57.833 53 -94.5 53l20 64c49.333 0 91.333 -24 126 -72s52 -105.667 52 -173c0 -68 -16 -125.833 -48 -173.5s-70.667 -71.5 -116 -71.5c-28 0 -53.333 7.66699 -76 23
s-38.667 35.666 -48 60.999l-5 -1c-15.333 -25.333 -34 -45.5 -56 -60.5s-45 -22.5 -69 -22.5c-40 0 -74.167 14 -102.5 42s-42.5 62 -42.5 102c0 28 10.5 54.667 31.5 80s48.833 44 83.5 56c28.667 10.667 51.667 23.667 69 39s26 31 26 47s-7.16699 30 -21.5 42
s-31.166 18 -50.499 18c-20 0 -37 -6 -51 -18s-21 -26 -21 -42c0 -8 1.83301 -16.5 5.5 -25.5s8.83398 -17.833 15.501 -26.5l-56 -20c-10 10 -17.667 21.167 -23 33.5s-8 25.166 -8 38.499c0 32 13.833 59.667 41.5 83s60.5 35 98.5 35c37.333 0 69.166 -11.667 95.499 -35
s39.5 -51 39.5 -83c0 -26.667 -10.333 -51.834 -31 -75.501s-47.667 -41.5 -81 -53.5c-29.333 -10.667 -52.833 -24.5 -70.5 -41.5s-26.5 -34.167 -26.5 -51.5c0 -22 7.66699 -40.5 23 -55.5s34 -22.5 56 -22.5c30 0 55.333 12.667 76 38s31 56 31 92h47
c0 -36 9.83301 -66.667 29.5 -92s43.167 -38 70.5 -38v0z" />
    <glyph glyph-name="U0C2D" unicode="&#xc2d;" horiz-adv-x="645" 
d="M450 66c26 0 47.8359 15.168 65.5029 45.501s26.5 67.166 26.5 110.499c0 58.667 -15.333 108.834 -46 150.501s-67.667 62.5 -111 62.5c-40 2 -74 21 -102 57s-42 79.333 -42 130h51c0 -36.667 9.16699 -67.667 27.5 -93s40.5 -38 66.5 -38
c9.33301 0 19.666 3.16699 30.999 9.5s22.333 14.833 33 25.5l164 158l35 -34l-181 -182c42.667 -20.667 76.667 -53.334 102 -98.001s38 -94 38 -148c0 -61.333 -15.333 -113.666 -46 -156.999s-68 -65 -112 -65c-20.667 0 -40.834 5 -60.501 15s-36.834 24.333 -51.501 43
l-4 -4l25 -145v-53h-79v53l26 144l-3 5c-14.667 -18.667 -32 -33 -52 -43s-40.667 -15 -62 -15c-40 0 -74 14 -102 42s-42 62 -42 102c0 30 10.5 58 31.5 84s48.5 45.333 82.5 58c28.667 10.667 51.667 23.167 69 37.5s26 28.5 26 42.5c0 14.667 -7.33301 27.167 -22 37.5
s-32.667 15.5 -54 15.5c-18.667 0 -34.667 -5.16699 -48 -15.5s-20 -22.833 -20 -37.5c0 -8.66699 2 -16.834 6 -24.501s9.33301 -14.5 16 -20.5l-49 -34c-12 10 -21.333 22.5 -28 37.5s-10 31.167 -10 48.5c0 28.667 12.833 53.334 38.5 74.001s56.834 31 93.501 31
c39.333 0 72.833 -11 100.5 -33s41.5 -48.333 41.5 -79c0 -26.667 -10.333 -51.834 -31 -75.501s-48 -41.5 -82 -53.5c-28.667 -10.667 -51.834 -24.5 -69.501 -41.5s-26.5 -34.167 -26.5 -51.5c0 -22 7.66699 -40.5 23 -55.5s34 -22.5 56 -22.5c30 0 55.5 12.667 76.5 38
s31.5 56 31.5 92h47c0 -36 10.333 -66.667 31 -92s45.667 -38 75 -38v0z" />
    <glyph glyph-name="U0C2E" unicode="&#xc2e;" horiz-adv-x="956" 
d="M76 118c0 -18 6.33301 -33.5 19 -46.5s28.334 -19.5 47.001 -19.5c18 0 33.167 6.5 45.5 19.5s18.5 28.5 18.5 46.5c0 18.667 -6.16699 34.167 -18.5 46.5s-27.5 18.5 -45.5 18.5c-18.667 0 -34.334 -6.16699 -47.001 -18.5s-19 -27.833 -19 -46.5v0zM23 118
c0 32 11.667 59.5029 35 82.5029s51.333 34.5 84 34.5c27.333 0 52 -9.16699 74 -27.5s36.667 -42.166 44 -71.499c5.33301 -20.667 17.666 -37.5 36.999 -50.5s41.333 -19.5 66 -19.5c31.333 0 57.666 16.667 78.999 50s32 73.666 32 120.999
c0 55.333 -18.167 102.5 -54.5 141.5s-80.5 58.5 -132.5 58.5h-71c-38.667 0 -72 14.167 -100 42.5s-42 62.5 -42 102.5h52c0 -26.667 9.33301 -49.334 28 -68.001s40.667 -28 66 -28c9.33301 0 19.5 3 30.5 9s22.167 14.667 33.5 26l165 157l33 -33l-158 -157
c62 -8.66699 113.5 -36.834 154.5 -84.501s61.5 -103.167 61.5 -166.5l-2 -31c14.667 -42 38.5 -75.833 71.5 -101.5s69.167 -38.5 108.5 -38.5c36.667 0 67.667 16.667 93 50s38 73.666 38 120.999c0 51.333 -15.833 95.166 -47.5 131.499s-69.5 54.5 -113.5 54.5l15 65
c61.333 -5.33301 113 -32.333 155 -81s63 -106 63 -172c0 -64.667 -20.5 -120 -61.5 -166s-90.5 -69 -148.5 -69c-38 0 -74 11.167 -108 33.5s-61 52.833 -81 91.5c-13.333 -37.333 -34.666 -67.5 -63.999 -90.5s-61 -34.5 -95 -34.5
c-23.333 0 -45.166 6.16699 -65.499 18.5s-36.5 28.833 -48.5 49.5l-3 -2c-7.33301 -19.333 -20.5 -35.166 -39.5 -47.499s-40.5 -18.5 -64.5 -18.5c-32.667 0 -60.667 11.667 -84 35s-35 51 -35 83v0z" />
    <glyph glyph-name="U0C2F" unicode="&#xc2f;" horiz-adv-x="1233" 
d="M99 235c0 -46.667 16.667 -86.5 50 -119.5s73.666 -49.5 120.999 -49.5c46.667 0 86.5 16.5 119.5 49.5s49.5 72.833 49.5 119.5c0 50.667 -16.5 94 -49.5 130s-72.833 54 -119.5 54c-47.333 0 -87.666 -18 -120.999 -54s-50 -79.333 -50 -130v0zM754 243
c0 52.667 -16.6631 97.835 -49.9961 135.502s-73 56.5 -119 56.5c-40.667 0 -75.334 18.167 -104.001 54.5s-43 80.5 -43 132.5h52c0 -36.667 9.16699 -67.667 27.5 -93s40.166 -38 65.499 -38c9.33301 0 19.5 3.16699 30.5 9.5s22.167 14.833 33.5 25.5l165 158l34 -34
l-176 -176c47.333 -18.667 85.166 -49 113.499 -91s42.5 -88.667 42.5 -140l-4 -53c16 -37.333 39.667 -67.333 71 -90s65 -34 101 -34c36.667 0 67.667 16.667 93 50s38 73.666 38 120.999c0 51.333 -15.833 95.166 -47.5 131.499s-69.5 54.5 -113.5 54.5l15 65
c60.667 0 112.167 -24.667 154.5 -74s63.5 -109 63.5 -179c0 -64.667 -20.5 -120 -61.5 -166s-90.5 -69 -148.5 -69c-42 0 -80 11.5 -114 34.5s-58 53.167 -72 90.5c-18 -38 -43 -68.333 -75 -91s-66.333 -34 -103 -34c-34 0 -65.333 8.16699 -94 24.5
s-51.334 38.5 -68.001 66.5h-8c-20.667 -28.667 -47.167 -51 -79.5 -67s-66.833 -24 -103.5 -24c-65.333 0 -121 23 -167 69s-69 101.333 -69 166c0 68.667 23 127.334 69 176.001s101.667 73 167 73c64.667 0 120.167 -24.333 166.5 -73s69.5 -107.334 69.5 -176.001
c0 -18 -1.16699 -34.5 -3.5 -49.5s-5.16602 -27.833 -8.49902 -38.5c14 -24.667 32.667 -44.334 56 -59.001s47.666 -22 72.999 -22c36.667 0 67.667 17.333 93 52s38 76.334 38 125.001v0z" />
    <glyph glyph-name="U0C30" unicode="&#xc30;" horiz-adv-x="540" 
d="M99 242c0 -48.667 16.667 -90.167 50 -124.5s73.666 -51.5 120.999 -51.5c46.667 0 86.5 17.167 119.5 51.5s49.5 75.833 49.5 124.5c0 49.333 -16.5 91.166 -49.5 125.499s-72.833 51.5 -119.5 51.5c-47.333 0 -87.666 -17.167 -120.999 -51.5s-50 -76.166 -50 -125.499
v0zM34 242c0 50 14.6699 95.167 44.0029 135.5s67.666 68.5 114.999 84.5c-21.333 18 -38 40.833 -50 68.5s-18 58.167 -18 91.5h52c0 -36.667 9.16699 -67.667 27.5 -93s40.166 -38 65.499 -38c9.33301 0 19.666 3.16699 30.999 9.5s22.333 14.833 33 25.5l165 158l34 -34
l-187 -188c48 -16 86.667 -44.833 116 -86.5s44 -88.5 44 -140.5c0 -64.667 -23.167 -120 -69.5 -166s-101.833 -69 -166.5 -69c-65.333 0 -121 23.667 -167 71s-69 104.333 -69 171v0z" />
    <glyph glyph-name="U0C31" unicode="&#xc31;" horiz-adv-x="756" 
d="M142 366c0 -18.667 6.5 -34.167 19.5 -46.5s28.5 -18.5 46.5 -18.5s33.5 6.16699 46.5 18.5s19.5 27.833 19.5 46.5c0 18 -6.5 33.333 -19.5 46s-28.5 19 -46.5 19s-33.5 -6.33301 -46.5 -19s-19.5 -28 -19.5 -46v0zM38 247c0 66 16.6689 122.001 50.002 168.001
s73.333 69 120 69c32.667 0 60.5 -11.667 83.5 -35s34.5 -51 34.5 -83s-11.667 -59.5 -35 -82.5s-51.666 -34.5 -84.999 -34.5c-24 0 -45.333 7.66699 -64 23s-30.334 34.666 -35.001 57.999h-4c-3.33301 -7.33301 -5 -22.5 -5 -45.5v-37.5c0 -50 13.333 -92.667 40 -128
s58.667 -53 96 -53c33.333 0 61.833 12.667 85.5 38s35.5 56 35.5 92h47c0 -36 11.833 -66.667 35.5 -92s52.167 -38 85.5 -38c36 0 66.667 17.667 92 53s38 78 38 128c0 50.667 -10.333 94 -31 130s-45.334 54 -74.001 54c-18 0 -33.5 -6.33301 -46.5 -19
s-19.5 -28 -19.5 -46c0 -21.333 10.5 -38.666 31.5 -51.999s45.5 -18.666 73.5 -15.999v-49h-263v52h102l36 -3l3 3c-10.667 7.33301 -19 16.666 -25 27.999s-9 23.666 -9 36.999c0 35.333 10.667 63.833 32 85.5s49.666 32.5 84.999 32.5c46.667 0 86.667 -23 120 -69
s50 -102 50 -168c0 -68 -19 -126.167 -57 -174.5s-84 -72.5 -138 -72.5c-31.333 -0 -59.833 6.33301 -85.5 19s-44.5 29.667 -56.5 51h-7c-12.667 -21.333 -31.5 -38.333 -56.5 -51s-52.833 -19 -83.5 -19c-54 0 -100.167 24.167 -138.5 72.5s-57.5 106.5 -57.5 174.5v0z
" />
    <glyph glyph-name="U0C32" unicode="&#xc32;" horiz-adv-x="594" 
d="M154 366c0 -18.667 6.33301 -34.167 19 -46.5s28 -18.5 46 -18.5s33.333 6.16699 46 18.5s19 27.833 19 46.5c0 18 -6.33301 33.333 -19 46s-28 19 -46 19s-33.333 -6.33301 -46 -19s-19 -28 -19 -46v0zM298 66c53.333 0 99.333 19 138 57s58 84 58 138
c0 38 -10 72 -30 102s-46 51 -78 63l22 64c45.333 -16.667 81.833 -46 109.5 -88s41.5 -89 41.5 -141c0 -72 -25.5 -133.5 -76.5 -184.5s-112.5 -76.5 -184.5 -76.5c-72.667 0 -134.667 25.5 -186 76.5s-77 112.5 -77 184.5c0 62 18 114.667 54 158s79.333 65 130 65
c32.667 0 60.667 -11.667 84 -35s35 -51 35 -83s-11.667 -59.5 -35 -82.5s-51.333 -34.5 -84 -34.5c-26.667 0 -50 7.83301 -70 23.5s-32 35.5 -36 59.5h-4c-2.66699 -6.66699 -4.66699 -16 -6 -28s-2 -26.333 -2 -43c0 -54 19.167 -100 57.5 -138s84.833 -57 139.5 -57v0z
" />
    <glyph glyph-name="U0C33" unicode="&#xc33;" horiz-adv-x="561" 
d="M78 288c0 -18 6.16699 -33.5 18.5 -46.5s27.5 -19.5 45.5 -19.5c18.667 0 34.334 6.5 47.001 19.5s19 28.5 19 46.5s-6.33301 33.5 -19 46.5s-28.334 19.5 -47.001 19.5c-18 0 -33.167 -6.5 -45.5 -19.5s-18.5 -28.5 -18.5 -46.5v0zM247 84
c0 -5.33301 3.83301 -9.66602 11.5 -12.999s17.167 -5 28.5 -5c10.667 0 19.834 1.66699 27.501 5s11.5 7.66602 11.5 12.999c0 6 -3.83301 11 -11.5 15s-16.834 6 -27.501 6c-11.333 0 -20.833 -2 -28.5 -6s-11.5 -9 -11.5 -15v0zM287 170
c50 0 92.832 14.0029 128.499 42.0029s53.5 62 53.5 102c0 34 -14.667 62.667 -44 86s-64.666 35 -105.999 35h-41c-38.667 0 -71.667 14.5 -99 43.5s-41 63.5 -41 103.5h51c0 -26.667 9.16699 -49.334 27.5 -68.001s40.5 -28 66.5 -28c9.33301 0 19.5 3 30.5 9
s21.833 14.667 32.5 26l165 157l35 -33l-169 -161c46 -9.33301 83.667 -30 113 -62s44 -68 44 -108c0 -45.333 -15.5 -85.833 -46.5 -121.5s-70.5 -57.834 -118.5 -66.501l-2 -2c6 -6.66699 10.5 -13.334 13.5 -20.001s4.5 -13.334 4.5 -20.001
c0 -22.667 -9.5 -42.334 -28.5 -59.001s-42.167 -25 -69.5 -25c-30.667 0 -57 8.33301 -79 25s-33 36.334 -33 59.001c0 4 1.16699 8.16699 3.5 12.5s5.5 8.83301 9.5 13.5v4c-46.667 8.66699 -85.5 29.334 -116.5 62.001s-46.5 70 -46.5 112c0 32.667 11.5 60.5 34.5 83.5
s50.5 34.5 82.5 34.5c32.667 0 60.5 -11.5 83.5 -34.5s34.5 -50.833 34.5 -83.5c0 -25.333 -7.66699 -47.833 -23 -67.5s-34.666 -31.5 -57.999 -35.5v-6c7.33301 -4 18.666 -6.5 33.999 -7.5s40 -1.5 74 -1.5v0z" />
    <glyph glyph-name="U0C34" unicode="&#xc34;" horiz-adv-x="756" 
d="M208 301c18 0 33.5 6.16699 46.5 18.5s19.5 27.833 19.5 46.5c0 18 -6.5 33.333 -19.5 46s-28.5 19 -46.5 19s-33.5 -6.33301 -46.5 -19s-19.5 -28 -19.5 -46c0 -18.667 6.5 -34.167 19.5 -46.5s28.5 -18.5 46.5 -18.5zM614 366c0 18 -6.5 33.333 -19.5 46
s-28.5 19 -46.5 19s-33.5 -6.33301 -46.5 -19s-19.5 -28 -19.5 -46c0 -18.667 6.5 -34.167 19.5 -46.5s28.5 -18.5 46.5 -18.5s33.5 6.16699 46.5 18.5s19.5 27.833 19.5 46.5zM374 70c-12.667 -21.333 -31.5 -38.333 -56.5 -51s-52.833 -19 -83.5 -19
c-54 0 -100.167 24.167 -138.5 72.5s-57.5 106.5 -57.5 174.5c0 66 16.667 122 50 168s73.333 69 120 69c32.667 0 60.5 -11.667 83.5 -35s34.5 -51 34.5 -83s-11.667 -59.5 -35 -82.5s-51.666 -34.5 -84.999 -34.5c-24 0 -45.333 7.66699 -64 23
s-30.334 34.666 -35.001 57.999h-4c-3.33301 -7.33301 -5 -22.5 -5 -45.5v-37.5c0 -50 13.333 -92.667 40 -128s58.667 -53 96 -53c33.333 0 61.833 12.667 85.5 38s35.5 56 35.5 92h46c0 -36 11.833 -66.667 35.5 -92s52.167 -38 85.5 -38c37.333 0 69.333 17.667 96 53
s40 78 40 128v37.5c0 23 -1.66699 38.167 -5 45.5h-4c-4.66699 -23.333 -16.334 -42.666 -35.001 -57.999s-40 -23 -64 -23c-33.333 0 -61.666 11.5 -84.999 34.5s-35 50.5 -35 82.5s11.5 59.667 34.5 83s50.833 35 83.5 35c46.667 0 86.667 -23 120 -69s50 -102 50 -168
c0 -68 -19.167 -126.167 -57.5 -174.5s-84.5 -72.5 -138.5 -72.5c-30.667 -0 -58.5 6.33301 -83.5 19s-43.833 29.667 -56.5 51h-8z" />
    <glyph glyph-name="U0C35" unicode="&#xc35;" horiz-adv-x="576" 
d="M76 118c0 -18 6.33301 -33.5 19 -46.5s28.334 -19.5 47.001 -19.5c18 0 33.167 6.5 45.5 19.5s18.5 28.5 18.5 46.5c0 18.667 -6.16699 34.167 -18.5 46.5s-27.5 18.5 -45.5 18.5c-18.667 0 -34.334 -6.16699 -47.001 -18.5s-19 -27.833 -19 -46.5v0zM23 118
c0 32 11.667 59.5 35 82.5s51.333 34.5 84 34.5c27.333 0 52 -9.16699 74 -27.5s36.667 -42.166 44 -71.499c5.33301 -20.667 17.666 -37.5 36.999 -50.5s41.333 -19.5 66 -19.5c31.333 0 57.666 16.667 78.999 50s32 73.666 32 120.999c0 55.333 -18.167 102.5 -54.5 141.5
s-80.5 58.5 -132.5 58.5h-67c-40 0 -74.333 14.167 -103 42.5s-43 62.5 -43 102.5h52c0 -26.667 9.33301 -49.334 28 -68.001s40.667 -28 66 -28c9.33301 0 19.5 3 30.5 9s22.167 14.667 33.5 26l165 157l33 -33l-163 -157c63.333 -8 116 -35.833 158 -83.5
s63 -103.5 63 -167.5c0 -66 -17.167 -122 -51.5 -168s-76.166 -69 -125.499 -69c-23.333 0 -45.166 6.16699 -65.499 18.5s-36.5 28.833 -48.5 49.5l-3 -2c-7.33301 -19.333 -20.5 -35.166 -39.5 -47.499s-40.5 -18.5 -64.5 -18.5c-32.667 0 -60.667 11.667 -84 35
s-35 51 -35 83v0z" />
    <glyph glyph-name="U0C36" unicode="&#xc36;" horiz-adv-x="500" 
d="M216 147c0 -22 8.16699 -41 24.5 -57s35.833 -24 58.5 -24c23.333 0 43.166 8 59.499 24s24.5 35 24.5 57c0 23.333 -8.16699 43 -24.5 59s-36.166 24 -59.499 24c-22.667 0 -42.167 -8 -58.5 -24s-24.5 -35.667 -24.5 -59v0zM158 151c0 22 4.49902 41.835 13.499 59.502
s21.167 30.834 36.5 39.501v4c-6.66699 5.33301 -16.167 9.33301 -28.5 12s-26.833 4 -43.5 4c-14.667 0 -27 -4.16699 -37 -12.5s-15 -18.5 -15 -30.5c0 -8.66699 1.5 -17 4.5 -25s7.16699 -15 12.5 -21l-64 -22c-6 16 -10.5 29.833 -13.5 41.5s-4.5 20.5 -4.5 26.5
c0 28.667 11.5 53 34.5 73s50.5 30 82.5 30c30.667 0 59.334 -3.66699 86.001 -11s50 -18 70 -32c38.667 14 69.5 29.333 92.5 46s34.5 31.667 34.5 45c0 16 -18 29.5 -54 40.5s-79.667 16.5 -131 16.5h-42c-38.667 0 -72 14.5 -100 43.5s-42 63.5 -42 103.5h52
c0 -26.667 9.16699 -49.334 27.5 -68.001s40.5 -28 66.5 -28c9.33301 0 19.5 3 30.5 9s22.167 14.667 33.5 26l164 157l34 -33l-164 -158c52 -6 95.667 -19.5 131 -40.5s53 -43.833 53 -68.5c0 -16.667 -10.167 -34.834 -30.5 -54.501s-47.833 -37.5 -82.5 -53.5v-6
c22 -12.667 39.667 -29.834 53 -51.501s20 -44.5 20 -68.5c0 -40 -14 -74 -42 -102s-61.667 -42 -101 -42c-38 -0 -70.333 14.833 -97 44.5s-40 65.167 -40 106.5v0z" />
    <glyph glyph-name="U0C37" unicode="&#xc37;" horiz-adv-x="600" 
d="M76 118c0 -18 6.33301 -33.5 19 -46.5s28.334 -19.5 47.001 -19.5c18 0 33.167 6.5 45.5 19.5s18.5 28.5 18.5 46.5c0 18.667 -6.16699 34.167 -18.5 46.5s-27.5 18.5 -45.5 18.5c-18.667 0 -34.334 -6.16699 -47.001 -18.5s-19 -27.833 -19 -46.5v0zM363 66
c28.667 0 53.334 16.3281 74.001 48.9951s31 72.334 31 119.001c0 52.667 -13 97.834 -39 135.501s-57 56.5 -93 56.5l15 56c50 0 92.833 -23.833 128.5 -71.5s53.5 -105.167 53.5 -172.5v-55c0 -73.333 17.333 -135.833 52 -187.5s74 -73.5 118 -65.5v-64
c-50 0 -95 20.667 -135 62s-65.667 94 -77 158h-5c-16 -26.667 -34.833 -47.667 -56.5 -63s-43.834 -23 -66.501 -23c-23.333 0 -45.333 5.83301 -66 17.5s-36.667 27.834 -48 48.501h-4c-7.33301 -19.333 -20.5 -35.166 -39.5 -47.499s-40.167 -18.5 -63.5 -18.5
c-32.667 0 -60.667 11.667 -84 35s-35 51 -35 83s11.667 59.5 35 82.5s51.333 34.5 84 34.5c27.333 0 52.333 -9 75 -27s38.667 -41.333 48 -70c6 -21.333 18.167 -38.666 36.5 -51.999s38.833 -20 61.5 -20v0zM11 633.995l49.998 0.000976562
c0 -32.667 7.83301 -60.667 23.5 -84s34.834 -35 57.501 -35c10.667 0 22 2.16699 34 6.5s24 10.5 36 18.5l215 146l31 -44l-219 -150c-16.667 -11.333 -33.167 -20 -49.5 -26s-32.166 -9 -47.499 -9c-36.667 0 -67.667 17.167 -93 51.5s-38 76.166 -38 125.499v0z" />
    <glyph glyph-name="U0C38" unicode="&#xc38;" horiz-adv-x="590" 
d="M381 66c28.667 0 53.333 16.498 74 49.498s31 72.833 31 119.5c0 52 -15.333 96.333 -46 133s-67.667 55 -111 55l27 67c54 0 99.833 -24.833 137.5 -74.5s56.5 -109.834 56.5 -180.501c0 -64.667 -16.5 -120 -49.5 -166s-72.833 -69 -119.5 -69
c-39.333 0 -73.333 12.333 -102 37s-44.667 55 -48 91c-2 22.667 -9.33301 42 -22 58s-27 24 -43 24c-20.667 0 -38 -9.16699 -52 -27.5s-21 -40.166 -21 -65.499c0 -13.333 4 -28.5 12 -45.5s19.667 -34.5 35 -52.5l-60 -29c-17.333 20.667 -30.5 41.834 -39.5 63.501
s-13.5 42.834 -13.5 63.501c0 43.333 13.5 80.333 40.5 111s59.833 46 98.5 46c32 0 59.833 -11.333 83.5 -34s37.167 -51 40.5 -85c2 -25.333 11.833 -46.5 29.5 -63.5s38.167 -25.5 61.5 -25.5v0zM14.999 633.998l50.999 0.000976562c0 -32.667 7.83301 -60.667 23.5 -84
s34.5 -35 56.5 -35c10.667 0 22 2.16699 34 6.5s24 10.5 36 18.5l215 146l31 -44l-219 -150c-16.667 -11.333 -33.167 -20 -49.5 -26s-32.166 -9 -47.499 -9c-36.667 0 -67.667 17.167 -93 51.5s-38 76.166 -38 125.499v0z" />
    <glyph glyph-name="U0C39" unicode="&#xc39;" horiz-adv-x="882" 
d="M76 118c0 -18 6.33301 -33.5 19 -46.5s28.334 -19.5 47.001 -19.5c18 0 33.167 6.5 45.5 19.5s18.5 28.5 18.5 46.5c0 18.667 -6.16699 34.167 -18.5 46.5s-27.5 18.5 -45.5 18.5c-18.667 0 -34.334 -6.16699 -47.001 -18.5s-19 -27.833 -19 -46.5v0zM678 366
c0 -18.667 6.16699 -34.167 18.5 -46.5s27.5 -18.5 45.5 -18.5c18.667 0 34.334 6.16699 47.001 18.5s19 27.833 19 46.5c0 18 -6.33301 33.333 -19 46s-28.334 19 -47.001 19c-18 0 -33.167 -6.33301 -45.5 -19s-18.5 -28 -18.5 -46v0zM23 118
c0 32 11.667 59.4971 35 82.4971s51.333 34.5 84 34.5c30 0 56.167 -9.5 78.5 -28.5s34.833 -43.167 37.5 -72.5c9.33301 -20.667 23.666 -37.167 42.999 -49.5s40 -18.5 62 -18.5c36.667 0 67.834 18.333 93.501 55s38.5 81 38.5 133c0 49.333 -13.333 91.166 -40 125.499
s-58.667 51.5 -96 51.5l30 59h328c40 0 74 -12.167 102 -36.5s42 -53.5 42 -87.5c0 -32.667 -11.667 -60.667 -35 -84s-51.333 -35 -84 -35c-32 0 -59.333 11.667 -82 35s-34 51.333 -34 84c0 10.667 2 21.834 6 33.501s10.333 22.167 19 31.5l-1 4l-34 -4h-88l-40 4l-2 -4
c23.333 -19.333 41.5 -44.666 54.5 -75.999s19.5 -65.333 19.5 -102c0 -70 -19.167 -129.667 -57.5 -179s-84.833 -74 -139.5 -74c-23.333 0 -45.333 5.83301 -66 17.5s-36.667 27.834 -48 48.501h-4c-7.33301 -19.333 -20.5 -35.166 -39.5 -47.499
s-40.167 -18.5 -63.5 -18.5c-32.667 0 -60.667 11.667 -84 35s-35 51 -35 83v0zM11 633.997l49.998 0.000976562c0 -32.667 7.83301 -60.667 23.5 -84s34.834 -35 57.501 -35c10.667 0 22 2.16699 34 6.5s24 10.5 36 18.5l215 146l31 -44l-219 -150
c-16.667 -11.333 -33.167 -20 -49.5 -26s-32.166 -9 -47.499 -9c-36.667 0 -67.667 17.167 -93 51.5s-38 76.166 -38 125.499v0z" />
    <glyph glyph-name="uni0C3D" unicode="&#xc3d;" horiz-adv-x="1027" 
d="M425 289c9.33301 34.667 -12.999 53.667 -66.999 57h-240v33v33l246 -1c34 0 63.333 -9 88 -27c40.667 -29.333 56 -62.666 46 -99.999c-16 -56.667 -93.667 -114.334 -233 -173.001c-59.333 -24.667 -59 -38 1 -40c126 4 202 4.66699 228 2h266v-61h-533
c-46 0 -77 9.33301 -93 28c-34 38.667 -1.33301 79.334 98 122.001c119.333 51.333 183.666 93.666 192.999 126.999z" />
    <glyph glyph-name="U0C3E" unicode="&#xc3e;" horiz-adv-x="601" 
d="M366 370c0 13.333 1.83301 25.668 5.5 37.001s8.5 20.666 14.5 27.999l-2 7l-52 -7h-606v66h731c40 0 74.167 -12.833 102.5 -38.5s42.5 -56.5 42.5 -92.5c0 -32.667 -11.5 -60.667 -34.5 -84s-50.833 -35 -83.5 -35s-60.5 11.667 -83.5 35s-34.5 51.333 -34.5 84v0z
M419 370.002c0 -18.667 6.33301 -34.167 19 -46.5s28 -18.5 46 -18.5s33.5 6.16699 46.5 18.5s19.5 27.833 19.5 46.5c0 18 -6.5 33.333 -19.5 46s-28.5 19 -46.5 19s-33.333 -6.33301 -46 -19s-19 -28 -19 -46v0z" />
    <glyph glyph-name="U0C3F" unicode="&#xc3f;" 
d="M-102 521c16 -10 32.501 -17.665 49.501 -22.998s33.833 -8 50.5 -8c32.667 0 60.667 9.66699 84 29s35 42.666 35 69.999l-7 2c-10 -13.333 -23.833 -23.5 -41.5 -30.5s-37.834 -10.5 -60.501 -10.5c-42 0 -77.833 10.167 -107.5 30.5s-44.5 44.833 -44.5 73.5
c0 31.333 15 57.833 45 79.5s66.333 32.5 109 32.5c48 -7.33301 88 -25.833 120 -55.5s48 -63.834 48 -102.501c0 -46.667 -17.5 -86.667 -52.5 -120s-77.5 -50 -127.5 -50c-26 0 -50.167 3.33301 -72.5 10s-41.833 16.667 -58.5 30l31 43v0zM-77.999 661.002
c0 -18 8.5 -33.333 25.5 -46s37.167 -19 60.5 -19c21.333 0 39.5 5.66699 54.5 17s22.5 25 22.5 41s-7.5 29.833 -22.5 41.5s-33.167 17.5 -54.5 17.5c-23.333 0 -43.5 -5.16699 -60.5 -15.5s-25.5 -22.5 -25.5 -36.5v0z" />
    <glyph glyph-name="U0C40" unicode="&#xc40;" 
d="M-109 528c13.333 -10 29.3301 -17.833 47.9971 -23.5s39.334 -8.5 62.001 -8.5c30 0 55.667 9 77 27s32 40 32 66l-5 5c-11.333 -12 -26 -21.333 -44 -28s-38 -10 -60 -10c-42 0 -77.833 10.333 -107.5 31s-44.5 45.334 -44.5 74.001c0 17.333 6.33301 33.5 19 48.5
s29.334 25.5 50.001 31.5v5c-16 5.33301 -28.833 14.5 -38.5 27.5s-14.5 27.833 -14.5 44.5c0 28.667 13.333 53.167 40 73.5s58.667 30.5 96 30.5c41.333 0 76.333 -11.833 105 -35.5s41.334 -51.167 38.001 -82.5h-71c0 18 -7.16699 33.333 -21.5 46
s-31.166 19 -50.499 19c-18.667 0 -34.667 -5 -48 -15s-20 -22 -20 -36c0 -12.667 6.83301 -24.167 20.5 -34.5s30.5 -16.833 50.5 -19.5c48 -6.66699 87.833 -24.834 119.5 -54.501s47.5 -63.5 47.5 -101.5c0 -46.667 -16.667 -86.667 -50 -120s-73.333 -50 -120 -50
c-22 0 -44.833 2.66699 -68.5 8s-47.834 13.333 -72.501 24l31 58v0zM-85.0029 661c0 -14.667 8.5 -26.834 25.5 -36.501s37.167 -14.5 60.5 -14.5c21.333 0 39.5 4.83301 54.5 14.5s22.5 21.834 22.5 36.501c0 14 -7.5 26.167 -22.5 36.5s-33.167 15.5 -54.5 15.5
c-23.333 0 -43.5 -5.16699 -60.5 -15.5s-25.5 -22.5 -25.5 -36.5v0z" />
    <glyph glyph-name="U0C41" unicode="&#xc41;" horiz-adv-x="368" 
d="M-70 142l14 82.002c12 -46.667 35.333 -84.667 70 -114s73.334 -44 116.001 -44c36 0 66.667 16.667 92 50s38 73.666 38 120.999c0 51.333 -15.667 95.166 -47 131.499s-69.333 54.5 -114 54.5l15 65c60.667 0 112.167 -24.667 154.5 -74s63.5 -109 63.5 -179
c0 -64.667 -20.333 -120 -61 -166s-90.334 -69 -149.001 -69c-45.333 0 -85.833 13.167 -121.5 39.5s-59.167 60.5 -70.5 102.5v0z" />
    <glyph glyph-name="U0C42" unicode="&#xc42;" horiz-adv-x="724" 
d="M519 379c0 -18 6.33301 -33.333 19 -46s28 -19 46 -19s33.5 6.33301 46.5 19s19.5 28 19.5 46s-6.5 33.5 -19.5 46.5s-28.5 19.5 -46.5 19.5s-33.333 -6.5 -46 -19.5s-19 -28.5 -19 -46.5v0zM104 510h455.001c40 0 74 -12.667 102 -38s42 -56.333 42 -93
c0 -32.667 -11.667 -60.5 -35 -83.5s-51.333 -34.5 -84 -34.5s-60.334 11.5 -83.001 34.5s-34 50.833 -34 83.5c0 10.667 2.33301 21.667 7 33s11.334 22.333 20.001 33l-3 4h-249l-3 -4c25.333 -18 45 -45.5 59 -82.5s21 -79.5 21 -127.5c0 -64.667 -19.667 -120 -59 -166
s-87 -69 -143 -69c-46 0 -86.5 14.667 -121.5 44s-56.5 66.333 -64.5 111v69c8 -46 29.667 -83.833 65 -113.5s75.666 -44.5 120.999 -44.5c40 0 74 16.5 102 49.5s42 72.833 42 119.5c0 59.333 -15.333 110 -46 152s-67.667 63 -111 63v60v0z" />
    <glyph glyph-name="U0C43" unicode="&#xc43;" horiz-adv-x="380" 
d="M-47 -218c0 -16 6 -30 18 -42s26 -18 42 -18c17.333 0 32 6 44 18s18 26 18 42c0 17.333 -6 32 -18 44s-26.667 18 -44 18c-16 0 -30 -6 -42 -18s-18 -26.667 -18 -44zM-102 -218c0 32 11.165 59.332 33.498 81.999s49.5 34 81.5 34s59.333 -11.333 82 -34s34 -50 34 -82
c0 -29.333 -11.333 -54.666 -34 -75.999s-50 -32 -82 -32l-2 -4c6.66699 -9.33301 17.334 -16.666 32.001 -21.999s32 -8 52 -8c56.667 0 104.834 31.167 144.501 93.5s59.5 137.5 59.5 225.5c0 84.667 -20.667 163.667 -62 237s-97.666 130.333 -168.999 171l41 55
c77.333 -45.333 138.666 -109.333 183.999 -192s68 -173 68 -271c0 -104.667 -26 -194.334 -78 -269.001s-114.667 -112 -188 -112c-54.667 0 -101.167 20 -139.5 60s-57.5 88 -57.5 144z" />
    <glyph glyph-name="U0C44" unicode="&#xc44;" horiz-adv-x="612" 
d="M408 261c0 -18 6.33301 -33.333 19 -46s28 -19 46 -19s33.333 6.33301 46 19s19 28 19 46s-6.33301 33.333 -19 46s-28 19 -46 19s-33.333 -6.33301 -46 -19s-19 -28 -19 -46zM356 261c0 15.333 2.33203 28.8311 6.99902 40.498s11 19.834 19 24.501l-1 6l-50 -6h-122
l-42 4l-4 -4c43.333 -48 76.666 -103.5 99.999 -166.5s35 -129.833 35 -200.5c0 -104.667 -26 -194.334 -78 -269.001s-114.667 -112 -188 -112c-54.667 0 -101.167 20 -139.5 60s-57.5 88 -57.5 144c0 32 11.167 59.333 33.5 82s49.5 34 81.5 34s59.333 -11.333 82 -34
s34 -50 34 -82c0 -29.333 -11.667 -54.666 -35 -75.999s-51.666 -32 -84.999 -32l-4 -4c6.66699 -9.33301 18 -16.666 34 -21.999s34.667 -8 56 -8c56.667 0 104.834 31.167 144.501 93.5s59.5 137.5 59.5 225.5c0 84 -20.5 161.833 -61.5 233.5
s-97.167 128.167 -168.5 169.5l20 23h421c40 0 74 -12.167 102 -36.5s42 -53.5 42 -87.5c0 -32.667 -11.5 -60.667 -34.5 -84s-50.833 -35 -83.5 -35c-32 0 -59.5 11.667 -82.5 35s-34.5 51.333 -34.5 84zM-110.001 -218.002c0 -16 6 -30 18 -42s26 -18 42 -18
c17.333 0 32 6 44 18s18 26 18 42c0 17.333 -6 32 -18 44s-26.667 18 -44 18c-16 0 -30 -6 -42 -18s-18 -26.667 -18 -44z" />
    <glyph glyph-name="U0C46" unicode="&#xc46;" 
d="M-334 659h382.999c30 0 55.833 -10.667 77.5 -32s32.5 -47 32.5 -77c0 -31.333 -11.167 -58 -33.5 -80s-49.166 -33 -80.499 -33h-123v66h132c10.667 0 20 4.5 28 13.5s12 20.167 12 33.5c0 12 -4 22.333 -12 31s-17.667 13 -29 13h-387v65v0z" />
    <glyph glyph-name="U0C47" unicode="&#xc47;" 
d="M-334 657l272.998 -0.000976562l35 -4l3 4c-8 8 -14.333 17.167 -19 27.5s-7 21.166 -7 32.499c0 27.333 10.167 50.333 30.5 69s44.5 28 72.5 28c30.667 0 56.834 -11.5 78.501 -34.5s32.5 -50.833 32.5 -83.5h-53c0 18 -5 33.5 -15 46.5s-21.667 19.5 -35 19.5
c-14.667 0 -27 -5.16699 -37 -15.5s-15 -22.5 -15 -36.5c0 -10 5.16699 -19.833 15.5 -29.5s23.833 -17.5 40.5 -23.5c28 -10 50.5 -25.167 67.5 -45.5s25.5 -42.166 25.5 -65.499c0 -30.667 -11.167 -56.834 -33.5 -78.501s-49.166 -32.5 -80.499 -32.5h-199v66h208
c10.667 0 20 4.33301 28 13s12 19.334 12 32.001s-4 23.334 -12 32.001s-17.667 13 -29 13h-387v66v0z" />
    <glyph glyph-name="U0C48" unicode="&#xc48;" horiz-adv-x="734" 
d="M173 659h382.998c30.667 0 56.667 -10.667 78 -32s32 -47 32 -77c0 -31.333 -11.167 -58 -33.5 -80s-49.166 -33 -80.499 -33h-124v66h134c10.667 0 19.834 4.5 27.501 13.5s11.5 20.167 11.5 33.5c0 12 -4 22.333 -12 31s-17.667 13 -29 13h-387v65v0zM119.998 -163
c0 -18 6.33301 -33.5 19 -46.5s28 -19.5 46 -19.5s33.333 6.5 46 19.5s19 28.5 19 46.5s-6.33301 33.333 -19 46s-28 19 -46 19s-33.333 -6.33301 -46 -19s-19 -28 -19 -46v0zM67.998 -163c0 32 11.5 59.498 34.5 82.498s50.5 34.5 82.5 34.5
c32.667 0 60.5 -11.5 83.5 -34.5s34.5 -50.5 34.5 -82.5c0 -10 -2.5 -20.667 -7.5 -32s-12.167 -22.666 -21.5 -33.999l2 -5l56 5h300v-66h-435c-36 0 -66.5 12.833 -91.5 38.5s-37.5 56.834 -37.5 93.501v0z" />
    <glyph glyph-name="U0C4A" unicode="&#xc4a;" horiz-adv-x="580" 
d="M346 562c0 13.333 1.66504 25.8311 4.99805 37.498s8.33301 21.167 15 28.5l-3 4l-34 -4h-51c-28 0 -52.167 -6.5 -72.5 -19.5s-30.5 -28.5 -30.5 -46.5h-61c0 18 -12.333 33.5 -37 46.5s-54.334 19.5 -89.001 19.5c-35.333 0 -65.333 -6.66699 -90 -20
s-37 -29.666 -37 -48.999s8.5 -35.666 25.5 -48.999s37.5 -20 61.5 -20h62v-55h-62c-42 0 -77.833 12 -107.5 36s-44.5 53 -44.5 87c0 37.333 18.833 69.333 56.5 96s82.834 40 135.501 40c36 0 67.5 -4.16699 94.5 -12.5s46.833 -20.166 59.5 -35.499h6
c12.667 15.333 30.334 27.166 53.001 35.499s48.334 12.5 77.001 12.5h184c32.667 0 60.667 -13 84 -39s35 -57 35 -93c0 -32 -11.667 -59.5 -35 -82.5s-51.333 -34.5 -84 -34.5c-32 0 -59.333 11.5 -82 34.5s-34 50.5 -34 82.5v0zM396.998 561.998
c0 -18.667 6.33301 -34.334 19 -47.001s28 -19 46 -19c18.667 0 34.5 6.33301 47.5 19s19.5 28.334 19.5 47.001c0 18 -6.5 33.5 -19.5 46.5s-28.833 19.5 -47.5 19.5c-18 0 -33.333 -6.5 -46 -19.5s-19 -28.5 -19 -46.5v0z" />
    <glyph glyph-name="U0C4B" unicode="&#xc4b;" horiz-adv-x="577" 
d="M342 562c0 13.333 1.83105 25.667 5.49805 37s8.83398 21 15.501 29l-3 4l-39 -4h-45c-28 0 -52.167 -6.5 -72.5 -19.5s-30.5 -28.5 -30.5 -46.5h-62c0 18 -11.5 33.5 -34.5 46.5s-50.833 19.5 -83.5 19.5c-35.333 0 -65.333 -7 -90 -21s-37 -31.333 -37 -52
c0 -18 7.83301 -33.333 23.5 -46s34.5 -19 56.5 -19h68v-55h-68c-40 0 -74.333 11.833 -103 35.5s-43 51.834 -43 84.501c0 38.667 18.833 71.5 56.5 98.5s82.834 40.5 135.501 40.5c34.667 0 65.167 -4.16699 91.5 -12.5s45.833 -20.166 58.5 -35.499
c13.333 15.333 27.333 27.166 42 35.499s29 12.5 43 12.5h119l33 -4l3 4c-8 6.66699 -14.333 15.667 -19 27s-7 24 -7 38c0 25.333 10.833 46.833 32.5 64.5s47.5 26.5 77.5 26.5c30.667 0 56.334 -11.833 77.001 -35.5s29.667 -51.167 27 -82.5h-53
c1.33301 17.333 -3 32.666 -13 45.999s-22.667 20 -38 20c-14 0 -26.167 -4.5 -36.5 -13.5s-15.5 -19.833 -15.5 -32.5c0 -14.667 4.66699 -27.667 14 -39s20.666 -18.333 33.999 -21c33.333 -6 61 -21.167 83 -45.5s33 -52.5 33 -84.5s-11.667 -59.5 -35 -82.5
s-51.333 -34.5 -84 -34.5c-32 0 -59.5 11.5 -82.5 34.5s-34.5 50.5 -34.5 82.5v0zM393.998 562.001c0 -18.667 6.33301 -34.334 19 -47.001s28 -19 46 -19c18.667 0 34.5 6.33301 47.5 19s19.5 28.334 19.5 47.001c0 18 -6.5 33.5 -19.5 46.5s-28.833 19.5 -47.5 19.5
c-18 0 -33.333 -6.5 -46 -19.5s-19 -28.5 -19 -46.5v0z" />
    <glyph glyph-name="U0C4C" unicode="&#xc4c;" horiz-adv-x="614" 
d="M-192 657l662 0.00195312c40 0 74 -12.667 102 -38s42 -56.333 42 -93c0 -32 -11.5 -59.333 -34.5 -82s-50.833 -34 -83.5 -34c-34 0 -63 11.333 -87 34s-36 50 -36 82c0 15.333 2.16699 28.666 6.5 39.999s10.166 19.666 17.499 24.999l-3 5l-44 -5h-85l-35 5l-3 -5
c7.33301 -6 12.833 -12.833 16.5 -20.5s5.5 -15.834 5.5 -24.501c0 -30.667 -10.167 -56.834 -30.5 -78.501s-44.5 -32.5 -72.5 -32.5h-188v66h186c10.667 0 19.834 4.33301 27.501 13s11.5 19.334 11.5 32.001s-4 23.334 -12 32.001s-17.667 13 -29 13h-334v66v0z
M431 526.002c0 -18 6.33301 -33.333 19 -46s28 -19 46 -19s33.5 6.33301 46.5 19s19.5 28 19.5 46c0 18.667 -6.5 34.167 -19.5 46.5s-28.5 18.5 -46.5 18.5s-33.333 -6.16699 -46 -18.5s-19 -27.833 -19 -46.5v0z" />
    <glyph glyph-name="U0C4D" unicode="&#xc4d;" 
d="M235 445l-105.001 0.00292969c-29.333 5.33301 -53.833 17.833 -73.5 37.5s-29.5 42.167 -29.5 67.5c0 15.333 3.66699 29.666 11 42.999s17.333 23.666 30 30.999v4c-12.667 9.33301 -22.667 20.833 -30 34.5s-11 28.167 -11 43.5c0 32 11.667 59.667 35 83
s51.333 35 84 35h295v-65h-294c-14.667 0 -27.334 -5.16699 -38.001 -15.5s-16 -22.833 -16 -37.5s3.83301 -27 11.5 -37s16.834 -15 27.501 -15h142v-65h-140c-11.333 0 -21 -3.83301 -29 -11.5s-12 -16.834 -12 -27.501c0 -11.333 3.83301 -20.833 11.5 -28.5
s16.834 -11.5 27.501 -11.5h103v-65v0z" />
    <glyph glyph-name="U0C55" unicode="&#xc55;" horiz-adv-x="387" 
d="M114 474c-14.667 12 -26.001 26.9971 -34.001 44.9971s-12 36.667 -12 56c0 28.667 12.667 53.334 38 74.001s56 31 92 31c26.667 0 51 -8.5 73 -25.5s38 -39.833 48 -68.5l-57 -24c-9.33301 16 -19.666 28.667 -30.999 38s-22.333 14 -33 14
c-18 0 -33.167 -5.16699 -45.5 -15.5s-18.5 -22.5 -18.5 -36.5c0 -13.333 4 -26.666 12 -39.999s19.667 -26.666 35 -39.999l-67 -8v0z" />
    <glyph glyph-name="U0C56" unicode="&#xc56;" 
d="M-494 -163c0 -18 6.33301 -33.5 19 -46.5s28 -19.5 46 -19.5s33.5 6.5 46.5 19.5s19.5 28.5 19.5 46.5s-6.5 33.333 -19.5 46s-28.5 19 -46.5 19s-33.333 -6.33301 -46 -19s-19 -28 -19 -46v0zM-546 -163c0 32 11.499 59.498 34.499 82.498s50.5 34.5 82.5 34.5
c32.667 0 60.667 -11.5 84 -34.5s35 -50.5 35 -82.5c0 -10 -2.66699 -20.667 -8 -32s-12.333 -22.666 -21 -33.999l1 -5l56 5h282v-66h-417c-35.333 0 -65.666 12.833 -90.999 38.5s-38 56.834 -38 93.501v0z" />
    <glyph glyph-name="uni0C58" unicode="&#xc58;" horiz-adv-x="640" 
d="M323 795c0 -11.333 1.5 -21.832 4.5 -31.499s7.16699 -17.834 12.5 -24.501l-2 -5l-44 5h-287v-56h393c34.667 0 64 11 88 33s36 48.333 36 79c0 28 -9.83301 52 -29.5 72s-43.167 30 -70.5 30c-28 0 -51.833 -10 -71.5 -30s-29.5 -44 -29.5 -72v0zM368 795.001
c0 16 5.33301 29.333 16 40s24 16 40 16c15.333 0 28.5 -5.33301 39.5 -16s16.5 -24 16.5 -40c0 -15.333 -5.5 -28.5 -16.5 -39.5s-24.167 -16.5 -39.5 -16.5c-16 0 -29.333 5.5 -40 16.5s-16 24.167 -16 39.5v0zM428 0.000976562c-21.333 0 -40.666 5.49902 -57.999 16.499
s-29.333 25.5 -36 43.5l-5 -2c-6.66699 -17.333 -18.834 -31.333 -36.501 -42s-37.5 -16 -59.5 -16c-36.667 0 -67.667 12.667 -93 38s-38 56 -38 92c0 10.667 1.66699 21.167 5 31.5s8.33301 19.5 15 27.5l-7 7h-105v65h209v-45c-15.333 -6 -27.833 -16.667 -37.5 -32
s-14.5 -33.333 -14.5 -54c0 -18 6.5 -33.167 19.5 -45.5s28.5 -18.5 46.5 -18.5s33.333 6.16699 46 18.5s19 27.5 19 45.5v40h65v-40c0 -18 6.33301 -33.167 19 -45.5s28 -18.5 46 -18.5c30.667 0 57 16 79 48s33 70.667 33 116c0 56.667 -20.333 105.334 -61 146.001
s-89.667 61 -147 61h-22c-40 0 -74.167 14.167 -102.5 42.5s-42.5 62.5 -42.5 102.5h51c0 -25.333 9.16699 -47.333 27.5 -66s40.833 -28.667 67.5 -30c8.66699 0 18.5 3 29.5 9s22.167 14.667 33.5 26l164 157l35 -33l-172 -163
c59.333 -14.667 108.166 -45.667 146.499 -93s57.5 -100.333 57.5 -159c0 -64 -17.167 -118.333 -51.5 -163s-76.166 -67 -125.499 -67v0z" />
    <glyph glyph-name="uni0C59" unicode="&#xc59;" horiz-adv-x="651" 
d="M373 619c0 -11.333 1.5 -21.832 4.5 -31.499s7.16699 -17.834 12.5 -24.501l-2 -5l-44 5h-287v-56h393c34.667 0 64 11 88 33s36 48.333 36 79c0 28 -9.83301 52 -29.5 72s-43.167 30 -70.5 30c-28 0 -51.833 -10 -71.5 -30s-29.5 -44 -29.5 -72v0zM418 619.001
c0 16 5.33301 29.333 16 40s24 16 40 16c15.333 0 28.5 -5.33301 39.5 -16s16.5 -24 16.5 -40c0 -15.333 -5.5 -28.5 -16.5 -39.5s-24.167 -16.5 -39.5 -16.5c-16 0 -29.333 5.5 -40 16.5s-16 24.167 -16 39.5v0zM43 144.001c0 29.333 10.4971 57.0049 31.4971 83.0049
s48.833 45 83.5 57c28.667 10.667 51.667 23.5 69 38.5s26 29.5 26 43.5c0 14.667 -7.16699 27.167 -21.5 37.5s-31.166 15.5 -50.499 15.5c-20 0 -37 -5.16699 -51 -15.5s-21 -22.833 -21 -37.5c0 -10 1.33301 -19.333 4 -28s6.33398 -16.667 11.001 -24l-56 -13
c-8 9.33301 -14.167 19.666 -18.5 30.999s-6.5 22.666 -6.5 33.999c0 32 13.5 59.333 40.5 82s59.5 34 97.5 34c26 0 49.833 -5.33301 71.5 -16s37.834 -25.334 48.501 -44.001c34 -34.667 67.333 -61.334 100 -80.001s61.667 -28 87 -28c18 0 33.5 5 46.5 15
s19.5 22.333 19.5 37c0 10.667 -6.5 20 -19.5 28s-28.5 12 -46.5 12c-4.66699 0 -11.5 -1.33301 -20.5 -4s-21.5 -7 -37.5 -13l-24 52c11.333 9.33301 24.166 16.5 38.499 21.5s28.833 7.5 43.5 7.5c36 0 66.667 -10.167 92 -30.5s38 -44.833 38 -73.5
c0 -32 -12.667 -59.5 -38 -82.5s-56 -34.5 -92 -34.5c-28.667 0 -58.167 8.66699 -88.5 26s-58.833 41.666 -85.5 72.999l-7 -2c0 -21.333 -9.33301 -42 -28 -62s-43 -35.667 -73 -47c-29.333 -10.667 -52.833 -24.5 -70.5 -41.5s-26.5 -34.167 -26.5 -51.5
c0 -22 7.66699 -40.5 23 -55.5s34 -22.5 56 -22.5c30 0 55.333 12.667 76 38s31 56 31 92h47c0 -36 10.5 -66.667 31.5 -92s46.167 -38 75.5 -38c22 0 40.667 7.5 56 22.5s23 33.5 23 55.5c0 14 -1.66699 27.5 -5 40.5s-8.66602 25.5 -15.999 37.5h70
c5.33301 -14.667 9.33301 -28.5 12 -41.5s4 -25.167 4 -36.5c0 -40 -14 -74 -42 -102s-62 -42 -102 -42c-26 0 -50.333 6.5 -73 19.5s-40.667 31.167 -54 54.5h-8c-13.333 -22.667 -31.333 -40.667 -54 -54s-46.667 -20 -72 -20c-40 0 -74.167 14 -102.5 42
s-42.5 62 -42.5 102v0z" />
    <glyph glyph-name="U0C5A" unicode="&#xc5a;" horiz-adv-x="645" 
d="M323 482c24.667 0 53 -4.66699 85 -14c60 -17.333 108.667 -51.166 146 -101.499s56 -107.166 56 -170.499c0 -54 -16 -100.167 -48 -138.5s-71 -57.5 -117 -57.5c-26.667 0 -51 7.16699 -73 21.5s-37.333 33.5 -46 57.5h-6c-8.66699 -24 -24 -43.167 -46 -57.5
s-46.333 -21.5 -73 -21.5c-46 0 -85 19.167 -117 57.5s-48 84.5 -48 138.5c0 63.333 18.667 120.166 56 170.499s86 84.166 146 101.499c32 9.33301 60.333 14 85 14zM104 243c-2.66699 -15.333 -4 -31 -4 -47c0 -36 9 -66.667 27 -92s39.667 -38 65 -38
c29.333 0 54.333 12.667 75 38s31 56 31 92h50c0 -36 10.333 -66.667 31 -92s45.667 -38 75 -38c25.333 0 47 12.667 65 38s27 56 27 92c0 16 -1.33301 31.667 -4 47h-438zM519 304c-10 18 -22.667 34.667 -38 50c-43.333 43.333 -96 65 -158 65s-114.667 -21.667 -158 -65
c-15.333 -15.333 -28 -32 -38 -50h392z" />
    </font>
</defs>
</svg>
